OpenSans-ExtraBoldItalic.ufo
<glyph name="dollar" format="2">
  <advance width="1188"/>
  <unicode hex="0024"/>
  <outline>
    <contour>
      <point x="367" y="-121" type="line"/>
      <point x="535" y="-121" type="line"/>
      <point x="573" y="66" type="line"/>
      <point x="860" y="82"/>
      <point x="1075" y="236"/>
      <point x="1075" y="492" type="curve" smooth="yes"/>
      <point x="1075" y="657"/>
      <point x="981" y="756"/>
      <point x="743" y="862" type="curve"/>
      <point x="803" y="1139" type="line"/>
      <point x="895" y="1128"/>
      <point x="1001" y="1102"/>
      <point x="1075" y="1063" type="curve"/>
      <point x="1176" y="1331" type="line"/>
      <point x="1075" y="1380"/>
      <point x="973" y="1409"/>
      <point x="862" y="1419" type="curve"/>
      <point x="893" y="1556" type="line"/>
      <point x="725" y="1556" type="line"/>
      <point x="696" y="1423" type="line"/>
      <point x="385" y="1405"/>
      <point x="188" y="1262"/>
      <point x="188" y="1008" type="curve" smooth="yes"/>
      <point x="188" y="819"/>
      <point x="319" y="711"/>
      <point x="528" y="631" type="curve"/>
      <point x="469" y="352" type="line"/>
      <point x="346" y="362"/>
      <point x="197" y="401"/>
      <point x="55" y="467" type="curve"/>
      <point x="61" y="162" type="line"/>
      <point x="131" y="119"/>
      <point x="242" y="82"/>
      <point x="408" y="70" type="curve"/>
    </contour>
    <contour>
      <point x="635" y="358" type="curve"/>
      <point x="680" y="569" type="line"/>
      <point x="721" y="545"/>
      <point x="748" y="514"/>
      <point x="748" y="465" type="curve" smooth="yes"/>
      <point x="748" y="416"/>
      <point x="717" y="377"/>
    </contour>
    <contour>
      <point x="592" y="932" type="line"/>
      <point x="557" y="952"/>
      <point x="539" y="977"/>
      <point x="539" y="1022" type="curve" smooth="yes"/>
      <point x="539" y="1075"/>
      <point x="559" y="1118"/>
      <point x="637" y="1135" type="curve"/>
    </contour>
  </outline>
</glyph>
<glyph name="percent" format="2">
  <advance width="1905"/>
  <unicode hex="0025"/>
  <outline>
    <contour>
      <point x="293" y="0" type="line"/>
      <point x="590" y="0" type="line"/>
      <point x="1671" y="1462" type="line"/>
      <point x="1382" y="1462" type="line"/>
    </contour>
    <contour>
      <point x="438" y="565" type="curve" smooth="yes"/>
      <point x="772" y="565"/>
      <point x="874" y="903"/>
      <point x="874" y="1139" type="curve" smooth="yes"/>
      <point x="874" y="1358"/>
      <point x="768" y="1483"/>
      <point x="555" y="1483" type="curve" smooth="yes"/>
      <point x="229" y="1483"/>
      <point x="115" y="1149"/>
      <point x="115" y="909" type="curve" smooth="yes"/>
      <point x="115" y="682"/>
      <point x="229" y="565"/>
    </contour>
    <contour>
      <point x="457" y="807" type="curve" smooth="yes"/>
      <point x="420" y="807"/>
      <point x="403" y="836"/>
      <point x="403" y="891" type="curve" smooth="yes"/>
      <point x="403" y="1036"/>
      <point x="463" y="1241"/>
      <point x="537" y="1241" type="curve" smooth="yes"/>
      <point x="575" y="1241"/>
      <point x="590" y="1214"/>
      <point x="590" y="1157" type="curve" smooth="yes"/>
      <point x="590" y="1024"/>
      <point x="537" y="807"/>
    </contour>
    <contour>
      <point x="1421" y="-20" type="curve" smooth="yes"/>
      <point x="1755" y="-20"/>
      <point x="1858" y="317"/>
      <point x="1858" y="553" type="curve" smooth="yes"/>
      <point x="1858" y="772"/>
      <point x="1751" y="897"/>
      <point x="1538" y="897" type="curve" smooth="yes"/>
      <point x="1212" y="897"/>
      <point x="1098" y="563"/>
      <point x="1098" y="324" type="curve" smooth="yes"/>
      <point x="1098" y="96"/>
      <point x="1212" y="-20"/>
    </contour>
    <contour>
      <point x="1440" y="221" type="curve" smooth="yes"/>
      <point x="1403" y="221"/>
      <point x="1386" y="250"/>
      <point x="1386" y="305" type="curve" smooth="yes"/>
      <point x="1386" y="451"/>
      <point x="1446" y="655"/>
      <point x="1520" y="655" type="curve" smooth="yes"/>
      <point x="1559" y="655"/>
      <point x="1573" y="629"/>
      <point x="1573" y="571" type="curve" smooth="yes"/>
      <point x="1573" y="438"/>
      <point x="1520" y="221"/>
    </contour>
  </outline>
</glyph>
<glyph name="parenleft" format="2">
  <advance width="766"/>
  <unicode hex="0028"/>
  <outline>
    <contour>
      <point x="219" y="-324" type="curve"/>
      <point x="512" y="-324" type="line"/>
      <point x="438" y="-135"/>
      <point x="395" y="119"/>
      <point x="395" y="309" type="curve" smooth="yes"/>
      <point x="395" y="807"/>
      <point x="612" y="1188"/>
      <point x="903" y="1503" type="curve"/>
      <point x="580" y="1503" type="line"/>
      <point x="248" y="1161"/>
      <point x="68" y="791"/>
      <point x="68" y="326" type="curve" smooth="yes"/>
      <point x="68" y="113"/>
      <point x="123" y="-154"/>
    </contour>
  </outline>
</glyph>
<glyph name="parenright" format="2">
  <advance width="766"/>
  <unicode hex="0029"/>
  <outline>
    <contour>
      <point x="-133" y="-324" type="curve"/>
      <point x="193" y="-324" type="line"/>
      <point x="524" y="18"/>
      <point x="694" y="389"/>
      <point x="694" y="854" type="curve" smooth="yes"/>
      <point x="694" y="1067"/>
      <point x="647" y="1321"/>
      <point x="543" y="1503" type="curve"/>
      <point x="248" y="1503" type="line"/>
      <point x="322" y="1315"/>
      <point x="367" y="1061"/>
      <point x="367" y="870" type="curve" smooth="yes"/>
      <point x="367" y="373"/>
      <point x="158" y="-8"/>
    </contour>
  </outline>
</glyph>
<glyph name="comma" format="2">
  <advance width="627"/>
  <unicode hex="002C"/>
  <outline>
    <contour>
      <point x="-104" y="-264" type="curve"/>
      <point x="184" y="-264" type="line"/>
      <point x="281" y="-115"/>
      <point x="377" y="70"/>
      <point x="440" y="215" type="curve"/>
      <point x="432" y="238" type="line"/>
      <point x="84" y="238" type="line"/>
      <point x="33" y="96"/>
      <point x="-33" y="-102"/>
    </contour>
  </outline>
</glyph>
<glyph name="hyphen" format="2">
  <advance width="674"/>
  <unicode hex="002D"/>
  <outline>
    <contour>
      <point x="23" y="393" type="line"/>
      <point x="575" y="393" type="line"/>
      <point x="639" y="705" type="line"/>
      <point x="86" y="705" type="line"/>
    </contour>
  </outline>
</glyph>
<glyph name="four" format="2">
  <advance width="1188"/>
  <unicode hex="0034"/>
  <outline>
    <contour>
      <point x="479" y="0" type="line"/>
      <point x="856" y="0" type="line"/>
      <point x="915" y="283" type="line"/>
      <point x="1065" y="283" type="line"/>
      <point x="1126" y="578" type="line"/>
      <point x="977" y="578" type="line"/>
      <point x="1163" y="1462" type="line"/>
      <point x="803" y="1462" type="line"/>
      <point x="41" y="539" type="line"/>
      <point x="-10" y="283" type="line"/>
      <point x="539" y="283" type="line"/>
    </contour>
    <contour>
      <point x="391" y="578" type="line"/>
      <point x="586" y="811" type="line" smooth="yes"/>
      <point x="627" y="858"/>
      <point x="676" y="938"/>
      <point x="700" y="983" type="curve"/>
      <point x="709" y="983" type="line"/>
      <point x="700" y="956"/>
      <point x="668" y="842"/>
      <point x="649" y="772" type="curve" smooth="yes"/>
      <point x="600" y="578" type="line"/>
    </contour>
  </outline>
</glyph>
<glyph name="seven" format="2">
  <advance width="1188"/>
  <unicode hex="0037"/>
  <outline>
    <contour>
      <point x="35" y="0" type="line"/>
      <point x="483" y="0" type="line"/>
      <point x="1227" y="1231" type="line"/>
      <point x="1278" y="1462" type="line"/>
      <point x="248" y="1462" type="line"/>
      <point x="178" y="1135" type="line"/>
      <point x="752" y="1135" type="line"/>
    </contour>
  </outline>
</glyph>
<glyph name="equal" format="2">
  <advance width="1200"/>
  <unicode hex="003D"/>
  <outline>
    <contour>
      <point x="92" y="815" type="line"/>
      <point x="1108" y="815" type="line"/>
      <point x="1108" y="1083" type="line"/>
      <point x="92" y="1083" type="line"/>
    </contour>
    <contour>
      <point x="92" y="358" type="line"/>
      <point x="1108" y="358" type="line"/>
      <point x="1108" y="629" type="line"/>
      <point x="92" y="629" type="line"/>
    </contour>
  </outline>
</glyph>
<glyph name="question" format="2">
  <advance width="999"/>
  <unicode hex="003F"/>
  <outline>
    <contour>
      <point x="250" y="516" type="curve"/>
      <point x="578" y="516" type="line"/>
      <point x="612" y="621"/>
      <point x="629" y="649"/>
      <point x="784" y="743" type="curve" smooth="yes"/>
      <point x="926" y="829"/>
      <point x="1061" y="920"/>
      <point x="1061" y="1145" type="curve" smooth="yes"/>
      <point x="1061" y="1354"/>
      <point x="893" y="1483"/>
      <point x="623" y="1483" type="curve" smooth="yes"/>
      <point x="451" y="1483"/>
      <point x="289" y="1423"/>
      <point x="162" y="1348" type="curve"/>
      <point x="281" y="1065" type="line"/>
      <point x="408" y="1139"/>
      <point x="520" y="1174"/>
      <point x="594" y="1174" type="curve" smooth="yes"/>
      <point x="664" y="1174"/>
      <point x="684" y="1145"/>
      <point x="684" y="1104" type="curve" smooth="yes"/>
      <point x="684" y="1057"/>
      <point x="655" y="1020"/>
      <point x="522" y="932" type="curve" smooth="yes"/>
      <point x="348" y="813"/>
      <point x="291" y="739"/>
    </contour>
    <contour>
      <point x="334" y="-25" type="curve" smooth="yes"/>
      <point x="473" y="-25"/>
      <point x="571" y="51"/>
      <point x="571" y="205" type="curve" smooth="yes"/>
      <point x="571" y="303"/>
      <point x="506" y="360"/>
      <point x="391" y="360" type="curve" smooth="yes"/>
      <point x="227" y="360"/>
      <point x="147" y="258"/>
      <point x="147" y="127" type="curve" smooth="yes"/>
      <point x="147" y="49"/>
      <point x="193" y="-25"/>
    </contour>
  </outline>
</glyph>
<glyph name="A" format="2">
  <advance width="1384"/>
  <unicode hex="0041"/>
  <anchor x="571" y="0" name="bottom"/>
  <anchor x="883" y="1462" name="top"/>
  <anchor x="1534" y="1462" name="topright"/>
  <outline>
    <contour>
      <point x="-121" y="0" type="line"/>
      <point x="285" y="0" type="line"/>
      <point x="410" y="274" type="line"/>
      <point x="858" y="274" type="line"/>
      <point x="868" y="0" type="line"/>
      <point x="1249" y="0" type="line"/>
      <point x="1126" y="1462" type="line"/>
      <point x="623" y="1462" type="line"/>
    </contour>
    <contour>
      <point x="553" y="586" type="line"/>
      <point x="752" y="1014" type="line" smooth="yes"/>
      <point x="780" y="1075"/>
      <point x="803" y="1133"/>
      <point x="823" y="1194" type="curve"/>
      <point x="829" y="1194" type="line"/>
      <point x="827" y="1137"/>
      <point x="829" y="1071"/>
      <point x="831" y="1006" type="curve" smooth="yes"/>
      <point x="846" y="586" type="line"/>
    </contour>
  </outline>
</glyph>
<glyph name="F" format="2">
  <advance width="1165"/>
  <unicode hex="0046"/>
  <anchor x="463" y="0" name="bottom"/>
  <anchor x="774" y="1462" name="top"/>
  <anchor x="1315" y="1462" name="topright"/>
  <outline>
    <contour>
      <point x="33" y="0" type="line"/>
      <point x="424" y="0" type="line"/>
      <point x="537" y="547" type="line"/>
      <point x="975" y="547" type="line"/>
      <point x="1044" y="866" type="line"/>
      <point x="608" y="866" type="line"/>
      <point x="666" y="1145" type="line"/>
      <point x="1137" y="1145" type="line"/>
      <point x="1204" y="1462" type="line"/>
      <point x="342" y="1462" type="line"/>
    </contour>
  </outline>
</glyph>
<glyph name="I" format="2">
  <advance width="723"/>
  <unicode hex="0049"/>
  <anchor x="246" y="0" name="bottom"/>
  <anchor x="539" y="1462" name="top"/>
  <anchor x="872" y="1462" name="topright"/>
  <outline>
    <contour>
      <point x="33" y="0" type="line"/>
      <point x="424" y="0" type="line"/>
      <point x="733" y="1462" type="line"/>
      <point x="342" y="1462" type="line"/>
    </contour>
  </outline>
</glyph>
<glyph name="J" format="2">
  <advance width="764"/>
  <unicode hex="004A"/>
  <anchor x="-115" y="-461" name="bottom"/>
  <anchor x="573" y="1462" name="top"/>
  <anchor x="913" y="1462" name="topright"/>
  <outline>
    <contour>
      <point x="-115" y="-461" type="curve" smooth="yes"/>
      <point x="238" y="-461"/>
      <point x="391" y="-317"/>
      <point x="473" y="68" type="curve" smooth="yes"/>
      <point x="772" y="1462" type="line"/>
      <point x="381" y="1462" type="line"/>
      <point x="92" y="117" type="line" smooth="yes"/>
      <point x="49" y="-86"/>
      <point x="-29" y="-137"/>
      <point x="-154" y="-137" type="curve" smooth="yes"/>
      <point x="-225" y="-137"/>
      <point x="-279" y="-125"/>
      <point x="-328" y="-113" type="curve"/>
      <point x="-328" y="-432" type="line"/>
      <point x="-264" y="-449"/>
      <point x="-184" y="-461"/>
    </contour>
  </outline>
</glyph>
<glyph name="K" format="2">
  <advance width="1370"/>
  <unicode hex="004B"/>
  <anchor x="598" y="0" name="bottom"/>
  <anchor x="897" y="1462" name="top"/>
  <anchor x="1520" y="1462" name="topright"/>
  <outline>
    <contour>
      <point x="33" y="0" type="line"/>
      <point x="424" y="0" type="line"/>
      <point x="532" y="522" type="line"/>
      <point x="629" y="578" type="line"/>
      <point x="803" y="0" type="line"/>
      <point x="1241" y="0" type="line"/>
      <point x="971" y="788" type="line"/>
      <point x="1522" y="1462" type="line"/>
      <point x="1063" y="1462" type="line"/>
      <point x="743" y="1042" type="line"/>
      <point x="598" y="838" type="line"/>
      <point x="733" y="1462" type="line"/>
      <point x="342" y="1462" type="line"/>
    </contour>
  </outline>
</glyph>
<glyph name="M" format="2">
  <advance width="1862"/>
  <unicode hex="004D"/>
  <anchor x="774" y="0" name="bottom"/>
  <anchor x="1092" y="1462" name="top"/>
  <anchor x="2011" y="1462" name="topright"/>
  <outline>
    <contour>
      <point x="33" y="0" type="line"/>
      <point x="381" y="0" type="line"/>
      <point x="494" y="537" type="line" smooth="yes"/>
      <point x="520" y="668"/>
      <point x="547" y="842"/>
      <point x="580" y="1049" type="curve" smooth="yes"/>
      <point x="588" y="1049" type="line"/>
      <point x="588" y="0" type="line"/>
      <point x="958" y="0" type="line"/>
      <point x="1440" y="1049" type="line"/>
      <point x="1448" y="1049" type="line"/>
      <point x="1434" y="981"/>
      <point x="1391" y="854"/>
      <point x="1325" y="549" type="curve" smooth="yes"/>
      <point x="1208" y="0" type="line"/>
      <point x="1559" y="0" type="line"/>
      <point x="1872" y="1462" type="line"/>
      <point x="1346" y="1462" type="line"/>
      <point x="868" y="424" type="line"/>
      <point x="860" y="424" type="line"/>
      <point x="860" y="1462" type="line"/>
      <point x="342" y="1462" type="line"/>
    </contour>
  </outline>
</glyph>
<glyph name="O" format="2">
  <advance width="1509"/>
  <unicode hex="004F"/>
  <anchor x="668" y="0" name="bottom"/>
  <anchor x="842" y="731" name="center"/>
  <anchor x="932" y="1462" name="top"/>
  <anchor x="1659" y="1462" name="topright"/>
  <outline>
    <contour>
      <point x="666" y="-20" type="curve" smooth="yes"/>
      <point x="1204" y="-20"/>
      <point x="1446" y="467"/>
      <point x="1446" y="922" type="curve" smooth="yes"/>
      <point x="1446" y="1262"/>
      <point x="1257" y="1485"/>
      <point x="897" y="1485" type="curve" smooth="yes"/>
      <point x="354" y="1485"/>
      <point x="104" y="997"/>
      <point x="104" y="543" type="curve" smooth="yes"/>
      <point x="104" y="203"/>
      <point x="293" y="-20"/>
    </contour>
    <contour>
      <point x="700" y="303" type="curve" smooth="yes"/>
      <point x="567" y="303"/>
      <point x="500" y="387"/>
      <point x="500" y="545" type="curve" smooth="yes"/>
      <point x="500" y="840"/>
      <point x="645" y="1161"/>
      <point x="864" y="1161" type="curve" smooth="yes"/>
      <point x="985" y="1161"/>
      <point x="1051" y="1069"/>
      <point x="1051" y="918" type="curve" smooth="yes"/>
      <point x="1051" y="582"/>
      <point x="897" y="303"/>
    </contour>
  </outline>
</glyph>
<glyph name="R" format="2">
  <advance width="1331"/>
  <unicode hex="0052"/>
  <anchor x="565" y="0" name="bottom"/>
  <anchor x="848" y="1462" name="top"/>
  <anchor x="1481" y="1462" name="topright"/>
  <outline>
    <contour>
      <point x="33" y="0" type="line"/>
      <point x="424" y="0" type="line"/>
      <point x="537" y="532" type="line"/>
      <point x="610" y="532" type="line"/>
      <point x="805" y="0" type="line"/>
      <point x="1231" y="0" type="line"/>
      <point x="967" y="612" type="line"/>
      <point x="1094" y="668"/>
      <point x="1249" y="793"/>
      <point x="1249" y="1061" type="curve" smooth="yes"/>
      <point x="1249" y="1329"/>
      <point x="1065" y="1462"/>
      <point x="729" y="1462" type="curve" smooth="yes"/>
      <point x="342" y="1462" type="line"/>
    </contour>
    <contour>
      <point x="600" y="829" type="line"/>
      <point x="670" y="1163" type="line"/>
      <point x="723" y="1163" type="line" smooth="yes"/>
      <point x="823" y="1163"/>
      <point x="858" y="1106"/>
      <point x="858" y="1036" type="curve" smooth="yes"/>
      <point x="858" y="887"/>
      <point x="756" y="829"/>
      <point x="651" y="829" type="curve" smooth="yes"/>
    </contour>
  </outline>
</glyph>
<glyph name="U" format="2">
  <advance width="1436"/>
  <unicode hex="0055"/>
  <anchor x="586" y="0" name="bottom"/>
  <anchor x="885" y="1462" name="top"/>
  <anchor x="1585" y="1462" name="topright"/>
  <outline>
    <contour>
      <point x="610" y="-20" type="curve" smooth="yes"/>
      <point x="1001" y="-20"/>
      <point x="1176" y="174"/>
      <point x="1251" y="530" type="curve" smooth="yes"/>
      <point x="1450" y="1462" type="line"/>
      <point x="1059" y="1462" type="line"/>
      <point x="868" y="569" type="line" smooth="yes"/>
      <point x="827" y="379"/>
      <point x="764" y="307"/>
      <point x="647" y="307" type="curve" smooth="yes"/>
      <point x="563" y="307"/>
      <point x="518" y="354"/>
      <point x="518" y="434" type="curve" smooth="yes"/>
      <point x="518" y="469"/>
      <point x="524" y="510"/>
      <point x="532" y="549" type="curve" smooth="yes"/>
      <point x="727" y="1462" type="line"/>
      <point x="336" y="1462" type="line"/>
      <point x="137" y="539" type="line" smooth="yes"/>
      <point x="129" y="496"/>
      <point x="125" y="444"/>
      <point x="125" y="403" type="curve" smooth="yes"/>
      <point x="125" y="158"/>
      <point x="305" y="-20"/>
    </contour>
  </outline>
</glyph>
<glyph name="V" format="2">
  <advance width="1264"/>
  <unicode hex="0056"/>
  <anchor x="467" y="0" name="bottom"/>
  <anchor x="768" y="1462" name="top"/>
  <anchor x="1413" y="1462" name="topright"/>
  <outline>
    <contour>
      <point x="254" y="0" type="line"/>
      <point x="690" y="0" type="line"/>
      <point x="1415" y="1462" type="line"/>
      <point x="1001" y="1462" type="line"/>
      <point x="651" y="657" type="line" smooth="yes"/>
      <point x="623" y="596"/>
      <point x="575" y="461"/>
      <point x="551" y="354" type="curve"/>
      <point x="543" y="354" type="line"/>
      <point x="557" y="436"/>
      <point x="561" y="618"/>
      <point x="557" y="725" type="curve" smooth="yes"/>
      <point x="532" y="1462" type="line"/>
      <point x="150" y="1462" type="line"/>
    </contour>
  </outline>
</glyph>
<glyph name="W" format="2">
  <advance width="1915"/>
  <unicode hex="0057"/>
  <anchor x="819" y="0" name="bottom"/>
  <anchor x="1118" y="1462" name="top"/>
  <anchor x="2064" y="1462" name="topright"/>
  <outline>
    <contour>
      <point x="201" y="0" type="line"/>
      <point x="635" y="0" type="line"/>
      <point x="860" y="530" type="line" smooth="yes"/>
      <point x="911" y="649"/>
      <point x="956" y="768"/>
      <point x="997" y="895" type="curve"/>
      <point x="1006" y="895" type="line"/>
      <point x="997" y="784"/>
      <point x="993" y="666"/>
      <point x="993" y="561" type="curve" smooth="yes"/>
      <point x="993" y="0" type="line"/>
      <point x="1454" y="0" type="line"/>
      <point x="2089" y="1462" type="line"/>
      <point x="1702" y="1462" type="line"/>
      <point x="1425" y="762" type="line" smooth="yes"/>
      <point x="1380" y="647"/>
      <point x="1321" y="475"/>
      <point x="1290" y="369" type="curve"/>
      <point x="1282" y="369" type="line"/>
      <point x="1290" y="465"/>
      <point x="1292" y="602"/>
      <point x="1292" y="670" type="curve" smooth="yes"/>
      <point x="1292" y="1462" type="line"/>
      <point x="956" y="1462" type="line"/>
      <point x="621" y="690" type="line" smooth="yes"/>
      <point x="578" y="592"/>
      <point x="530" y="475"/>
      <point x="502" y="385" type="curve"/>
      <point x="494" y="385" type="line"/>
      <point x="504" y="475"/>
      <point x="510" y="612"/>
      <point x="512" y="729" type="curve" smooth="yes"/>
      <point x="522" y="1462" type="line"/>
      <point x="152" y="1462" type="line"/>
    </contour>
  </outline>
</glyph>
<glyph name="backslash" format="2">
  <advance width="956"/>
  <unicode hex="005C"/>
  <outline>
    <contour>
      <point x="459" y="-20" type="line"/>
      <point x="778" y="-20" type="line"/>
      <point x="530" y="1483" type="line"/>
      <point x="221" y="1483" type="line"/>
    </contour>
  </outline>
</glyph>
<glyph name="bracketright" format="2">
  <advance width="737"/>
  <unicode hex="005D"/>
  <outline>
    <contour>
      <point x="-133" y="-344" type="line"/>
      <point x="393" y="-344" type="line"/>
      <point x="786" y="1503" type="line"/>
      <point x="258" y="1503" type="line"/>
      <point x="203" y="1249" type="line"/>
      <point x="418" y="1249" type="line"/>
      <point x="133" y="-90" type="line"/>
      <point x="-80" y="-90" type="line"/>
    </contour>
  </outline>
</glyph>
<glyph name="underscore" format="2">
  <advance width="922"/>
  <unicode hex="005F"/>
  <outline>
    <contour>
      <point x="-184" y="-379" type="line"/>
      <point x="745" y="-379" type="line"/>
      <point x="803" y="-133" type="line"/>
      <point x="-127" y="-133" type="line"/>
    </contour>
  </outline>
</glyph>
<glyph name="grave" format="2">
  <advance width="723"/>
  <unicode hex="0060"/>
  <anchor x="578" y="1133" name="_top"/>
  <outline>
    <contour>
      <point x="549" y="1241" type="curve"/>
      <point x="784" y="1241" type="line"/>
      <point x="784" y="1266" type="line"/>
      <point x="737" y="1370"/>
      <point x="707" y="1481"/>
      <point x="690" y="1569" type="curve"/>
      <point x="295" y="1569" type="line"/>
      <point x="295" y="1548" type="line"/>
      <point x="344" y="1448"/>
      <point x="459" y="1325"/>
    </contour>
  </outline>
</glyph>
<glyph name="b" format="2">
  <advance width="1243"/>
  <unicode hex="0062"/>
  <anchor x="512" y="0" name="bottom"/>
  <anchor x="874" y="1556" name="top"/>
  <anchor x="1413" y="1556" name="topright"/>
  <outline>
    <contour>
      <point x="657" y="-20" type="curve" smooth="yes"/>
      <point x="1001" y="-20"/>
      <point x="1159" y="444"/>
      <point x="1159" y="721" type="curve" smooth="yes"/>
      <point x="1159" y="1042"/>
      <point x="1012" y="1153"/>
      <point x="838" y="1153" type="curve"/>
      <point x="711" y="1153"/>
      <point x="662" y="1090"/>
      <point x="608" y="1024" type="curve"/>
      <point x="600" y="1024" type="line"/>
      <point x="625" y="1081"/>
      <point x="666" y="1200"/>
      <point x="690" y="1325" type="curve" smooth="yes"/>
      <point x="739" y="1556" type="line"/>
      <point x="352" y="1556" type="line"/>
      <point x="23" y="0" type="line"/>
      <point x="330" y="0" type="line"/>
      <point x="379" y="125" type="line"/>
      <point x="387" y="125" type="line"/>
      <point x="467" y="20"/>
      <point x="543" y="-20"/>
    </contour>
    <contour>
      <point x="563" y="291" type="curve"/>
      <point x="510" y="291"/>
      <point x="485" y="348"/>
      <point x="485" y="434" type="curve" smooth="yes"/>
      <point x="485" y="602"/>
      <point x="557" y="842"/>
      <point x="678" y="842" type="curve" smooth="yes"/>
      <point x="735" y="842"/>
      <point x="764" y="791"/>
      <point x="764" y="698" type="curve" smooth="yes"/>
      <point x="764" y="504"/>
      <point x="670" y="291"/>
    </contour>
  </outline>
</glyph>
<glyph name="c" format="2">
  <advance width="1032"/>
  <unicode hex="0063"/>
  <anchor x="471" y="0" name="bottom"/>
  <anchor x="659" y="1133" name="top"/>
  <anchor x="1112" y="1133" name="topright"/>
  <outline>
    <contour>
      <point x="506" y="-20" type="curve" smooth="yes"/>
      <point x="664" y="-20"/>
      <point x="774" y="12"/>
      <point x="881" y="70" type="curve"/>
      <point x="881" y="377" type="line"/>
      <point x="780" y="324"/>
      <point x="694" y="291"/>
      <point x="598" y="291" type="curve" smooth="yes"/>
      <point x="520" y="291"/>
      <point x="473" y="334"/>
      <point x="473" y="467" type="curve" smooth="yes"/>
      <point x="473" y="614"/>
      <point x="549" y="846"/>
      <point x="709" y="846" type="curve" smooth="yes"/>
      <point x="782" y="846"/>
      <point x="866" y="817"/>
      <point x="934" y="786" type="curve"/>
      <point x="1057" y="1073" type="line"/>
      <point x="942" y="1126"/>
      <point x="831" y="1153"/>
      <point x="690" y="1153" type="curve" smooth="yes"/>
      <point x="322" y="1153"/>
      <point x="84" y="842"/>
      <point x="84" y="442" type="curve" smooth="yes"/>
      <point x="84" y="113"/>
      <point x="276" y="-20"/>
    </contour>
  </outline>
</glyph>
<glyph name="g" format="2">
  <advance width="1170"/>
  <unicode hex="0067"/>
  <note>
g
</note>
  <anchor x="364" y="-492" name="bottom"/>
  <anchor x="698" y="1133" name="top"/>
  <anchor x="1290" y="1133" name="topright"/>
  <outline>
    <contour>
      <point x="347" y="-492" type="curve" smooth="yes"/>
      <point x="760" y="-492"/>
      <point x="994" y="-330"/>
      <point x="994" y="-43" type="curve" smooth="yes"/>
      <point x="994" y="121"/>
      <point x="900" y="208"/>
      <point x="668" y="238" type="curve" smooth="yes"/>
      <point x="531" y="256" type="line" smooth="yes"/>
      <point x="457" y="266"/>
      <point x="420" y="286"/>
      <point x="420" y="315" type="curve" smooth="yes"/>
      <point x="420" y="340"/>
      <point x="441" y="352"/>
      <point x="468" y="367" type="curve"/>
      <point x="500" y="358"/>
      <point x="541" y="354"/>
      <point x="592" y="354" type="curve" smooth="yes"/>
      <point x="871" y="354"/>
      <point x="1061" y="525"/>
      <point x="1061" y="780" type="curve" smooth="yes"/>
      <point x="1061" y="816"/>
      <point x="1058" y="847"/>
      <point x="1051" y="874" type="curve"/>
      <point x="1211" y="926" type="line"/>
      <point x="1252" y="1133" type="line"/>
      <point x="853" y="1133" type="line"/>
      <point x="809" y="1144"/>
      <point x="724" y="1153"/>
      <point x="656" y="1153" type="curve" smooth="yes"/>
      <point x="347" y="1153"/>
      <point x="152" y="988"/>
      <point x="152" y="727" type="curve" smooth="yes"/>
      <point x="152" y="608"/>
      <point x="196" y="515"/>
      <point x="283" y="446" type="curve"/>
      <point x="148" y="385"/>
      <point x="80" y="314"/>
      <point x="80" y="219" type="curve" smooth="yes"/>
      <point x="80" y="163"/>
      <point x="115" y="111"/>
      <point x="164" y="80" type="curve"/>
      <point x="-28" y="17"/>
      <point x="-116" y="-76"/>
      <point x="-116" y="-207" type="curve" smooth="yes"/>
      <point x="-116" y="-386"/>
      <point x="64" y="-492"/>
    </contour>
    <contour>
      <point x="384" y="-238" type="curve" smooth="yes"/>
      <point x="271" y="-238"/>
      <point x="214" y="-209"/>
      <point x="214" y="-152" type="curve" smooth="yes"/>
      <point x="214" y="-89"/>
      <point x="273" y="-48"/>
      <point x="377" y="-33" type="curve"/>
      <point x="492" y="-45" type="line" smooth="yes"/>
      <point x="573" y="-53"/>
      <point x="640" y="-68"/>
      <point x="640" y="-127" type="curve" smooth="yes"/>
      <point x="640" y="-214"/>
      <point x="510" y="-238"/>
    </contour>
    <contour>
      <point x="584" y="598" type="curve" smooth="yes"/>
      <point x="539" y="598"/>
      <point x="517" y="629"/>
      <point x="517" y="692" type="curve" smooth="yes"/>
      <point x="517" y="785"/>
      <point x="557" y="920"/>
      <point x="642" y="920" type="curve" smooth="yes"/>
      <point x="683" y="920"/>
      <point x="703" y="888"/>
      <point x="703" y="825" type="curve" smooth="yes"/>
      <point x="703" y="705"/>
      <point x="653" y="598"/>
    </contour>
  </outline>
</glyph>
<glyph name="l" format="2">
  <advance width="666"/>
  <unicode hex="006C"/>
  <anchor x="213" y="0" name="bottom"/>
  <anchor x="455" y="567" name="center"/>
  <anchor x="547" y="1556" name="top"/>
  <anchor x="776" y="1556" name="topright"/>
  <outline>
    <contour>
      <point x="23" y="0" type="line"/>
      <point x="410" y="0" type="line"/>
      <point x="739" y="1556" type="line"/>
      <point x="352" y="1556" type="line"/>
    </contour>
  </outline>
</glyph>
<glyph name="n" format="2">
  <advance width="1274"/>
  <unicode hex="006E"/>
  <anchor x="524" y="0" name="bottom"/>
  <anchor x="770" y="1133" name="top"/>
  <anchor x="1354" y="1133" name="topright"/>
  <outline>
    <contour>
      <point x="23" y="0" type="line"/>
      <point x="410" y="0" type="line"/>
      <point x="526" y="553" type="line" smooth="yes"/>
      <point x="567" y="754"/>
      <point x="635" y="846"/>
      <point x="711" y="846" type="curve" smooth="yes"/>
      <point x="752" y="846"/>
      <point x="786" y="817"/>
      <point x="786" y="760" type="curve" smooth="yes"/>
      <point x="786" y="713"/>
      <point x="776" y="653"/>
      <point x="768" y="618" type="curve" smooth="yes"/>
      <point x="639" y="0" type="line"/>
      <point x="1026" y="0" type="line"/>
      <point x="1153" y="602" type="line" smooth="yes"/>
      <point x="1167" y="674"/>
      <point x="1178" y="756"/>
      <point x="1178" y="831" type="curve" smooth="yes"/>
      <point x="1178" y="1006"/>
      <point x="1090" y="1153"/>
      <point x="879" y="1153" type="curve" smooth="yes"/>
      <point x="735" y="1153"/>
      <point x="641" y="1102"/>
      <point x="567" y="975" type="curve"/>
      <point x="559" y="975" type="line"/>
      <point x="571" y="1133" type="line"/>
      <point x="262" y="1133" type="line"/>
    </contour>
  </outline>
</glyph>
<glyph name="o" format="2">
  <advance width="1243"/>
  <unicode hex="006F"/>
  <anchor x="518" y="0" name="bottom"/>
  <anchor x="743" y="567" name="center"/>
  <anchor x="733" y="1133" name="top"/>
  <anchor x="1323" y="1133" name="topright"/>
  <outline>
    <contour>
      <point x="520" y="-20" type="curve" smooth="yes"/>
      <point x="940" y="-20"/>
      <point x="1159" y="330"/>
      <point x="1159" y="717" type="curve" smooth="yes"/>
      <point x="1159" y="995"/>
      <point x="1001" y="1153"/>
      <point x="723" y="1153" type="curve" smooth="yes"/>
      <point x="303" y="1153"/>
      <point x="84" y="803"/>
      <point x="84" y="416" type="curve" smooth="yes"/>
      <point x="84" y="137"/>
      <point x="242" y="-20"/>
    </contour>
    <contour>
      <point x="563" y="270" type="curve" smooth="yes"/>
      <point x="510" y="270"/>
      <point x="479" y="315"/>
      <point x="479" y="403" type="curve" smooth="yes"/>
      <point x="479" y="627"/>
      <point x="563" y="862"/>
      <point x="678" y="862" type="curve" smooth="yes"/>
      <point x="731" y="862"/>
      <point x="764" y="817"/>
      <point x="764" y="729" type="curve" smooth="yes"/>
      <point x="764" y="506"/>
      <point x="678" y="270"/>
    </contour>
  </outline>
</glyph>
<glyph name="q" format="2">
  <advance width="1243"/>
  <unicode hex="0071"/>
  <anchor x="397" y="-492" name="bottom"/>
  <anchor x="743" y="1133" name="top"/>
  <anchor x="1323" y="1133" name="topright"/>
  <outline>
    <contour>
      <point x="485" y="-492" type="line"/>
      <point x="877" y="-492" type="line"/>
      <point x="1221" y="1133" type="line"/>
      <point x="911" y="1133" type="line"/>
      <point x="858" y="993" type="line"/>
      <point x="850" y="993" type="line"/>
      <point x="776" y="1106"/>
      <point x="715" y="1153"/>
      <point x="586" y="1153" type="curve" smooth="yes"/>
      <point x="242" y="1153"/>
      <point x="84" y="688"/>
      <point x="84" y="408" type="curve" smooth="yes"/>
      <point x="84" y="98"/>
      <point x="238" y="-20"/>
      <point x="387" y="-20" type="curve" smooth="yes"/>
      <point x="516" y="-20"/>
      <point x="582" y="39"/>
      <point x="635" y="111" type="curve"/>
      <point x="643" y="111" type="line"/>
      <point x="621" y="51"/>
      <point x="582" y="-74"/>
      <point x="553" y="-199" type="curve" smooth="yes"/>
    </contour>
    <contour>
      <point x="565" y="291" type="curve" smooth="yes"/>
      <point x="508" y="291"/>
      <point x="479" y="342"/>
      <point x="479" y="434" type="curve" smooth="yes"/>
      <point x="479" y="629"/>
      <point x="573" y="842"/>
      <point x="680" y="842" type="curve" smooth="yes"/>
      <point x="735" y="842"/>
      <point x="760" y="784"/>
      <point x="760" y="698" type="curve" smooth="yes"/>
      <point x="760" y="532"/>
      <point x="684" y="291"/>
    </contour>
  </outline>
</glyph>
<glyph name="s" format="2">
  <advance width="1028"/>
  <unicode hex="0073"/>
  <anchor x="393" y="0" name="bottom"/>
  <anchor x="594" y="1133" name="top"/>
  <anchor x="1108" y="1133" name="topright"/>
  <outline>
    <contour>
      <point x="387" y="-20" type="curve" smooth="yes"/>
      <point x="694" y="-20"/>
      <point x="891" y="113"/>
      <point x="891" y="393" type="curve" smooth="yes"/>
      <point x="891" y="532"/>
      <point x="819" y="637"/>
      <point x="666" y="713" type="curve" smooth="yes"/>
      <point x="571" y="760"/>
      <point x="532" y="782"/>
      <point x="532" y="821" type="curve" smooth="yes"/>
      <point x="532" y="866"/>
      <point x="561" y="889"/>
      <point x="608" y="889" type="curve" smooth="yes"/>
      <point x="686" y="889"/>
      <point x="791" y="844"/>
      <point x="866" y="795" type="curve"/>
      <point x="987" y="1047" type="line"/>
      <point x="872" y="1118"/>
      <point x="752" y="1153"/>
      <point x="604" y="1153" type="curve" smooth="yes"/>
      <point x="287" y="1153"/>
      <point x="139" y="1008"/>
      <point x="139" y="795" type="curve" smooth="yes"/>
      <point x="139" y="651"/>
      <point x="201" y="557"/>
      <point x="342" y="479" type="curve" smooth="yes"/>
      <point x="479" y="403"/>
      <point x="498" y="379"/>
      <point x="498" y="334" type="curve" smooth="yes"/>
      <point x="498" y="272"/>
      <point x="410" y="264"/>
      <point x="362" y="264" type="curve" smooth="yes"/>
      <point x="254" y="264"/>
      <point x="154" y="287"/>
      <point x="31" y="354" type="curve"/>
      <point x="31" y="43" type="line"/>
      <point x="119" y="2"/>
      <point x="236" y="-20"/>
    </contour>
  </outline>
</glyph>
<glyph name="t" format="2">
  <advance width="936"/>
  <unicode hex="0074"/>
  <anchor x="406" y="0" name="bottom"/>
  <anchor x="446" y="567" name="center"/>
  <anchor x="639" y="1360" name="top"/>
  <anchor x="1063" y="1360" name="topright"/>
  <outline>
    <contour>
      <point x="410" y="-20" type="curve" smooth="yes"/>
      <point x="557" y="-20"/>
      <point x="666" y="6"/>
      <point x="750" y="47" type="curve"/>
      <point x="750" y="338" type="line"/>
      <point x="684" y="311"/>
      <point x="618" y="291"/>
      <point x="567" y="291" type="curve" smooth="yes"/>
      <point x="530" y="291"/>
      <point x="504" y="309"/>
      <point x="504" y="354" type="curve" smooth="yes"/>
      <point x="504" y="377"/>
      <point x="512" y="420"/>
      <point x="520" y="459" type="curve" smooth="yes"/>
      <point x="604" y="842" type="line"/>
      <point x="893" y="842" type="line"/>
      <point x="956" y="1133" type="line"/>
      <point x="668" y="1133" type="line"/>
      <point x="717" y="1360" type="line"/>
      <point x="459" y="1360" type="line"/>
      <point x="322" y="1120" type="line"/>
      <point x="104" y="1032" type="line"/>
      <point x="63" y="842" type="line"/>
      <point x="217" y="842" type="line"/>
      <point x="133" y="440" type="line" smooth="yes"/>
      <point x="121" y="385"/>
      <point x="109" y="307"/>
      <point x="109" y="252" type="curve" smooth="yes"/>
      <point x="109" y="59"/>
      <point x="213" y="-20"/>
    </contour>
  </outline>
</glyph>
<glyph name="w" format="2">
  <advance width="1686"/>
  <unicode hex="0077"/>
  <anchor x="713" y="0" name="bottom"/>
  <anchor x="932" y="1133" name="top"/>
  <anchor x="1765" y="1133" name="topright"/>
  <outline>
    <contour>
      <point x="168" y="0" type="line"/>
      <point x="575" y="0" type="line"/>
      <point x="762" y="485" type="line" smooth="yes"/>
      <point x="793" y="567"/>
      <point x="842" y="707"/>
      <point x="870" y="819" type="curve"/>
      <point x="879" y="819" type="line"/>
      <point x="866" y="711"/>
      <point x="858" y="553"/>
      <point x="854" y="449" type="curve" smooth="yes"/>
      <point x="840" y="0" type="line"/>
      <point x="1262" y="0" type="line"/>
      <point x="1800" y="1133" type="line"/>
      <point x="1415" y="1133" type="line"/>
      <point x="1188" y="582" type="line" smooth="yes"/>
      <point x="1157" y="506"/>
      <point x="1137" y="444"/>
      <point x="1112" y="362" type="curve"/>
      <point x="1104" y="362" type="line"/>
      <point x="1114" y="453"/>
      <point x="1116" y="535"/>
      <point x="1118" y="575" type="curve" smooth="yes"/>
      <point x="1147" y="1133" type="line"/>
      <point x="739" y="1133" type="line"/>
      <point x="522" y="555" type="line" smooth="yes"/>
      <point x="502" y="498"/>
      <point x="479" y="428"/>
      <point x="463" y="362" type="curve"/>
      <point x="455" y="362" type="line"/>
      <point x="461" y="426"/>
      <point x="467" y="506"/>
      <point x="467" y="580" type="curve" smooth="yes"/>
      <point x="467" y="1133" type="line"/>
      <point x="102" y="1133" type="line"/>
    </contour>
  </outline>
</glyph>
<glyph name="y" format="2">
  <advance width="1114"/>
  <unicode hex="0079"/>
  <anchor x="332" y="-492" name="bottom"/>
  <anchor x="643" y="1133" name="top"/>
  <anchor x="1194" y="1133" name="topright"/>
  <outline>
    <contour>
      <point x="25" y="-492" type="curve" smooth="yes"/>
      <point x="283" y="-492"/>
      <point x="436" y="-379"/>
      <point x="559" y="-143" type="curve" smooth="yes"/>
      <point x="1229" y="1133" type="line"/>
      <point x="813" y="1133" type="line"/>
      <point x="590" y="616" type="line" smooth="yes"/>
      <point x="569" y="567"/>
      <point x="539" y="483"/>
      <point x="520" y="422" type="curve"/>
      <point x="512" y="422" type="line"/>
      <point x="514" y="481"/>
      <point x="516" y="543"/>
      <point x="510" y="612" type="curve" smooth="yes"/>
      <point x="471" y="1133" type="line"/>
      <point x="82" y="1133" type="line"/>
      <point x="244" y="12" type="line"/>
      <point x="221" y="-29" type="line" smooth="yes"/>
      <point x="164" y="-131"/>
      <point x="98" y="-180"/>
      <point x="-20" y="-180" type="curve" smooth="yes"/>
      <point x="-66" y="-180"/>
      <point x="-104" y="-174"/>
      <point x="-129" y="-168" type="curve"/>
      <point x="-129" y="-475" type="line"/>
      <point x="-100" y="-483"/>
      <point x="-53" y="-492"/>
    </contour>
  </outline>
</glyph>
<glyph name="braceright" format="2">
  <advance width="735"/>
  <unicode hex="007D"/>
  <outline>
    <contour>
      <point x="-123" y="-324" type="line"/>
      <point x="-49" y="-324" type="line" smooth="yes"/>
      <point x="223" y="-324"/>
      <point x="328" y="-201"/>
      <point x="371" y="0" type="curve" smooth="yes"/>
      <point x="426" y="246" type="line" smooth="yes"/>
      <point x="453" y="369"/>
      <point x="526" y="420"/>
      <point x="690" y="420" type="curve"/>
      <point x="748" y="707" type="line"/>
      <point x="610" y="707"/>
      <point x="555" y="754"/>
      <point x="555" y="842" type="curve" smooth="yes"/>
      <point x="555" y="854"/>
      <point x="557" y="868"/>
      <point x="561" y="885" type="curve" smooth="yes"/>
      <point x="598" y="1059" type="line" smooth="yes"/>
      <point x="608" y="1104"/>
      <point x="612" y="1145"/>
      <point x="612" y="1188" type="curve" smooth="yes"/>
      <point x="612" y="1337"/>
      <point x="522" y="1462"/>
      <point x="262" y="1462" type="curve" smooth="yes"/>
      <point x="201" y="1462" type="line"/>
      <point x="147" y="1182" type="line"/>
      <point x="242" y="1182"/>
      <point x="283" y="1151"/>
      <point x="283" y="1094" type="curve" smooth="yes"/>
      <point x="283" y="1079"/>
      <point x="281" y="1065"/>
      <point x="276" y="1044" type="curve" smooth="yes"/>
      <point x="242" y="881" type="line" smooth="yes"/>
      <point x="238" y="858"/>
      <point x="231" y="831"/>
      <point x="231" y="807" type="curve" smooth="yes"/>
      <point x="231" y="690"/>
      <point x="283" y="612"/>
      <point x="401" y="573" type="curve"/>
      <point x="401" y="565" type="line"/>
      <point x="262" y="551"/>
      <point x="156" y="498"/>
      <point x="123" y="344" type="curve" smooth="yes"/>
      <point x="70" y="86" type="line" smooth="yes"/>
      <point x="49" y="-14"/>
      <point x="23" y="-37"/>
      <point x="-123" y="-43" type="curve"/>
    </contour>
  </outline>
</glyph>
<glyph name="exclamdown" format="2">
  <advance width="623"/>
  <unicode hex="00A1"/>
  <outline>
    <contour>
      <point x="-109" y="-338" type="line"/>
      <point x="317" y="-338" type="line"/>
      <point x="473" y="608" type="line"/>
      <point x="145" y="608" type="line"/>
    </contour>
    <contour>
      <point x="342" y="768" type="curve" smooth="yes"/>
      <point x="506" y="768"/>
      <point x="586" y="870"/>
      <point x="586" y="1001" type="curve" smooth="yes"/>
      <point x="586" y="1079"/>
      <point x="541" y="1153"/>
      <point x="399" y="1153" type="curve" smooth="yes"/>
      <point x="260" y="1153"/>
      <point x="162" y="1077"/>
      <point x="162" y="924" type="curve" smooth="yes"/>
      <point x="162" y="825"/>
      <point x="227" y="768"/>
    </contour>
  </outline>
</glyph>
<glyph name="sterling" format="2">
  <advance width="1188"/>
  <unicode hex="00A3"/>
  <outline>
    <contour>
      <point x="-18" y="0" type="line"/>
      <point x="1001" y="0" type="line"/>
      <point x="1073" y="330" type="line"/>
      <point x="469" y="330" type="line"/>
      <point x="549" y="365"/>
      <point x="645" y="434"/>
      <point x="672" y="557" type="curve" smooth="yes"/>
      <point x="692" y="651" type="line"/>
      <point x="944" y="651" type="line"/>
      <point x="1001" y="930" type="line"/>
      <point x="750" y="930" type="line"/>
      <point x="774" y="1044" type="line" smooth="yes"/>
      <point x="793" y="1135"/>
      <point x="819" y="1161"/>
      <point x="866" y="1161" type="curve" smooth="yes"/>
      <point x="934" y="1161"/>
      <point x="991" y="1139"/>
      <point x="1079" y="1098" type="curve"/>
      <point x="1223" y="1397" type="line"/>
      <point x="1114" y="1444"/>
      <point x="1004" y="1483"/>
      <point x="850" y="1483" type="curve" smooth="yes"/>
      <point x="616" y="1483"/>
      <point x="436" y="1401"/>
      <point x="377" y="1059" type="curve" smooth="yes"/>
      <point x="354" y="930" type="line"/>
      <point x="166" y="930" type="line"/>
      <point x="109" y="651" type="line"/>
      <point x="297" y="651" type="line"/>
      <point x="276" y="555" type="line" smooth="yes"/>
      <point x="248" y="414"/>
      <point x="201" y="356"/>
      <point x="45" y="313" type="curve"/>
    </contour>
  </outline>
</glyph>
<glyph name="currency" format="2">
  <advance width="1188"/>
  <unicode hex="00A4"/>
  <outline>
    <contour>
      <point x="909" y="231" type="line"/>
      <point x="1092" y="414" type="line"/>
      <point x="969" y="537" type="line"/>
      <point x="997" y="596"/>
      <point x="1012" y="653"/>
      <point x="1012" y="723" type="curve" smooth="yes"/>
      <point x="1012" y="788"/>
      <point x="995" y="858"/>
      <point x="969" y="909" type="curve"/>
      <point x="1098" y="1038" type="line"/>
      <point x="909" y="1217" type="line"/>
      <point x="784" y="1087" type="line"/>
      <point x="723" y="1120"/>
      <point x="666" y="1135"/>
      <point x="600" y="1135" type="curve" smooth="yes"/>
      <point x="543" y="1135"/>
      <point x="471" y="1116"/>
      <point x="418" y="1092" type="curve"/>
      <point x="291" y="1217" type="line"/>
      <point x="106" y="1032" type="line"/>
      <point x="236" y="907" type="line"/>
      <point x="209" y="854"/>
      <point x="190" y="791"/>
      <point x="190" y="723" type="curve" smooth="yes"/>
      <point x="190" y="657"/>
      <point x="205" y="598"/>
      <point x="236" y="539" type="curve"/>
      <point x="109" y="416" type="line"/>
      <point x="291" y="233" type="line"/>
      <point x="414" y="352" type="line"/>
      <point x="469" y="324"/>
      <point x="530" y="313"/>
      <point x="600" y="313" type="curve" smooth="yes"/>
      <point x="666" y="313"/>
      <point x="731" y="332"/>
      <point x="784" y="354" type="curve"/>
    </contour>
    <contour>
      <point x="600" y="571" type="curve" smooth="yes"/>
      <point x="516" y="571"/>
      <point x="451" y="639"/>
      <point x="451" y="723" type="curve" smooth="yes"/>
      <point x="451" y="809"/>
      <point x="516" y="874"/>
      <point x="600" y="874" type="curve" smooth="yes"/>
      <point x="686" y="874"/>
      <point x="756" y="809"/>
      <point x="756" y="723" type="curve" smooth="yes"/>
      <point x="756" y="639"/>
      <point x="686" y="571"/>
    </contour>
  </outline>
</glyph>
<glyph name="brokenbar" format="2">
  <advance width="1159"/>
  <unicode hex="00A6"/>
  <outline>
    <contour>
      <point x="444" y="705" type="line"/>
      <point x="715" y="705" type="line"/>
      <point x="715" y="1546" type="line"/>
      <point x="444" y="1546" type="line"/>
    </contour>
    <contour>
      <point x="444" y="-444" type="line"/>
      <point x="715" y="-444" type="line"/>
      <point x="715" y="395" type="line"/>
      <point x="444" y="395" type="line"/>
    </contour>
  </outline>
</glyph>
<glyph name="section" format="2">
  <advance width="1036"/>
  <unicode hex="00A7"/>
  <outline>
    <contour>
      <point x="377" y="-25" type="curve" smooth="yes"/>
      <point x="694" y="-25"/>
      <point x="862" y="106"/>
      <point x="862" y="326" type="curve" smooth="yes"/>
      <point x="862" y="401"/>
      <point x="836" y="475"/>
      <point x="793" y="526" type="curve"/>
      <point x="885" y="578"/>
      <point x="961" y="653"/>
      <point x="961" y="821" type="curve" smooth="yes"/>
      <point x="961" y="942"/>
      <point x="901" y="1047"/>
      <point x="717" y="1133" type="curve" smooth="yes"/>
      <point x="584" y="1194"/>
      <point x="567" y="1231"/>
      <point x="567" y="1278" type="curve" smooth="yes"/>
      <point x="567" y="1317"/>
      <point x="598" y="1352"/>
      <point x="678" y="1352" type="curve" smooth="yes"/>
      <point x="801" y="1352"/>
      <point x="897" y="1300"/>
      <point x="971" y="1251" type="curve"/>
      <point x="1071" y="1475" type="line"/>
      <point x="961" y="1538"/>
      <point x="848" y="1577"/>
      <point x="711" y="1577" type="curve" smooth="yes"/>
      <point x="436" y="1577"/>
      <point x="256" y="1479"/>
      <point x="256" y="1249" type="curve" smooth="yes"/>
      <point x="256" y="1182"/>
      <point x="285" y="1108"/>
      <point x="336" y="1057" type="curve"/>
      <point x="207" y="979"/>
      <point x="158" y="872"/>
      <point x="158" y="776" type="curve" smooth="yes"/>
      <point x="158" y="629"/>
      <point x="258" y="530"/>
      <point x="410" y="446" type="curve" smooth="yes"/>
      <point x="508" y="393"/>
      <point x="545" y="354"/>
      <point x="545" y="303" type="curve" smooth="yes"/>
      <point x="545" y="258"/>
      <point x="510" y="199"/>
      <point x="395" y="199" type="curve" smooth="yes"/>
      <point x="266" y="199"/>
      <point x="150" y="250"/>
      <point x="37" y="319" type="curve"/>
      <point x="37" y="70" type="line"/>
      <point x="111" y="12"/>
      <point x="231" y="-25"/>
    </contour>
    <contour>
      <point x="604" y="643" type="curve"/>
      <point x="518" y="692"/>
      <point x="442" y="745"/>
      <point x="442" y="817" type="curve" smooth="yes"/>
      <point x="442" y="862"/>
      <point x="475" y="915"/>
      <point x="524" y="940" type="curve"/>
      <point x="631" y="895"/>
      <point x="678" y="842"/>
      <point x="678" y="770" type="curve" smooth="yes"/>
      <point x="678" y="711"/>
      <point x="643" y="670"/>
    </contour>
  </outline>
</glyph>
<glyph name="dieresis" format="2">
  <advance width="1135"/>
  <unicode hex="00A8"/>
  <outline>
    <contour>
      <point x="993" y="1257" type="curve" smooth="yes"/>
      <point x="1143" y="1257"/>
      <point x="1192" y="1333"/>
      <point x="1192" y="1446" type="curve" smooth="yes"/>
      <point x="1192" y="1550"/>
      <point x="1106" y="1571"/>
      <point x="1024" y="1571" type="curve" smooth="yes"/>
      <point x="897" y="1571"/>
      <point x="823" y="1516"/>
      <point x="823" y="1384" type="curve" smooth="yes"/>
      <point x="823" y="1284"/>
      <point x="895" y="1257"/>
    </contour>
    <contour>
      <point x="506" y="1257" type="curve" smooth="yes"/>
      <point x="655" y="1257"/>
      <point x="707" y="1333"/>
      <point x="707" y="1446" type="curve" smooth="yes"/>
      <point x="707" y="1550"/>
      <point x="618" y="1571"/>
      <point x="537" y="1571" type="curve" smooth="yes"/>
      <point x="410" y="1571"/>
      <point x="336" y="1516"/>
      <point x="336" y="1384" type="curve" smooth="yes"/>
      <point x="336" y="1284"/>
      <point x="408" y="1257"/>
    </contour>
  </outline>
</glyph>
<glyph name="ordfeminine" format="2">
  <advance width="827"/>
  <unicode hex="00AA"/>
  <anchor x="430" y="733" name="bottom"/>
  <anchor x="582" y="1473" name="top"/>
  <outline>
    <contour>
      <point x="352" y="729" type="curve" smooth="yes"/>
      <point x="453" y="729"/>
      <point x="524" y="772"/>
      <point x="575" y="827" type="curve"/>
      <point x="584" y="827" type="line"/>
      <point x="575" y="741" type="line"/>
      <point x="770" y="741" type="line"/>
      <point x="940" y="1462" type="line"/>
      <point x="741" y="1462" type="line"/>
      <point x="705" y="1376" type="line"/>
      <point x="696" y="1376" type="line"/>
      <point x="643" y="1436"/>
      <point x="590" y="1475"/>
      <point x="483" y="1475" type="curve" smooth="yes"/>
      <point x="260" y="1475"/>
      <point x="139" y="1214"/>
      <point x="139" y="1001" type="curve" smooth="yes"/>
      <point x="139" y="791"/>
      <point x="264" y="729"/>
    </contour>
    <contour>
      <point x="481" y="911" type="curve" smooth="yes"/>
      <point x="440" y="911"/>
      <point x="412" y="948"/>
      <point x="412" y="1012" type="curve" smooth="yes"/>
      <point x="412" y="1128"/>
      <point x="467" y="1292"/>
      <point x="557" y="1292" type="curve" smooth="yes"/>
      <point x="608" y="1292"/>
      <point x="629" y="1237"/>
      <point x="629" y="1178" type="curve" smooth="yes"/>
      <point x="629" y="1092"/>
      <point x="594" y="911"/>
    </contour>
  </outline>
</glyph>
<glyph name="plusminus" format="2">
  <advance width="1200"/>
  <unicode hex="00B1"/>
  <outline>
    <contour>
      <point x="92" y="0" type="line"/>
      <point x="1106" y="0" type="line"/>
      <point x="1106" y="268" type="line"/>
      <point x="92" y="268" type="line"/>
    </contour>
    <component base="plus" yOffset="88"/>
  </outline>
</glyph>
<glyph name="onesuperior" format="2">
  <advance width="848"/>
  <unicode hex="00B9"/>
  <outline>
    <contour>
      <point x="365" y="850" type="line"/>
      <point x="682" y="850" type="line"/>
      <point x="868" y="1729" type="line"/>
      <point x="616" y="1729" type="line"/>
      <point x="190" y="1468" type="line"/>
      <point x="309" y="1284" type="line"/>
      <point x="428" y="1362" type="line" smooth="yes"/>
      <point x="436" y="1366"/>
      <point x="475" y="1399"/>
      <point x="502" y="1421" type="curve"/>
      <point x="489" y="1384"/>
      <point x="467" y="1311"/>
      <point x="446" y="1214" type="curve" smooth="yes"/>
    </contour>
  </outline>
</glyph>
<glyph name="ordmasculine" format="2">
  <advance width="817"/>
  <unicode hex="00BA"/>
  <anchor x="446" y="727" name="bottom"/>
  <anchor x="598" y="1491" name="top"/>
  <outline>
    <contour>
      <point x="465" y="727" type="curve" smooth="yes"/>
      <point x="762" y="727"/>
      <point x="891" y="942"/>
      <point x="891" y="1169" type="curve" smooth="yes"/>
      <point x="891" y="1372"/>
      <point x="768" y="1479"/>
      <point x="584" y="1479" type="curve" smooth="yes"/>
      <point x="293" y="1479"/>
      <point x="156" y="1262"/>
      <point x="156" y="1024" type="curve" smooth="yes"/>
      <point x="156" y="836"/>
      <point x="272" y="727"/>
    </contour>
    <contour>
      <point x="489" y="932" type="curve" smooth="yes"/>
      <point x="451" y="932"/>
      <point x="428" y="958"/>
      <point x="428" y="1028" type="curve" smooth="yes"/>
      <point x="428" y="1116"/>
      <point x="469" y="1274"/>
      <point x="559" y="1274" type="curve" smooth="yes"/>
      <point x="602" y="1274"/>
      <point x="621" y="1235"/>
      <point x="621" y="1176" type="curve" smooth="yes"/>
      <point x="621" y="1069"/>
      <point x="578" y="932"/>
    </contour>
  </outline>
</glyph>
<glyph name="guillemotright" format="2">
  <advance width="1276"/>
  <unicode hex="00BB"/>
  <outline>
    <contour>
      <point x="807" y="43" type="line"/>
      <point x="1214" y="561" type="line"/>
      <point x="1214" y="571" type="line"/>
      <point x="1032" y="1049" type="line"/>
      <point x="698" y="911" type="line"/>
      <point x="809" y="582" type="line"/>
      <point x="543" y="248" type="line"/>
    </contour>
    <contour>
      <point x="244" y="35" type="line"/>
      <point x="668" y="532" type="line"/>
      <point x="668" y="543" type="line"/>
      <point x="473" y="1049" type="line"/>
      <point x="141" y="911" type="line"/>
      <point x="262" y="553" type="line"/>
      <point x="-14" y="248" type="line"/>
    </contour>
  </outline>
</glyph>
<glyph name="AE" format="2">
  <advance width="1937"/>
  <unicode hex="00C6"/>
  <anchor x="848" y="0" name="bottom"/>
  <anchor x="1159" y="1462" name="top"/>
  <outline>
    <contour>
      <point x="-125" y="0" type="line"/>
      <point x="289" y="0" type="line"/>
      <point x="459" y="274" type="line"/>
      <point x="877" y="274" type="line"/>
      <point x="819" y="0" type="line"/>
      <point x="1688" y="0" type="line"/>
      <point x="1755" y="322" type="line"/>
      <point x="1278" y="322" type="line"/>
      <point x="1335" y="598" type="line"/>
      <point x="1780" y="598" type="line"/>
      <point x="1851" y="915" type="line"/>
      <point x="1407" y="915" type="line"/>
      <point x="1454" y="1145" type="line"/>
      <point x="1931" y="1145" type="line"/>
      <point x="1997" y="1462" type="line"/>
      <point x="784" y="1462" type="line"/>
    </contour>
    <contour>
      <point x="662" y="602" type="line"/>
      <point x="993" y="1145" type="line"/>
      <point x="1061" y="1145" type="line"/>
      <point x="948" y="602" type="line"/>
    </contour>
  </outline>
</glyph>
<glyph name="multiply" format="2">
  <advance width="1200"/>
  <unicode hex="00D7"/>
  <outline>
    <contour>
      <point x="868" y="1180" type="line"/>
      <point x="594" y="913" type="line"/>
      <point x="324" y="1180" type="line"/>
      <point x="141" y="991" type="line"/>
      <point x="408" y="723" type="line"/>
      <point x="143" y="455" type="line"/>
      <point x="324" y="268" type="line"/>
      <point x="594" y="537" type="line"/>
      <point x="868" y="266" type="line"/>
      <point x="1053" y="451" type="line"/>
      <point x="782" y="723" type="line"/>
      <point x="1057" y="997" type="line"/>
    </contour>
  </outline>
</glyph>
<glyph name="germandbls" format="2">
  <advance width="1460"/>
  <unicode hex="00DF"/>
  <anchor x="506" y="-492" name="bottom"/>
  <anchor x="944" y="1567" name="top"/>
  <outline>
    <contour>
      <point x="-53" y="-492" type="curve" smooth="yes"/>
      <point x="223" y="-492"/>
      <point x="346" y="-334"/>
      <point x="393" y="-117" type="curve" smooth="yes"/>
      <point x="645" y="1067" type="line" smooth="yes"/>
      <point x="672" y="1196"/>
      <point x="748" y="1264"/>
      <point x="852" y="1264" type="curve" smooth="yes"/>
      <point x="979" y="1264"/>
      <point x="1010" y="1200"/>
      <point x="1010" y="1145" type="curve" smooth="yes"/>
      <point x="1010" y="1087"/>
      <point x="975" y="1042"/>
      <point x="881" y="989" type="curve" smooth="yes"/>
      <point x="741" y="911"/>
      <point x="674" y="854"/>
      <point x="674" y="713" type="curve" smooth="yes"/>
      <point x="674" y="633"/>
      <point x="702" y="559"/>
      <point x="840" y="471" type="curve" smooth="yes"/>
      <point x="958" y="395"/>
      <point x="973" y="377"/>
      <point x="973" y="334" type="curve" smooth="yes"/>
      <point x="973" y="297"/>
      <point x="936" y="262"/>
      <point x="858" y="262" type="curve" smooth="yes"/>
      <point x="776" y="262"/>
      <point x="659" y="289"/>
      <point x="588" y="324" type="curve"/>
      <point x="588" y="25" type="line"/>
      <point x="655" y="-2"/>
      <point x="735" y="-20"/>
      <point x="862" y="-20" type="curve" smooth="yes"/>
      <point x="1229" y="-20"/>
      <point x="1362" y="178"/>
      <point x="1362" y="373" type="curve" smooth="yes"/>
      <point x="1362" y="483"/>
      <point x="1319" y="559"/>
      <point x="1241" y="614" type="curve" smooth="yes"/>
      <point x="1153" y="678"/>
      <point x="1069" y="692"/>
      <point x="1069" y="762" type="curve" smooth="yes"/>
      <point x="1069" y="778"/>
      <point x="1075" y="811"/>
      <point x="1186" y="864" type="curve" smooth="yes"/>
      <point x="1327" y="932"/>
      <point x="1399" y="1028"/>
      <point x="1399" y="1194" type="curve" smooth="yes"/>
      <point x="1399" y="1409"/>
      <point x="1231" y="1567"/>
      <point x="883" y="1567" type="curve" smooth="yes"/>
      <point x="489" y="1567"/>
      <point x="328" y="1397"/>
      <point x="264" y="1096" type="curve" smooth="yes"/>
      <point x="20" y="-55" type="line" smooth="yes"/>
      <point x="2" y="-141"/>
      <point x="-45" y="-180"/>
      <point x="-143" y="-180" type="curve" smooth="yes"/>
      <point x="-180" y="-180"/>
      <point x="-223" y="-172"/>
      <point x="-260" y="-162" type="curve"/>
      <point x="-260" y="-465" type="line"/>
      <point x="-213" y="-479"/>
      <point x="-125" y="-492"/>
    </contour>
  </outline>
</glyph>
<glyph name="divide" format="2">
  <advance width="1200"/>
  <unicode hex="00F7"/>
  <outline>
    <contour>
      <point x="92" y="588" type="line"/>
      <point x="1106" y="588" type="line"/>
      <point x="1106" y="856" type="line"/>
      <point x="92" y="856" type="line"/>
    </contour>
    <contour>
      <point x="598" y="162" type="curve" smooth="yes"/>
      <point x="680" y="162"/>
      <point x="756" y="213"/>
      <point x="756" y="332" type="curve" smooth="yes"/>
      <point x="756" y="459"/>
      <point x="680" y="502"/>
      <point x="598" y="502" type="curve" smooth="yes"/>
      <point x="514" y="502"/>
      <point x="442" y="459"/>
      <point x="442" y="332" type="curve" smooth="yes"/>
      <point x="442" y="213"/>
      <point x="514" y="162"/>
    </contour>
    <contour>
      <point x="598" y="942" type="curve" smooth="yes"/>
      <point x="680" y="942"/>
      <point x="756" y="993"/>
      <point x="756" y="1112" type="curve" smooth="yes"/>
      <point x="756" y="1239"/>
      <point x="680" y="1282"/>
      <point x="598" y="1282" type="curve" smooth="yes"/>
      <point x="514" y="1282"/>
      <point x="442" y="1239"/>
      <point x="442" y="1112" type="curve" smooth="yes"/>
      <point x="442" y="993"/>
      <point x="514" y="942"/>
    </contour>
  </outline>
</glyph>
<glyph name="eogonek" format="2">
  <advance width="1186"/>
  <unicode hex="0119"/>
  <anchor x="422" y="-524" name="bottom"/>
  <anchor x="721" y="1133" name="top"/>
  <outline>
    <contour>
      <point x="645" y="-524" type="curve" smooth="yes"/>
      <point x="731" y="-524"/>
      <point x="784" y="-512"/>
      <point x="844" y="-494" type="curve"/>
      <point x="844" y="-272" type="line"/>
      <point x="803" y="-287"/>
      <point x="770" y="-297"/>
      <point x="727" y="-297" type="curve" smooth="yes"/>
      <point x="692" y="-297"/>
      <point x="674" y="-272"/>
      <point x="674" y="-246" type="curve" smooth="yes"/>
      <point x="674" y="-156"/>
      <point x="772" y="-70"/>
      <point x="920" y="68" type="curve"/>
      <point x="612" y="0" type="line"/>
      <point x="485" y="-82"/>
      <point x="395" y="-172"/>
      <point x="395" y="-309" type="curve" smooth="yes"/>
      <point x="395" y="-428"/>
      <point x="483" y="-524"/>
    </contour>
    <component base="e"/>
  </outline>
</glyph>
<glyph name="kgreenlandic" format="2">
  <advance width="1264"/>
  <unicode hex="0138"/>
  <anchor x="512" y="0" name="bottom"/>
  <anchor x="754" y="1133" name="top"/>
  <outline>
    <contour>
      <point x="23" y="0" type="line"/>
      <point x="410" y="0" type="line"/>
      <point x="479" y="338" type="line"/>
      <point x="580" y="391" type="line"/>
      <point x="719" y="0" type="line"/>
      <point x="1157" y="0" type="line"/>
      <point x="883" y="621" type="line"/>
      <point x="1370" y="1133" type="line"/>
      <point x="924" y="1133" type="line"/>
      <point x="539" y="678" type="line"/>
      <point x="530" y="678" type="line"/>
      <point x="553" y="735"/>
      <point x="580" y="819"/>
      <point x="596" y="893" type="curve" smooth="yes"/>
      <point x="647" y="1133" type="line"/>
      <point x="260" y="1133" type="line"/>
    </contour>
  </outline>
</glyph>
<glyph name="OE" format="2">
  <advance width="1909"/>
  <unicode hex="0152"/>
  <anchor x="834" y="0" name="bottom"/>
  <anchor x="1145" y="1462" name="top"/>
  <outline>
    <contour>
      <point x="647" y="-20" type="curve" smooth="yes"/>
      <point x="715" y="-20"/>
      <point x="782" y="-12"/>
      <point x="844" y="0" type="curve"/>
      <point x="1659" y="0" type="line"/>
      <point x="1724" y="324" type="line"/>
      <point x="1247" y="324" type="line"/>
      <point x="1305" y="596" type="line"/>
      <point x="1749" y="596" type="line"/>
      <point x="1821" y="918" type="line"/>
      <point x="1376" y="918" type="line"/>
      <point x="1423" y="1143" type="line"/>
      <point x="1901" y="1143" type="line"/>
      <point x="1968" y="1462" type="line"/>
      <point x="1094" y="1462" type="line"/>
      <point x="1038" y="1475"/>
      <point x="969" y="1485"/>
      <point x="903" y="1485" type="curve" smooth="yes"/>
      <point x="322" y="1485"/>
      <point x="104" y="950"/>
      <point x="104" y="528" type="curve" smooth="yes"/>
      <point x="104" y="203"/>
      <point x="291" y="-20"/>
    </contour>
    <contour>
      <point x="682" y="309" type="curve" smooth="yes"/>
      <point x="567" y="309"/>
      <point x="500" y="377"/>
      <point x="500" y="526" type="curve" smooth="yes"/>
      <point x="500" y="864"/>
      <point x="670" y="1161"/>
      <point x="870" y="1161" type="curve" smooth="yes"/>
      <point x="930" y="1161"/>
      <point x="987" y="1147"/>
      <point x="1024" y="1112" type="curve"/>
      <point x="862" y="350" type="line"/>
      <point x="805" y="322"/>
      <point x="739" y="309"/>
    </contour>
  </outline>
</glyph>
<glyph name="oe" format="2">
  <advance width="1802"/>
  <unicode hex="0153"/>
  <anchor x="780" y="0" name="bottom"/>
  <anchor x="1022" y="1133" name="top"/>
  <outline>
    <contour>
      <point x="520" y="-20" type="curve" smooth="yes"/>
      <point x="664" y="-20"/>
      <point x="774" y="20"/>
      <point x="854" y="92" type="curve"/>
      <point x="915" y="18"/>
      <point x="1010" y="-20"/>
      <point x="1149" y="-20" type="curve" smooth="yes"/>
      <point x="1346" y="-20"/>
      <point x="1460" y="20"/>
      <point x="1581" y="82" type="curve"/>
      <point x="1581" y="356" type="line"/>
      <point x="1464" y="295"/>
      <point x="1368" y="258"/>
      <point x="1253" y="258" type="curve" smooth="yes"/>
      <point x="1145" y="258"/>
      <point x="1090" y="305"/>
      <point x="1090" y="403" type="curve" smooth="yes"/>
      <point x="1090" y="412"/>
      <point x="1090" y="416"/>
      <point x="1090" y="422" type="curve"/>
      <point x="1149" y="422" type="line" smooth="yes"/>
      <point x="1571" y="422"/>
      <point x="1757" y="588"/>
      <point x="1757" y="838" type="curve" smooth="yes"/>
      <point x="1757" y="1028"/>
      <point x="1604" y="1153"/>
      <point x="1350" y="1153" type="curve" smooth="yes"/>
      <point x="1188" y="1153"/>
      <point x="1067" y="1106"/>
      <point x="977" y="1028" type="curve"/>
      <point x="920" y="1108"/>
      <point x="829" y="1153"/>
      <point x="700" y="1153" type="curve" smooth="yes"/>
      <point x="303" y="1153"/>
      <point x="84" y="803"/>
      <point x="84" y="416" type="curve" smooth="yes"/>
      <point x="84" y="137"/>
      <point x="242" y="-20"/>
    </contour>
    <contour>
      <point x="563" y="270" type="curve" smooth="yes"/>
      <point x="510" y="270"/>
      <point x="479" y="315"/>
      <point x="479" y="403" type="curve" smooth="yes"/>
      <point x="479" y="627"/>
      <point x="563" y="862"/>
      <point x="678" y="862" type="curve" smooth="yes"/>
      <point x="731" y="862"/>
      <point x="764" y="817"/>
      <point x="764" y="729" type="curve" smooth="yes"/>
      <point x="764" y="506"/>
      <point x="678" y="270"/>
    </contour>
    <contour>
      <point x="1128" y="664" type="line"/>
      <point x="1143" y="768"/>
      <point x="1217" y="891"/>
      <point x="1307" y="891" type="curve" smooth="yes"/>
      <point x="1364" y="891"/>
      <point x="1391" y="858"/>
      <point x="1391" y="815" type="curve" smooth="yes"/>
      <point x="1391" y="745"/>
      <point x="1331" y="664"/>
      <point x="1157" y="664" type="curve" smooth="yes"/>
    </contour>
  </outline>
</glyph>
<glyph name="uni0180" format="2">
  <advance width="1243"/>
  <unicode hex="0180"/>
  <anchor x="502" y="0" name="bottom"/>
  <anchor x="834" y="1556" name="top"/>
  <outline>
    <contour>
      <point x="657" y="-20" type="curve" smooth="yes"/>
      <point x="1001" y="-20"/>
      <point x="1153" y="430"/>
      <point x="1153" y="707" type="curve" smooth="yes"/>
      <point x="1153" y="1006"/>
      <point x="1006" y="1116"/>
      <point x="831" y="1116" type="curve" smooth="yes"/>
      <point x="705" y="1116"/>
      <point x="655" y="1053"/>
      <point x="602" y="987" type="curve"/>
      <point x="594" y="987" type="line" smooth="yes"/>
      <point x="608" y="1024"/>
      <point x="637" y="1110"/>
      <point x="662" y="1202" type="curve"/>
      <point x="969" y="1202" type="line"/>
      <point x="1018" y="1434" type="line"/>
      <point x="713" y="1434" type="line"/>
      <point x="739" y="1556" type="line"/>
      <point x="352" y="1556" type="line"/>
      <point x="326" y="1434" type="line"/>
      <point x="186" y="1434" type="line"/>
      <point x="137" y="1202" type="line"/>
      <point x="276" y="1202" type="line"/>
      <point x="23" y="0" type="line"/>
      <point x="330" y="0" type="line"/>
      <point x="379" y="125" type="line"/>
      <point x="387" y="125" type="line"/>
      <point x="467" y="20"/>
      <point x="543" y="-20"/>
    </contour>
    <contour>
      <point x="567" y="291" type="curve" smooth="yes"/>
      <point x="514" y="291"/>
      <point x="485" y="348"/>
      <point x="485" y="420" type="curve" smooth="yes"/>
      <point x="485" y="586"/>
      <point x="547" y="805"/>
      <point x="672" y="805" type="curve" smooth="yes"/>
      <point x="729" y="805"/>
      <point x="758" y="754"/>
      <point x="758" y="684" type="curve" smooth="yes"/>
      <point x="758" y="489"/>
      <point x="674" y="291"/>
    </contour>
  </outline>
</glyph>
<glyph name="uni0181" format="2">
  <advance width="1589"/>
  <unicode hex="0181"/>
  <anchor x="674" y="0" name="bottom"/>
  <anchor x="985" y="1462" name="top"/>
  <outline>
    <contour>
      <point x="324" y="0" type="line"/>
      <point x="870" y="0" type="line" smooth="yes"/>
      <point x="1196" y="0"/>
      <point x="1456" y="137"/>
      <point x="1456" y="479" type="curve" smooth="yes"/>
      <point x="1456" y="618"/>
      <point x="1380" y="719"/>
      <point x="1264" y="758" type="curve"/>
      <point x="1264" y="766" type="line"/>
      <point x="1454" y="823"/>
      <point x="1561" y="944"/>
      <point x="1561" y="1143" type="curve" smooth="yes"/>
      <point x="1561" y="1329"/>
      <point x="1434" y="1462"/>
      <point x="1120" y="1462" type="curve" smooth="yes"/>
      <point x="590" y="1462" type="line"/>
      <point x="266" y="1462"/>
      <point x="123" y="1303"/>
      <point x="123" y="1073" type="curve" smooth="yes"/>
      <point x="123" y="1047"/>
      <point x="125" y="1016"/>
      <point x="131" y="995" type="curve"/>
      <point x="395" y="995" type="line"/>
      <point x="393" y="1006"/>
      <point x="389" y="1026"/>
      <point x="389" y="1047" type="curve" smooth="yes"/>
      <point x="389" y="1124"/>
      <point x="440" y="1184"/>
      <point x="530" y="1184" type="curve" smooth="yes"/>
      <point x="571" y="1184" type="line"/>
    </contour>
    <contour>
      <point x="780" y="305" type="line"/>
      <point x="846" y="612" type="line"/>
      <point x="913" y="612" type="line" smooth="yes"/>
      <point x="1024" y="612"/>
      <point x="1063" y="567"/>
      <point x="1063" y="475" type="curve" smooth="yes"/>
      <point x="1063" y="381"/>
      <point x="981" y="305"/>
      <point x="862" y="305" type="curve" smooth="yes"/>
    </contour>
    <contour>
      <point x="905" y="901" type="line"/>
      <point x="965" y="1163" type="line"/>
      <point x="1028" y="1163" type="line" smooth="yes"/>
      <point x="1114" y="1163"/>
      <point x="1155" y="1126"/>
      <point x="1155" y="1061" type="curve" smooth="yes"/>
      <point x="1155" y="967"/>
      <point x="1114" y="901"/>
      <point x="977" y="901" type="curve" smooth="yes"/>
    </contour>
  </outline>
</glyph>
<glyph name="uni0183" format="2">
  <advance width="1237"/>
  <unicode hex="0183"/>
  <anchor x="498" y="0" name="bottom"/>
  <anchor x="829" y="1556" name="top"/>
  <outline>
    <contour>
      <point x="653" y="-20" type="curve" smooth="yes"/>
      <point x="981" y="-20"/>
      <point x="1151" y="412"/>
      <point x="1151" y="715" type="curve" smooth="yes"/>
      <point x="1151" y="1006"/>
      <point x="999" y="1120"/>
      <point x="834" y="1120" type="curve" smooth="yes"/>
      <point x="725" y="1120"/>
      <point x="659" y="1061"/>
      <point x="606" y="997" type="curve"/>
      <point x="598" y="997" type="line"/>
      <point x="643" y="1118"/>
      <point x="662" y="1204"/>
      <point x="674" y="1251" type="curve" smooth="yes"/>
      <point x="682" y="1282" type="line"/>
      <point x="1188" y="1282" type="line"/>
      <point x="1249" y="1556" type="line"/>
      <point x="354" y="1556" type="line"/>
      <point x="25" y="0" type="line"/>
      <point x="330" y="0" type="line"/>
      <point x="379" y="129" type="line"/>
      <point x="387" y="129" type="line"/>
      <point x="446" y="47"/>
      <point x="518" y="-20"/>
    </contour>
    <contour>
      <point x="565" y="289" type="curve" smooth="yes"/>
      <point x="522" y="289"/>
      <point x="485" y="336"/>
      <point x="485" y="422" type="curve" smooth="yes"/>
      <point x="485" y="584"/>
      <point x="547" y="811"/>
      <point x="674" y="811" type="curve" smooth="yes"/>
      <point x="733" y="811"/>
      <point x="758" y="760"/>
      <point x="758" y="662" type="curve" smooth="yes"/>
      <point x="758" y="492"/>
      <point x="659" y="289"/>
    </contour>
  </outline>
</glyph>
<glyph name="uni0184" format="2">
  <advance width="1370"/>
  <unicode hex="0184"/>
  <anchor x="565" y="0" name="bottom"/>
  <anchor x="877" y="1462" name="top"/>
  <outline>
    <contour>
      <point x="639" y="-20" type="curve" smooth="yes"/>
      <point x="991" y="-20"/>
      <point x="1270" y="143"/>
      <point x="1270" y="516" type="curve" smooth="yes"/>
      <point x="1270" y="756"/>
      <point x="1128" y="934"/>
      <point x="733" y="934" type="curve" smooth="yes"/>
      <point x="614" y="934" type="line"/>
      <point x="725" y="1462" type="line"/>
      <point x="336" y="1462" type="line"/>
      <point x="147" y="606" type="line" smooth="yes"/>
      <point x="131" y="528"/>
      <point x="125" y="461"/>
      <point x="125" y="391" type="curve" smooth="yes"/>
      <point x="125" y="150"/>
      <point x="334" y="-20"/>
    </contour>
    <contour>
      <point x="672" y="289" type="curve" smooth="yes"/>
      <point x="569" y="289"/>
      <point x="516" y="346"/>
      <point x="516" y="412" type="curve" smooth="yes"/>
      <point x="516" y="434"/>
      <point x="518" y="471"/>
      <point x="524" y="498" type="curve" smooth="yes"/>
      <point x="549" y="625" type="line"/>
      <point x="678" y="625" type="line" smooth="yes"/>
      <point x="846" y="625"/>
      <point x="874" y="555"/>
      <point x="874" y="473" type="curve" smooth="yes"/>
      <point x="874" y="346"/>
      <point x="778" y="289"/>
    </contour>
  </outline>
</glyph>
<glyph name="uni0185" format="2">
  <advance width="1243"/>
  <unicode hex="0185"/>
  <anchor x="502" y="0" name="bottom"/>
  <anchor x="834" y="1556" name="top"/>
  <outline>
    <contour>
      <point x="561" y="-20" type="curve" smooth="yes"/>
      <point x="1008" y="-20"/>
      <point x="1151" y="465"/>
      <point x="1151" y="721" type="curve" smooth="yes"/>
      <point x="1151" y="1042"/>
      <point x="1012" y="1153"/>
      <point x="838" y="1153" type="curve"/>
      <point x="711" y="1153"/>
      <point x="662" y="1090"/>
      <point x="608" y="1024" type="curve"/>
      <point x="600" y="1024" type="line"/>
      <point x="623" y="1085"/>
      <point x="662" y="1188"/>
      <point x="690" y="1325" type="curve" smooth="yes"/>
      <point x="739" y="1556" type="line"/>
      <point x="352" y="1556" type="line"/>
      <point x="162" y="651" type="line" smooth="yes"/>
      <point x="141" y="559"/>
      <point x="129" y="477"/>
      <point x="129" y="393" type="curve" smooth="yes"/>
      <point x="129" y="141"/>
      <point x="276" y="-20"/>
    </contour>
    <contour>
      <point x="567" y="291" type="curve"/>
      <point x="514" y="291"/>
      <point x="483" y="334"/>
      <point x="483" y="428" type="curve" smooth="yes"/>
      <point x="483" y="596"/>
      <point x="557" y="842"/>
      <point x="678" y="842" type="curve" smooth="yes"/>
      <point x="735" y="842"/>
      <point x="764" y="793"/>
      <point x="764" y="705" type="curve" smooth="yes"/>
      <point x="764" y="539"/>
      <point x="688" y="291"/>
    </contour>
  </outline>
</glyph>
<glyph name="uni0187" format="2">
  <advance width="1290"/>
  <unicode hex="0187"/>
  <anchor x="524" y="0" name="bottom"/>
  <anchor x="836" y="1462" name="top"/>
  <outline>
    <contour>
      <point x="645" y="-20" type="curve" smooth="yes"/>
      <point x="797" y="-20"/>
      <point x="942" y="6"/>
      <point x="1085" y="70" type="curve"/>
      <point x="1085" y="393" type="line"/>
      <point x="940" y="332"/>
      <point x="836" y="303"/>
      <point x="717" y="303" type="curve" smooth="yes"/>
      <point x="578" y="303"/>
      <point x="500" y="391"/>
      <point x="500" y="569" type="curve" smooth="yes"/>
      <point x="500" y="870"/>
      <point x="643" y="1159"/>
      <point x="881" y="1159" type="curve" smooth="yes"/>
      <point x="999" y="1159"/>
      <point x="1143" y="1116"/>
      <point x="1276" y="1049" type="curve"/>
      <point x="1364" y="1380" type="line" smooth="yes"/>
      <point x="1393" y="1487"/>
      <point x="1436" y="1530"/>
      <point x="1493" y="1530" type="curve" smooth="yes"/>
      <point x="1544" y="1530"/>
      <point x="1573" y="1522"/>
      <point x="1606" y="1511" type="curve"/>
      <point x="1606" y="1792" type="line"/>
      <point x="1573" y="1804"/>
      <point x="1526" y="1825"/>
      <point x="1444" y="1825" type="curve" smooth="yes"/>
      <point x="1266" y="1825"/>
      <point x="1153" y="1733"/>
      <point x="1085" y="1491" type="curve" smooth="yes"/>
      <point x="1079" y="1468" type="line"/>
      <point x="1020" y="1479"/>
      <point x="967" y="1485"/>
      <point x="881" y="1485" type="curve" smooth="yes"/>
      <point x="332" y="1485"/>
      <point x="104" y="985"/>
      <point x="104" y="549" type="curve" smooth="yes"/>
      <point x="104" y="209"/>
      <point x="279" y="-20"/>
    </contour>
  </outline>
</glyph>
<glyph name="uni0188" format="2">
  <advance width="1032"/>
  <unicode hex="0188"/>
  <anchor x="395" y="0" name="bottom"/>
  <anchor x="729" y="1567" name="top"/>
  <outline>
    <contour>
      <point x="506" y="-20" type="curve" smooth="yes"/>
      <point x="664" y="-20"/>
      <point x="774" y="12"/>
      <point x="881" y="70" type="curve"/>
      <point x="881" y="377" type="line"/>
      <point x="780" y="324"/>
      <point x="694" y="291"/>
      <point x="598" y="291" type="curve" smooth="yes"/>
      <point x="520" y="291"/>
      <point x="473" y="334"/>
      <point x="473" y="467" type="curve" smooth="yes"/>
      <point x="473" y="614"/>
      <point x="549" y="846"/>
      <point x="754" y="846" type="curve" smooth="yes"/>
      <point x="842" y="846"/>
      <point x="924" y="813"/>
      <point x="983" y="772" type="curve"/>
      <point x="1067" y="1159" type="line" smooth="yes"/>
      <point x="1085" y="1235"/>
      <point x="1137" y="1272"/>
      <point x="1198" y="1272" type="curve" smooth="yes"/>
      <point x="1251" y="1272"/>
      <point x="1280" y="1260"/>
      <point x="1305" y="1253" type="curve"/>
      <point x="1307" y="1534" type="line"/>
      <point x="1270" y="1550"/>
      <point x="1219" y="1567"/>
      <point x="1155" y="1567" type="curve" smooth="yes"/>
      <point x="938" y="1567"/>
      <point x="825" y="1448"/>
      <point x="766" y="1153" type="curve" smooth="yes"/>
      <point x="764" y="1143" type="line"/>
      <point x="739" y="1151"/>
      <point x="715" y="1153"/>
      <point x="690" y="1153" type="curve" smooth="yes"/>
      <point x="322" y="1153"/>
      <point x="84" y="842"/>
      <point x="84" y="442" type="curve" smooth="yes"/>
      <point x="84" y="113"/>
      <point x="276" y="-20"/>
    </contour>
  </outline>
</glyph>
<glyph name="uni018B" format="2">
  <advance width="1245"/>
  <unicode hex="018B"/>
  <anchor x="502" y="0" name="bottom"/>
  <anchor x="813" y="1462" name="top"/>
  <outline>
    <contour>
      <point x="578" y="0" type="curve" smooth="yes"/>
      <point x="946" y="0" type="line"/>
      <point x="1255" y="1462" type="line"/>
      <point x="354" y="1462" type="line"/>
      <point x="289" y="1153" type="line"/>
      <point x="799" y="1153" type="line"/>
      <point x="758" y="934" type="line"/>
      <point x="678" y="934" type="line" smooth="yes"/>
      <point x="365" y="934"/>
      <point x="39" y="791"/>
      <point x="39" y="442" type="curve" smooth="yes"/>
      <point x="39" y="184"/>
      <point x="190" y="0"/>
    </contour>
    <contour>
      <point x="582" y="309" type="line"/>
      <point x="485" y="309"/>
      <point x="430" y="365"/>
      <point x="430" y="453" type="curve" smooth="yes"/>
      <point x="430" y="561"/>
      <point x="512" y="625"/>
      <point x="657" y="625" type="curve" smooth="yes"/>
      <point x="688" y="625" type="line"/>
      <point x="623" y="309" type="line"/>
    </contour>
  </outline>
</glyph>
<glyph name="uni0190" format="2">
  <advance width="1303"/>
  <unicode hex="0190"/>
  <anchor x="530" y="0" name="bottom"/>
  <anchor x="842" y="1462" name="top"/>
  <outline>
    <contour>
      <point x="608" y="-20" type="curve" smooth="yes"/>
      <point x="868" y="-20"/>
      <point x="1006" y="10"/>
      <point x="1139" y="66" type="curve"/>
      <point x="1139" y="365" type="line"/>
      <point x="999" y="303"/>
      <point x="848" y="276"/>
      <point x="717" y="276" type="curve" smooth="yes"/>
      <point x="532" y="276"/>
      <point x="416" y="317"/>
      <point x="416" y="430" type="curve" smooth="yes"/>
      <point x="416" y="561"/>
      <point x="586" y="616"/>
      <point x="907" y="616" type="curve" smooth="yes"/>
      <point x="995" y="616" type="line"/>
      <point x="1061" y="907" type="line"/>
      <point x="989" y="907" type="line" smooth="yes"/>
      <point x="680" y="907"/>
      <point x="590" y="967"/>
      <point x="590" y="1051" type="curve" smooth="yes"/>
      <point x="590" y="1124"/>
      <point x="641" y="1180"/>
      <point x="840" y="1180" type="curve" smooth="yes"/>
      <point x="985" y="1180"/>
      <point x="1112" y="1133"/>
      <point x="1206" y="1059" type="curve"/>
      <point x="1380" y="1315" type="line"/>
      <point x="1260" y="1413"/>
      <point x="1077" y="1483"/>
      <point x="811" y="1483" type="curve" smooth="yes"/>
      <point x="575" y="1483"/>
      <point x="195" y="1411"/>
      <point x="195" y="1073" type="curve" smooth="yes"/>
      <point x="195" y="901"/>
      <point x="338" y="807"/>
      <point x="532" y="784" type="curve"/>
      <point x="532" y="776" type="line"/>
      <point x="203" y="758"/>
      <point x="20" y="608"/>
      <point x="20" y="381" type="curve" smooth="yes"/>
      <point x="20" y="129"/>
      <point x="236" y="-20"/>
    </contour>
  </outline>
</glyph>
<glyph name="uni0193" format="2">
  <advance width="1430"/>
  <unicode hex="0193"/>
  <anchor x="594" y="0" name="bottom"/>
  <anchor x="905" y="1462" name="top"/>
  <outline>
    <contour>
      <point x="653" y="-20" type="curve" smooth="yes"/>
      <point x="872" y="-20"/>
      <point x="1034" y="16"/>
      <point x="1174" y="61" type="curve"/>
      <point x="1341" y="856" type="line"/>
      <point x="731" y="856" type="line"/>
      <point x="664" y="551" type="line"/>
      <point x="893" y="551" type="line"/>
      <point x="842" y="319" type="line"/>
      <point x="788" y="309"/>
      <point x="762" y="305"/>
      <point x="709" y="305" type="curve" smooth="yes"/>
      <point x="573" y="305"/>
      <point x="500" y="385"/>
      <point x="500" y="569" type="curve" smooth="yes"/>
      <point x="500" y="797"/>
      <point x="614" y="1159"/>
      <point x="956" y="1159" type="curve" smooth="yes"/>
      <point x="1067" y="1159"/>
      <point x="1180" y="1124"/>
      <point x="1317" y="1065" type="curve"/>
      <point x="1405" y="1380" type="line" smooth="yes"/>
      <point x="1434" y="1487"/>
      <point x="1475" y="1530"/>
      <point x="1534" y="1530" type="curve" smooth="yes"/>
      <point x="1583" y="1530"/>
      <point x="1614" y="1522"/>
      <point x="1645" y="1511" type="curve"/>
      <point x="1645" y="1792" type="line"/>
      <point x="1612" y="1804"/>
      <point x="1567" y="1825"/>
      <point x="1487" y="1825" type="curve" smooth="yes"/>
      <point x="1321" y="1825"/>
      <point x="1190" y="1737"/>
      <point x="1130" y="1513" type="curve" smooth="yes"/>
      <point x="1120" y="1475" type="line"/>
      <point x="1065" y="1481"/>
      <point x="1012" y="1485"/>
      <point x="961" y="1485" type="curve" smooth="yes"/>
      <point x="379" y="1485"/>
      <point x="104" y="1032"/>
      <point x="104" y="563" type="curve" smooth="yes"/>
      <point x="104" y="176"/>
      <point x="322" y="-20"/>
    </contour>
  </outline>
</glyph>
<glyph name="uni0197" format="2">
  <advance width="872"/>
  <unicode hex="0197"/>
  <anchor x="315" y="0" name="bottom"/>
  <anchor x="627" y="1462" name="top"/>
  <outline>
    <contour>
      <point x="-74" y="0" type="line"/>
      <point x="672" y="0" type="line"/>
      <point x="719" y="223" type="line"/>
      <point x="557" y="303" type="line"/>
      <point x="612" y="567" type="line"/>
      <point x="799" y="567" type="line"/>
      <point x="870" y="874" type="line"/>
      <point x="678" y="874" type="line"/>
      <point x="737" y="1151" type="line"/>
      <point x="938" y="1237" type="line"/>
      <point x="985" y="1462" type="line"/>
      <point x="233" y="1462" type="line"/>
      <point x="186" y="1237" type="line"/>
      <point x="346" y="1151" type="line"/>
      <point x="287" y="874" type="line"/>
      <point x="102" y="874" type="line"/>
      <point x="33" y="567" type="line"/>
      <point x="221" y="567" type="line"/>
      <point x="166" y="303" type="line"/>
      <point x="-27" y="223" type="line"/>
    </contour>
  </outline>
</glyph>
<glyph name="uni0198" format="2">
  <advance width="1391"/>
  <unicode hex="0198"/>
  <anchor x="565" y="0" name="bottom"/>
  <anchor x="877" y="1462" name="top"/>
  <outline>
    <contour>
      <point x="33" y="0" type="line"/>
      <point x="424" y="0" type="line"/>
      <point x="532" y="522" type="line"/>
      <point x="629" y="578" type="line"/>
      <point x="803" y="0" type="line"/>
      <point x="1241" y="0" type="line"/>
      <point x="971" y="788" type="line"/>
      <point x="1217" y="1090" type="line" smooth="yes"/>
      <point x="1247" y="1128"/>
      <point x="1296" y="1176"/>
      <point x="1354" y="1176" type="curve" smooth="yes"/>
      <point x="1399" y="1176"/>
      <point x="1440" y="1165"/>
      <point x="1462" y="1153" type="curve"/>
      <point x="1462" y="1456" type="line"/>
      <point x="1421" y="1475"/>
      <point x="1378" y="1491"/>
      <point x="1305" y="1491" type="curve" smooth="yes"/>
      <point x="1094" y="1491"/>
      <point x="1001" y="1421"/>
      <point x="877" y="1245" type="curve" smooth="yes"/>
      <point x="766" y="1092" type="line"/>
      <point x="598" y="838" type="line"/>
      <point x="733" y="1462" type="line"/>
      <point x="342" y="1462" type="line"/>
    </contour>
  </outline>
</glyph>
<glyph name="uni0199" format="2">
  <advance width="1264"/>
  <unicode hex="0199"/>
  <anchor x="512" y="0" name="bottom"/>
  <anchor x="848" y="1573" name="top"/>
  <outline>
    <contour>
      <point x="23" y="0" type="line"/>
      <point x="410" y="0" type="line"/>
      <point x="479" y="338" type="line"/>
      <point x="580" y="391" type="line"/>
      <point x="719" y="0" type="line"/>
      <point x="1157" y="0" type="line"/>
      <point x="883" y="621" type="line"/>
      <point x="1374" y="1133" type="line"/>
      <point x="932" y="1133" type="line"/>
      <point x="537" y="670" type="line"/>
      <point x="528" y="670" type="line"/>
      <point x="545" y="715"/>
      <point x="580" y="819"/>
      <point x="596" y="893" type="curve" smooth="yes"/>
      <point x="653" y="1163" type="line" smooth="yes"/>
      <point x="668" y="1237"/>
      <point x="721" y="1280"/>
      <point x="782" y="1280" type="curve" smooth="yes"/>
      <point x="829" y="1280"/>
      <point x="862" y="1266"/>
      <point x="883" y="1260" type="curve"/>
      <point x="881" y="1540" type="line"/>
      <point x="858" y="1552"/>
      <point x="795" y="1573"/>
      <point x="705" y="1573" type="curve" smooth="yes"/>
      <point x="463" y="1573"/>
      <point x="324" y="1440"/>
      <point x="270" y="1184" type="curve" smooth="yes"/>
    </contour>
  </outline>
</glyph>
<glyph name="uni019A" format="2">
  <advance width="666"/>
  <unicode hex="019A"/>
  <anchor x="213" y="0" name="bottom"/>
  <anchor x="545" y="1556" name="top"/>
  <outline>
    <contour>
      <point x="23" y="0" type="line"/>
      <point x="410" y="0" type="line"/>
      <point x="532" y="578" type="line"/>
      <point x="707" y="578" type="line"/>
      <point x="768" y="860" type="line"/>
      <point x="592" y="860" type="line"/>
      <point x="739" y="1556" type="line"/>
      <point x="352" y="1556" type="line"/>
      <point x="205" y="860" type="line"/>
      <point x="33" y="860" type="line"/>
      <point x="-31" y="578" type="line"/>
      <point x="145" y="578" type="line"/>
    </contour>
  </outline>
</glyph>
<glyph name="uni019C" format="2">
  <advance width="2085"/>
  <unicode hex="019C"/>
  <anchor x="922" y="0" name="bottom"/>
  <anchor x="1233" y="1462" name="top"/>
  <outline>
    <contour>
      <point x="440" y="-20" type="curve" smooth="yes"/>
      <point x="584" y="-20"/>
      <point x="715" y="45"/>
      <point x="805" y="201" type="curve"/>
      <point x="817" y="201" type="line"/>
      <point x="856" y="35"/>
      <point x="961" y="-20"/>
      <point x="1114" y="-20" type="curve" smooth="yes"/>
      <point x="1294" y="-20"/>
      <point x="1399" y="76"/>
      <point x="1458" y="201" type="curve"/>
      <point x="1470" y="201" type="line"/>
      <point x="1452" y="0" type="line"/>
      <point x="1786" y="0" type="line"/>
      <point x="2095" y="1462" type="line"/>
      <point x="1708" y="1462" type="line"/>
      <point x="1532" y="635" type="line" smooth="yes"/>
      <point x="1497" y="471"/>
      <point x="1448" y="297"/>
      <point x="1294" y="297" type="curve" smooth="yes"/>
      <point x="1231" y="297"/>
      <point x="1194" y="334"/>
      <point x="1194" y="406" type="curve" smooth="yes"/>
      <point x="1194" y="463"/>
      <point x="1206" y="520"/>
      <point x="1217" y="569" type="curve" smooth="yes"/>
      <point x="1407" y="1462" type="line"/>
      <point x="1016" y="1462" type="line"/>
      <point x="838" y="604" type="line" smooth="yes"/>
      <point x="809" y="467"/>
      <point x="748" y="297"/>
      <point x="606" y="297" type="curve" smooth="yes"/>
      <point x="555" y="297"/>
      <point x="514" y="334"/>
      <point x="514" y="410" type="curve" smooth="yes"/>
      <point x="514" y="442"/>
      <point x="518" y="479"/>
      <point x="528" y="518" type="curve" smooth="yes"/>
      <point x="725" y="1462" type="line"/>
      <point x="336" y="1462" type="line"/>
      <point x="135" y="524" type="line" smooth="yes"/>
      <point x="123" y="467"/>
      <point x="113" y="393"/>
      <point x="113" y="332" type="curve" smooth="yes"/>
      <point x="113" y="98"/>
      <point x="246" y="-20"/>
    </contour>
  </outline>
</glyph>
<glyph name="Ohorn" format="2">
  <advance width="1645"/>
  <unicode hex="01A0"/>
  <anchor x="702" y="0" name="bottom"/>
  <anchor x="895" y="1462" name="top"/>
  <outline>
    <contour>
      <point x="666" y="-20" type="curve" smooth="yes"/>
      <point x="1204" y="-20"/>
      <point x="1446" y="467"/>
      <point x="1446" y="922" type="curve" smooth="yes"/>
      <point x="1446" y="971"/>
      <point x="1442" y="1018"/>
      <point x="1434" y="1063" type="curve"/>
      <point x="1614" y="1133"/>
      <point x="1765" y="1272"/>
      <point x="1849" y="1530" type="curve"/>
      <point x="1837" y="1556" type="line"/>
      <point x="1458" y="1556" type="line"/>
      <point x="1438" y="1427"/>
      <point x="1376" y="1329"/>
      <point x="1343" y="1286" type="curve"/>
      <point x="1253" y="1411"/>
      <point x="1102" y="1485"/>
      <point x="897" y="1485" type="curve" smooth="yes"/>
      <point x="354" y="1485"/>
      <point x="104" y="997"/>
      <point x="104" y="543" type="curve" smooth="yes"/>
      <point x="104" y="203"/>
      <point x="293" y="-20"/>
    </contour>
    <contour>
      <point x="700" y="303" type="curve" smooth="yes"/>
      <point x="567" y="303"/>
      <point x="500" y="387"/>
      <point x="500" y="545" type="curve" smooth="yes"/>
      <point x="500" y="840"/>
      <point x="645" y="1161"/>
      <point x="864" y="1161" type="curve" smooth="yes"/>
      <point x="985" y="1161"/>
      <point x="1051" y="1069"/>
      <point x="1051" y="918" type="curve" smooth="yes"/>
      <point x="1051" y="582"/>
      <point x="897" y="303"/>
    </contour>
  </outline>
</glyph>
<glyph name="ohorn" format="2">
  <advance width="1448"/>
  <unicode hex="01A1"/>
  <anchor x="604" y="0" name="bottom"/>
  <anchor x="727" y="1133" name="top"/>
  <outline>
    <contour>
      <point x="520" y="-20" type="curve" smooth="yes"/>
      <point x="940" y="-20"/>
      <point x="1159" y="330"/>
      <point x="1159" y="717" type="curve" smooth="yes"/>
      <point x="1159" y="741"/>
      <point x="1157" y="766"/>
      <point x="1155" y="791" type="curve"/>
      <point x="1427" y="872"/>
      <point x="1542" y="1028"/>
      <point x="1612" y="1276" type="curve"/>
      <point x="1599" y="1300" type="line"/>
      <point x="1235" y="1300" type="line"/>
      <point x="1214" y="1190"/>
      <point x="1174" y="1051"/>
      <point x="1071" y="1010" type="curve"/>
      <point x="997" y="1102"/>
      <point x="879" y="1153"/>
      <point x="723" y="1153" type="curve" smooth="yes"/>
      <point x="303" y="1153"/>
      <point x="84" y="803"/>
      <point x="84" y="416" type="curve" smooth="yes"/>
      <point x="84" y="137"/>
      <point x="242" y="-20"/>
    </contour>
    <contour>
      <point x="563" y="270" type="curve" smooth="yes"/>
      <point x="510" y="270"/>
      <point x="479" y="315"/>
      <point x="479" y="403" type="curve" smooth="yes"/>
      <point x="479" y="627"/>
      <point x="563" y="862"/>
      <point x="678" y="862" type="curve" smooth="yes"/>
      <point x="731" y="862"/>
      <point x="764" y="817"/>
      <point x="764" y="729" type="curve" smooth="yes"/>
      <point x="764" y="506"/>
      <point x="678" y="270"/>
    </contour>
  </outline>
</glyph>
<glyph name="uni01A2" format="2">
  <advance width="2241"/>
  <unicode hex="01A2"/>
  <anchor x="999" y="0" name="bottom"/>
  <anchor x="1311" y="1462" name="top"/>
  <outline>
    <contour>
      <point x="666" y="-20" type="curve" smooth="yes"/>
      <point x="1204" y="-20"/>
      <point x="1446" y="467"/>
      <point x="1446" y="922" type="curve" smooth="yes"/>
      <point x="1446" y="983"/>
      <point x="1440" y="1042"/>
      <point x="1427" y="1096" type="curve"/>
      <point x="1473" y="1141"/>
      <point x="1548" y="1171"/>
      <point x="1610" y="1171" type="curve" smooth="yes"/>
      <point x="1714" y="1171"/>
      <point x="1772" y="1114"/>
      <point x="1772" y="1016" type="curve" smooth="yes"/>
      <point x="1772" y="977"/>
      <point x="1763" y="930"/>
      <point x="1753" y="887" type="curve" smooth="yes"/>
      <point x="1565" y="0" type="line"/>
      <point x="1942" y="0" type="line"/>
      <point x="2130" y="883" type="line" smooth="yes"/>
      <point x="2142" y="936"/>
      <point x="2159" y="1006"/>
      <point x="2159" y="1092" type="curve" smooth="yes"/>
      <point x="2159" y="1337"/>
      <point x="1960" y="1485"/>
      <point x="1753" y="1485" type="curve" smooth="yes"/>
      <point x="1585" y="1485"/>
      <point x="1468" y="1432"/>
      <point x="1331" y="1303" type="curve"/>
      <point x="1239" y="1419"/>
      <point x="1094" y="1485"/>
      <point x="897" y="1485" type="curve" smooth="yes"/>
      <point x="354" y="1485"/>
      <point x="104" y="997"/>
      <point x="104" y="543" type="curve" smooth="yes"/>
      <point x="104" y="203"/>
      <point x="293" y="-20"/>
    </contour>
    <contour>
      <point x="700" y="303" type="curve" smooth="yes"/>
      <point x="567" y="303"/>
      <point x="500" y="387"/>
      <point x="500" y="545" type="curve" smooth="yes"/>
      <point x="500" y="840"/>
      <point x="645" y="1161"/>
      <point x="864" y="1161" type="curve" smooth="yes"/>
      <point x="985" y="1161"/>
      <point x="1051" y="1069"/>
      <point x="1051" y="918" type="curve" smooth="yes"/>
      <point x="1051" y="582"/>
      <point x="897" y="303"/>
    </contour>
  </outline>
</glyph>
<glyph name="uni01A4" format="2">
  <advance width="1550"/>
  <unicode hex="01A4"/>
  <anchor x="655" y="0" name="bottom"/>
  <anchor x="967" y="1462" name="top"/>
  <outline>
    <contour>
      <point x="307" y="0" type="line"/>
      <point x="698" y="0" type="line"/>
      <point x="799" y="485" type="line"/>
      <point x="885" y="485" type="line" smooth="yes"/>
      <point x="1264" y="485"/>
      <point x="1526" y="674"/>
      <point x="1526" y="1024" type="curve" smooth="yes"/>
      <point x="1526" y="1270"/>
      <point x="1376" y="1462"/>
      <point x="989" y="1462" type="curve" smooth="yes"/>
      <point x="559" y="1462" type="line" smooth="yes"/>
      <point x="229" y="1462"/>
      <point x="59" y="1294"/>
      <point x="59" y="1022" type="curve" smooth="yes"/>
      <point x="59" y="977"/>
      <point x="63" y="961"/>
      <point x="66" y="940" type="curve"/>
      <point x="342" y="940" type="line"/>
      <point x="340" y="950"/>
      <point x="340" y="963"/>
      <point x="340" y="995" type="curve" smooth="yes"/>
      <point x="340" y="1094"/>
      <point x="403" y="1153"/>
      <point x="500" y="1153" type="curve" smooth="yes"/>
      <point x="551" y="1153" type="line"/>
    </contour>
    <contour>
      <point x="868" y="805" type="line"/>
      <point x="940" y="1143" type="line"/>
      <point x="999" y="1143" type="line" smooth="yes"/>
      <point x="1096" y="1143"/>
      <point x="1135" y="1079"/>
      <point x="1135" y="1012" type="curve" smooth="yes"/>
      <point x="1135" y="893"/>
      <point x="1055" y="805"/>
      <point x="932" y="805" type="curve" smooth="yes"/>
    </contour>
  </outline>
</glyph>
<glyph name="uni01A5" format="2">
  <advance width="1243"/>
  <unicode hex="01A5"/>
  <anchor x="397" y="-492" name="bottom"/>
  <anchor x="838" y="1573" name="top"/>
  <outline>
    <contour>
      <point x="-82" y="-492" type="line"/>
      <point x="305" y="-492" type="line"/>
      <point x="356" y="-246" type="line" smooth="yes"/>
      <point x="393" y="-70"/>
      <point x="403" y="18"/>
      <point x="412" y="125" type="curve"/>
      <point x="420" y="125" type="line"/>
      <point x="473" y="37"/>
      <point x="549" y="-20"/>
      <point x="651" y="-20" type="curve" smooth="yes"/>
      <point x="963" y="-20"/>
      <point x="1159" y="360"/>
      <point x="1159" y="735" type="curve" smooth="yes"/>
      <point x="1159" y="1001"/>
      <point x="1032" y="1153"/>
      <point x="836" y="1153" type="curve" smooth="yes"/>
      <point x="731" y="1153"/>
      <point x="666" y="1102"/>
      <point x="608" y="1024" type="curve"/>
      <point x="600" y="1024" type="line"/>
      <point x="612" y="1049"/>
      <point x="633" y="1102"/>
      <point x="647" y="1157" type="curve" smooth="yes"/>
      <point x="655" y="1188" type="line" smooth="yes"/>
      <point x="674" y="1249"/>
      <point x="723" y="1280"/>
      <point x="782" y="1280" type="curve" smooth="yes"/>
      <point x="827" y="1280"/>
      <point x="862" y="1266"/>
      <point x="881" y="1260" type="curve"/>
      <point x="881" y="1540" type="line"/>
      <point x="856" y="1552"/>
      <point x="793" y="1573"/>
      <point x="702" y="1573" type="curve" smooth="yes"/>
      <point x="465" y="1573"/>
      <point x="328" y="1438"/>
      <point x="272" y="1184" type="curve" smooth="yes"/>
    </contour>
    <contour>
      <point x="573" y="291" type="curve" smooth="yes"/>
      <point x="518" y="291"/>
      <point x="485" y="348"/>
      <point x="485" y="434" type="curve" smooth="yes"/>
      <point x="485" y="608"/>
      <point x="559" y="842"/>
      <point x="678" y="842" type="curve" smooth="yes"/>
      <point x="735" y="842"/>
      <point x="764" y="791"/>
      <point x="764" y="698" type="curve" smooth="yes"/>
      <point x="764" y="504"/>
      <point x="680" y="291"/>
    </contour>
  </outline>
</glyph>
<glyph name="uni01A6" format="2">
  <advance width="1296"/>
  <unicode hex="01A6"/>
  <anchor x="528" y="0" name="bottom"/>
  <anchor x="840" y="1462" name="top"/>
  <outline>
    <contour>
      <point x="733" y="-205" type="line"/>
      <point x="1155" y="-205" type="line"/>
      <point x="883" y="401" type="line"/>
      <point x="1010" y="459"/>
      <point x="1174" y="596"/>
      <point x="1174" y="844" type="curve" smooth="yes"/>
      <point x="1174" y="1061"/>
      <point x="1069" y="1257"/>
      <point x="709" y="1257" type="curve" smooth="yes"/>
      <point x="688" y="1257" type="line"/>
      <point x="731" y="1462" type="line"/>
      <point x="340" y="1462" type="line"/>
      <point x="31" y="0" type="line"/>
      <point x="424" y="0" type="line"/>
      <point x="492" y="332" type="line"/>
      <point x="526" y="332" type="line"/>
    </contour>
    <contour>
      <point x="557" y="639" type="line"/>
      <point x="621" y="950" type="line"/>
      <point x="637" y="950" type="line" smooth="yes"/>
      <point x="739" y="950"/>
      <point x="778" y="899"/>
      <point x="778" y="823" type="curve" smooth="yes"/>
      <point x="778" y="684"/>
      <point x="686" y="639"/>
      <point x="580" y="639" type="curve" smooth="yes"/>
    </contour>
  </outline>
</glyph>
<glyph name="uni01A7" format="2">
  <advance width="1122"/>
  <unicode hex="01A7"/>
  <anchor x="440" y="0" name="bottom"/>
  <anchor x="752" y="1462" name="top"/>
  <outline>
    <contour>
      <point x="502" y="-20" type="curve" smooth="yes"/>
      <point x="680" y="-20"/>
      <point x="819" y="18"/>
      <point x="958" y="82" type="curve"/>
      <point x="958" y="395" type="line"/>
      <point x="778" y="330"/>
      <point x="688" y="291"/>
      <point x="549" y="291" type="curve" smooth="yes"/>
      <point x="461" y="291"/>
      <point x="416" y="328"/>
      <point x="416" y="399" type="curve" smooth="yes"/>
      <point x="416" y="506"/>
      <point x="549" y="561"/>
      <point x="657" y="602" type="curve" smooth="yes"/>
      <point x="930" y="715"/>
      <point x="1112" y="809"/>
      <point x="1112" y="1102" type="curve" smooth="yes"/>
      <point x="1112" y="1331"/>
      <point x="936" y="1483"/>
      <point x="684" y="1483" type="curve" smooth="yes"/>
      <point x="492" y="1483"/>
      <point x="385" y="1444"/>
      <point x="209" y="1368" type="curve"/>
      <point x="315" y="1081" type="line"/>
      <point x="473" y="1143"/>
      <point x="541" y="1169"/>
      <point x="631" y="1169" type="curve" smooth="yes"/>
      <point x="707" y="1169"/>
      <point x="745" y="1141"/>
      <point x="745" y="1090" type="curve" smooth="yes"/>
      <point x="745" y="969"/>
      <point x="571" y="932"/>
      <point x="420" y="877" type="curve" smooth="yes"/>
      <point x="215" y="797"/>
      <point x="43" y="653"/>
      <point x="43" y="371" type="curve" smooth="yes"/>
      <point x="43" y="156"/>
      <point x="184" y="-20"/>
    </contour>
  </outline>
</glyph>
<glyph name="uni01AB" format="2">
  <advance width="936"/>
  <unicode hex="01AB"/>
  <anchor x="244" y="-492" name="bottom"/>
  <anchor x="639" y="1360" name="top"/>
  <outline>
    <contour>
      <point x="332" y="-492" type="curve" smooth="yes"/>
      <point x="551" y="-492"/>
      <point x="668" y="-338"/>
      <point x="702" y="-170" type="curve" smooth="yes"/>
      <point x="807" y="324" type="line"/>
      <point x="733" y="305"/>
      <point x="659" y="291"/>
      <point x="586" y="291" type="curve" smooth="yes"/>
      <point x="530" y="291"/>
      <point x="504" y="309"/>
      <point x="504" y="354" type="curve" smooth="yes"/>
      <point x="504" y="377"/>
      <point x="512" y="420"/>
      <point x="520" y="459" type="curve" smooth="yes"/>
      <point x="604" y="842" type="line"/>
      <point x="893" y="842" type="line"/>
      <point x="956" y="1133" type="line"/>
      <point x="668" y="1133" type="line"/>
      <point x="717" y="1360" type="line"/>
      <point x="459" y="1360" type="line"/>
      <point x="322" y="1120" type="line"/>
      <point x="104" y="1032" type="line"/>
      <point x="63" y="842" type="line"/>
      <point x="217" y="842" type="line"/>
      <point x="133" y="440" type="line" smooth="yes"/>
      <point x="121" y="385"/>
      <point x="109" y="307"/>
      <point x="109" y="252" type="curve" smooth="yes"/>
      <point x="109" y="59"/>
      <point x="205" y="-20"/>
      <point x="430" y="-20" type="curve"/>
      <point x="414" y="-111" type="line" smooth="yes"/>
      <point x="399" y="-197"/>
      <point x="352" y="-231"/>
      <point x="279" y="-231" type="curve" smooth="yes"/>
      <point x="231" y="-231"/>
      <point x="176" y="-223"/>
      <point x="152" y="-213" type="curve"/>
      <point x="154" y="-463" type="line"/>
      <point x="207" y="-481"/>
      <point x="258" y="-492"/>
    </contour>
  </outline>
</glyph>
<glyph name="uni01AD" format="2">
  <advance width="936"/>
  <unicode hex="01AD"/>
  <anchor x="348" y="0" name="bottom"/>
  <anchor x="682" y="1567" name="top"/>
  <outline>
    <contour>
      <point x="410" y="-20" type="curve" smooth="yes"/>
      <point x="557" y="-20"/>
      <point x="666" y="6"/>
      <point x="750" y="47" type="curve"/>
      <point x="750" y="338" type="line"/>
      <point x="684" y="311"/>
      <point x="618" y="291"/>
      <point x="567" y="291" type="curve" smooth="yes"/>
      <point x="530" y="291"/>
      <point x="504" y="309"/>
      <point x="504" y="354" type="curve" smooth="yes"/>
      <point x="504" y="377"/>
      <point x="512" y="420"/>
      <point x="520" y="459" type="curve" smooth="yes"/>
      <point x="604" y="842" type="line"/>
      <point x="893" y="842" type="line"/>
      <point x="956" y="1133" type="line"/>
      <point x="668" y="1133" type="line"/>
      <point x="676" y="1169" type="line" smooth="yes"/>
      <point x="692" y="1243"/>
      <point x="731" y="1276"/>
      <point x="805" y="1276" type="curve" smooth="yes"/>
      <point x="862" y="1276"/>
      <point x="918" y="1262"/>
      <point x="950" y="1249" type="curve"/>
      <point x="950" y="1530" type="line"/>
      <point x="911" y="1546"/>
      <point x="840" y="1567"/>
      <point x="733" y="1567" type="curve" smooth="yes"/>
      <point x="508" y="1567"/>
      <point x="358" y="1464"/>
      <point x="295" y="1190" type="curve" smooth="yes"/>
      <point x="276" y="1104" type="line"/>
      <point x="104" y="1032" type="line"/>
      <point x="63" y="842" type="line"/>
      <point x="217" y="842" type="line"/>
      <point x="133" y="440" type="line" smooth="yes"/>
      <point x="121" y="385"/>
      <point x="109" y="307"/>
      <point x="109" y="252" type="curve" smooth="yes"/>
      <point x="109" y="59"/>
      <point x="213" y="-20"/>
    </contour>
  </outline>
</glyph>
<glyph name="uni01AE" format="2">
  <advance width="1130"/>
  <unicode hex="01AE"/>
  <anchor x="340" y="-492" name="bottom"/>
  <anchor x="756" y="1462" name="top"/>
  <outline>
    <contour>
      <point x="569" y="-492" type="curve" smooth="yes"/>
      <point x="668" y="-492"/>
      <point x="760" y="-471"/>
      <point x="801" y="-459" type="curve"/>
      <point x="801" y="-180" type="line"/>
      <point x="780" y="-186"/>
      <point x="735" y="-201"/>
      <point x="682" y="-201" type="curve" smooth="yes"/>
      <point x="641" y="-201"/>
      <point x="606" y="-184"/>
      <point x="606" y="-119" type="curve" smooth="yes"/>
      <point x="606" y="-84"/>
      <point x="618" y="-39"/>
      <point x="627" y="0" type="curve" smooth="yes"/>
      <point x="864" y="1139" type="line"/>
      <point x="1182" y="1139" type="line"/>
      <point x="1253" y="1462" type="line"/>
      <point x="225" y="1462" type="line"/>
      <point x="156" y="1139" type="line"/>
      <point x="473" y="1139" type="line"/>
      <point x="236" y="0" type="line" smooth="yes"/>
      <point x="219" y="-80"/>
      <point x="209" y="-143"/>
      <point x="209" y="-199" type="curve" smooth="yes"/>
      <point x="209" y="-395"/>
      <point x="344" y="-492"/>
    </contour>
  </outline>
</glyph>
<glyph name="uni01B4" format="2">
  <advance width="1268"/>
  <unicode hex="01B4"/>
  <anchor x="389" y="-492" name="bottom"/>
  <anchor x="735" y="1133" name="top"/>
  <outline>
    <contour>
      <point x="25" y="-492" type="curve" smooth="yes"/>
      <point x="283" y="-492"/>
      <point x="436" y="-375"/>
      <point x="559" y="-143" type="curve" smooth="yes"/>
      <point x="993" y="676" type="line"/>
      <point x="1047" y="778"/>
      <point x="1098" y="834"/>
      <point x="1194" y="834" type="curve" smooth="yes"/>
      <point x="1217" y="834"/>
      <point x="1243" y="829"/>
      <point x="1272" y="823" type="curve"/>
      <point x="1329" y="1122" type="line"/>
      <point x="1264" y="1141"/>
      <point x="1188" y="1151"/>
      <point x="1126" y="1151" type="curve" smooth="yes"/>
      <point x="866" y="1151"/>
      <point x="748" y="958"/>
      <point x="657" y="770" type="curve" smooth="yes"/>
      <point x="594" y="637" type="line" smooth="yes"/>
      <point x="549" y="537"/>
      <point x="541" y="483"/>
      <point x="524" y="422" type="curve"/>
      <point x="516" y="422" type="line"/>
      <point x="516" y="481"/>
      <point x="516" y="543"/>
      <point x="514" y="571" type="curve" smooth="yes"/>
      <point x="471" y="1133" type="line"/>
      <point x="82" y="1133" type="line"/>
      <point x="244" y="12" type="line"/>
      <point x="221" y="-29" type="line" smooth="yes"/>
      <point x="164" y="-131"/>
      <point x="98" y="-180"/>
      <point x="-20" y="-180" type="curve" smooth="yes"/>
      <point x="-66" y="-180"/>
      <point x="-104" y="-174"/>
      <point x="-129" y="-168" type="curve"/>
      <point x="-129" y="-475" type="line"/>
      <point x="-100" y="-483"/>
      <point x="-53" y="-492"/>
    </contour>
  </outline>
</glyph>
<glyph name="uni01B6" format="2">
  <advance width="993"/>
  <unicode hex="01B6"/>
  <anchor x="377" y="0" name="bottom"/>
  <anchor x="618" y="1133" name="top"/>
  <outline>
    <contour>
      <point x="-41" y="0" type="line"/>
      <point x="803" y="0" type="line"/>
      <point x="868" y="299" type="line"/>
      <point x="485" y="299" type="line"/>
      <point x="616" y="457" type="line"/>
      <point x="885" y="457" type="line"/>
      <point x="936" y="686" type="line"/>
      <point x="809" y="686" type="line"/>
      <point x="981" y="891" type="line"/>
      <point x="1034" y="1133" type="line"/>
      <point x="223" y="1133" type="line"/>
      <point x="156" y="834" type="line"/>
      <point x="504" y="834" type="line"/>
      <point x="383" y="686" type="line"/>
      <point x="123" y="686" type="line"/>
      <point x="74" y="457" type="line"/>
      <point x="195" y="457" type="line"/>
      <point x="2" y="221" type="line"/>
    </contour>
  </outline>
</glyph>
<glyph name="uni01B8" format="2">
  <advance width="1171"/>
  <unicode hex="01B8"/>
  <anchor x="465" y="0" name="bottom"/>
  <anchor x="776" y="1462" name="top"/>
  <outline>
    <contour>
      <point x="629" y="-20" type="curve" smooth="yes"/>
      <point x="817" y="-20"/>
      <point x="932" y="8"/>
      <point x="1061" y="59" type="curve"/>
      <point x="1063" y="381" type="line"/>
      <point x="922" y="315"/>
      <point x="819" y="289"/>
      <point x="682" y="289" type="curve" smooth="yes"/>
      <point x="551" y="289"/>
      <point x="451" y="342"/>
      <point x="451" y="440" type="curve" smooth="yes"/>
      <point x="451" y="578"/>
      <point x="594" y="608"/>
      <point x="817" y="608" type="curve" smooth="yes"/>
      <point x="952" y="608" type="line"/>
      <point x="1008" y="840" type="line"/>
      <point x="739" y="1143" type="line"/>
      <point x="1229" y="1143" type="line"/>
      <point x="1296" y="1462" type="line"/>
      <point x="322" y="1462" type="line"/>
      <point x="270" y="1219" type="line"/>
      <point x="580" y="868" type="line"/>
      <point x="276" y="852"/>
      <point x="57" y="723"/>
      <point x="57" y="403" type="curve" smooth="yes"/>
      <point x="57" y="158"/>
      <point x="264" y="-20"/>
    </contour>
  </outline>
</glyph>
<glyph name="uni01BB" format="2">
  <advance width="1155"/>
  <unicode hex="01BB"/>
  <anchor x="457" y="0" name="bottom"/>
  <anchor x="791" y="1567" name="top"/>
  <outline>
    <contour>
      <point x="-57" y="0" type="line"/>
      <point x="981" y="0" type="line"/>
      <point x="1051" y="315" type="line"/>
      <point x="532" y="315" type="line"/>
      <point x="532" y="326" type="line"/>
      <point x="844" y="629" type="line"/>
      <point x="1114" y="629" type="line"/>
      <point x="1165" y="858" type="line"/>
      <point x="1069" y="858" type="line"/>
      <point x="1139" y="928"/>
      <point x="1210" y="1065"/>
      <point x="1210" y="1198" type="curve" smooth="yes"/>
      <point x="1210" y="1401"/>
      <point x="1057" y="1567"/>
      <point x="762" y="1567" type="curve" smooth="yes"/>
      <point x="516" y="1567"/>
      <point x="348" y="1464"/>
      <point x="193" y="1331" type="curve"/>
      <point x="381" y="1075" type="line"/>
      <point x="526" y="1196"/>
      <point x="600" y="1249"/>
      <point x="698" y="1249" type="curve" smooth="yes"/>
      <point x="764" y="1249"/>
      <point x="817" y="1219"/>
      <point x="817" y="1133" type="curve" smooth="yes"/>
      <point x="817" y="1053"/>
      <point x="752" y="958"/>
      <point x="649" y="858" type="curve"/>
      <point x="119" y="858" type="line"/>
      <point x="68" y="629" type="line"/>
      <point x="399" y="629" type="line"/>
      <point x="-6" y="246" type="line"/>
    </contour>
  </outline>
</glyph>
<glyph name="uni01BC" format="2">
  <advance width="1182"/>
  <unicode hex="01BC"/>
  <anchor x="471" y="0" name="bottom"/>
  <anchor x="782" y="1462" name="top"/>
  <outline>
    <contour>
      <point x="379" y="-20" type="curve" smooth="yes"/>
      <point x="770" y="-20"/>
      <point x="1096" y="109"/>
      <point x="1096" y="537" type="curve" smooth="yes"/>
      <point x="1096" y="788"/>
      <point x="926" y="952"/>
      <point x="670" y="952" type="curve" smooth="yes"/>
      <point x="657" y="952" type="line"/>
      <point x="707" y="1151" type="line"/>
      <point x="1194" y="1151" type="line"/>
      <point x="1262" y="1462" type="line"/>
      <point x="233" y="1462" type="line"/>
      <point x="162" y="1151" type="line"/>
      <point x="328" y="1151" type="line"/>
      <point x="209" y="633" type="line"/>
      <point x="453" y="633" type="line" smooth="yes"/>
      <point x="637" y="633"/>
      <point x="698" y="584"/>
      <point x="698" y="494" type="curve" smooth="yes"/>
      <point x="698" y="356"/>
      <point x="559" y="289"/>
      <point x="373" y="289" type="curve" smooth="yes"/>
      <point x="242" y="289"/>
      <point x="70" y="332"/>
      <point x="-10" y="381" type="curve"/>
      <point x="-10" y="66" type="line"/>
      <point x="70" y="12"/>
      <point x="223" y="-20"/>
    </contour>
  </outline>
</glyph>
<glyph name="uni01BD" format="2">
  <advance width="1198"/>
  <unicode hex="01BD"/>
  <anchor x="479" y="0" name="bottom"/>
  <anchor x="721" y="1133" name="top"/>
  <outline>
    <contour>
      <point x="422" y="-20" type="curve" smooth="yes"/>
      <point x="887" y="-20"/>
      <point x="1079" y="121"/>
      <point x="1079" y="393" type="curve" smooth="yes"/>
      <point x="1079" y="608"/>
      <point x="885" y="680"/>
      <point x="645" y="680" type="curve" smooth="yes"/>
      <point x="616" y="680" type="line"/>
      <point x="657" y="856" type="line"/>
      <point x="1149" y="856" type="line"/>
      <point x="1208" y="1130" type="line"/>
      <point x="172" y="1130" type="line"/>
      <point x="111" y="856" type="line"/>
      <point x="307" y="856" type="line"/>
      <point x="213" y="430" type="line"/>
      <point x="432" y="430" type="line" smooth="yes"/>
      <point x="614" y="430"/>
      <point x="682" y="416"/>
      <point x="682" y="360" type="curve" smooth="yes"/>
      <point x="682" y="299"/>
      <point x="594" y="264"/>
      <point x="375" y="264" type="curve" smooth="yes"/>
      <point x="258" y="264"/>
      <point x="82" y="307"/>
      <point x="0" y="350" type="curve"/>
      <point x="0" y="57" type="line"/>
      <point x="92" y="12"/>
      <point x="276" y="-20"/>
    </contour>
  </outline>
</glyph>
<glyph name="uni01BE" format="2">
  <advance width="1032"/>
  <unicode hex="01BE"/>
  <anchor x="395" y="0" name="bottom"/>
  <anchor x="686" y="1360" name="top"/>
  <outline>
    <contour>
      <point x="383" y="-20" type="curve" smooth="yes"/>
      <point x="770" y="-20"/>
      <point x="891" y="182"/>
      <point x="891" y="365" type="curve" smooth="yes"/>
      <point x="891" y="520"/>
      <point x="784" y="604"/>
      <point x="676" y="678" type="curve" smooth="yes"/>
      <point x="629" y="711"/>
      <point x="604" y="745"/>
      <point x="604" y="793" type="curve" smooth="yes"/>
      <point x="604" y="807"/>
      <point x="604" y="821"/>
      <point x="608" y="834" type="curve" smooth="yes"/>
      <point x="610" y="842" type="line"/>
      <point x="891" y="842" type="line"/>
      <point x="956" y="1133" type="line"/>
      <point x="668" y="1133" type="line"/>
      <point x="717" y="1360" type="line"/>
      <point x="459" y="1360" type="line"/>
      <point x="319" y="1120" type="line"/>
      <point x="104" y="1032" type="line"/>
      <point x="63" y="842" type="line"/>
      <point x="264" y="842" type="line"/>
      <point x="256" y="799" type="line" smooth="yes"/>
      <point x="252" y="780"/>
      <point x="252" y="756"/>
      <point x="252" y="735" type="curve" smooth="yes"/>
      <point x="252" y="594"/>
      <point x="332" y="528"/>
      <point x="397" y="473" type="curve" smooth="yes"/>
      <point x="451" y="428"/>
      <point x="498" y="389"/>
      <point x="498" y="344" type="curve" smooth="yes"/>
      <point x="498" y="291"/>
      <point x="463" y="264"/>
      <point x="344" y="264" type="curve" smooth="yes"/>
      <point x="227" y="264"/>
      <point x="115" y="309"/>
      <point x="31" y="354" type="curve"/>
      <point x="31" y="43" type="line"/>
      <point x="102" y="4"/>
      <point x="254" y="-20"/>
    </contour>
  </outline>
</glyph>
<glyph name="uni01BF" format="2">
  <advance width="1247"/>
  <unicode hex="01BF"/>
  <anchor x="399" y="-492" name="bottom"/>
  <anchor x="745" y="1133" name="top"/>
  <outline>
    <contour>
      <point x="-84" y="-492" type="line"/>
      <point x="303" y="-492" type="line"/>
      <point x="395" y="-49" type="line"/>
      <point x="942" y="12"/>
      <point x="1159" y="426"/>
      <point x="1159" y="752" type="curve" smooth="yes"/>
      <point x="1159" y="1016"/>
      <point x="1018" y="1151"/>
      <point x="840" y="1151" type="curve" smooth="yes"/>
      <point x="694" y="1151"/>
      <point x="631" y="1098"/>
      <point x="567" y="1006" type="curve"/>
      <point x="559" y="1006" type="line"/>
      <point x="571" y="1133" type="line"/>
      <point x="262" y="1133" type="line"/>
    </contour>
    <contour>
      <point x="467" y="268" type="curve"/>
      <point x="518" y="512" type="line" smooth="yes"/>
      <point x="573" y="768"/>
      <point x="610" y="844"/>
      <point x="684" y="844" type="curve" smooth="yes"/>
      <point x="741" y="844"/>
      <point x="764" y="791"/>
      <point x="764" y="698" type="curve" smooth="yes"/>
      <point x="764" y="481"/>
      <point x="631" y="301"/>
    </contour>
  </outline>
</glyph>
<glyph name="uni01E5" format="2">
  <advance width="1243"/>
  <unicode hex="01E5"/>
  <anchor x="397" y="-492" name="bottom"/>
  <anchor x="743" y="1133" name="top"/>
  <outline>
    <contour>
      <point x="391" y="-492" type="curve" smooth="yes"/>
      <point x="631" y="-492"/>
      <point x="836" y="-408"/>
      <point x="936" y="-156" type="curve"/>
      <point x="1104" y="-156" type="line"/>
      <point x="1139" y="8" type="line"/>
      <point x="983" y="8" type="line"/>
      <point x="1221" y="1133" type="line"/>
      <point x="911" y="1133" type="line"/>
      <point x="858" y="993" type="line"/>
      <point x="850" y="993" type="line"/>
      <point x="776" y="1106"/>
      <point x="715" y="1153"/>
      <point x="586" y="1153" type="curve" smooth="yes"/>
      <point x="256" y="1153"/>
      <point x="104" y="741"/>
      <point x="104" y="494" type="curve" smooth="yes"/>
      <point x="104" y="184"/>
      <point x="233" y="76"/>
      <point x="403" y="76" type="curve" smooth="yes"/>
      <point x="532" y="76"/>
      <point x="598" y="129"/>
      <point x="651" y="197" type="curve"/>
      <point x="659" y="197" type="line"/>
      <point x="649" y="164"/>
      <point x="639" y="125"/>
      <point x="633" y="94" type="curve" smooth="yes"/>
      <point x="614" y="8" type="line"/>
      <point x="358" y="8" type="line"/>
      <point x="324" y="-156" type="line"/>
      <point x="557" y="-156" type="line"/>
      <point x="520" y="-207"/>
      <point x="459" y="-238"/>
      <point x="373" y="-238" type="curve" smooth="yes"/>
      <point x="246" y="-238"/>
      <point x="129" y="-207"/>
      <point x="27" y="-152" type="curve"/>
      <point x="27" y="-428" type="line"/>
      <point x="123" y="-463"/>
      <point x="223" y="-492"/>
    </contour>
    <contour>
      <point x="586" y="377" type="curve" smooth="yes"/>
      <point x="528" y="377"/>
      <point x="500" y="428"/>
      <point x="500" y="520" type="curve" smooth="yes"/>
      <point x="500" y="674"/>
      <point x="584" y="842"/>
      <point x="680" y="842" type="curve" smooth="yes"/>
      <point x="735" y="842"/>
      <point x="760" y="784"/>
      <point x="760" y="698" type="curve" smooth="yes"/>
      <point x="760" y="567"/>
      <point x="705" y="377"/>
    </contour>
  </outline>
</glyph>
<glyph name="uni01F7" format="2">
  <advance width="1341"/>
  <unicode hex="01F7"/>
  <anchor x="446" y="-492" name="bottom"/>
  <anchor x="862" y="1462" name="top"/>
  <outline>
    <contour>
      <point x="-72" y="-492" type="line"/>
      <point x="324" y="-492" type="line"/>
      <point x="434" y="25" type="line"/>
      <point x="991" y="152"/>
      <point x="1372" y="569"/>
      <point x="1372" y="1071" type="curve" smooth="yes"/>
      <point x="1372" y="1327"/>
      <point x="1235" y="1481"/>
      <point x="1006" y="1481" type="curve" smooth="yes"/>
      <point x="840" y="1481"/>
      <point x="737" y="1389"/>
      <point x="668" y="1296" type="curve"/>
      <point x="659" y="1296" type="line"/>
      <point x="664" y="1460" type="line"/>
      <point x="344" y="1460" type="line"/>
    </contour>
    <contour>
      <point x="506" y="373" type="curve"/>
      <point x="621" y="911" type="line" smooth="yes"/>
      <point x="645" y="1028"/>
      <point x="694" y="1147"/>
      <point x="829" y="1147" type="curve" smooth="yes"/>
      <point x="922" y="1147"/>
      <point x="973" y="1085"/>
      <point x="973" y="987" type="curve" smooth="yes"/>
      <point x="973" y="725"/>
      <point x="778" y="453"/>
    </contour>
  </outline>
</glyph>
<glyph name="Aringacute" format="2">
  <advance width="1384"/>
  <unicode hex="01FA"/>
  <anchor x="571" y="0" name="bottom"/>
  <anchor x="989" y="1962" name="top"/>
  <outline>
    <contour>
      <point x="-121" y="0" type="line"/>
      <point x="285" y="0" type="line"/>
      <point x="410" y="274" type="line"/>
      <point x="850" y="274" type="line"/>
      <point x="868" y="0" type="line"/>
      <point x="1249" y="0" type="line"/>
      <point x="1087" y="1335" type="line"/>
      <point x="1120" y="1366"/>
      <point x="1147" y="1430"/>
      <point x="1147" y="1489" type="curve" smooth="yes"/>
      <point x="1147" y="1645"/>
      <point x="1028" y="1741"/>
      <point x="879" y="1741" type="curve" smooth="yes"/>
      <point x="721" y="1741"/>
      <point x="610" y="1645"/>
      <point x="610" y="1487" type="curve" smooth="yes"/>
      <point x="610" y="1454"/>
      <point x="614" y="1423"/>
      <point x="623" y="1397" type="curve"/>
    </contour>
    <contour>
      <point x="553" y="586" type="line"/>
      <point x="745" y="977" type="line" smooth="yes"/>
      <point x="756" y="997"/>
      <point x="778" y="1057"/>
      <point x="795" y="1102" type="curve"/>
      <point x="805" y="1102" type="line"/>
      <point x="805" y="1026"/>
      <point x="809" y="952"/>
      <point x="811" y="891" type="curve" smooth="yes"/>
      <point x="838" y="586" type="line"/>
    </contour>
    <contour>
      <point x="877" y="1403" type="curve" smooth="yes"/>
      <point x="821" y="1403"/>
      <point x="791" y="1438"/>
      <point x="791" y="1487" type="curve" smooth="yes"/>
      <point x="791" y="1538"/>
      <point x="831" y="1573"/>
      <point x="879" y="1573" type="curve" smooth="yes"/>
      <point x="926" y="1573"/>
      <point x="967" y="1538"/>
      <point x="967" y="1487" type="curve" smooth="yes"/>
      <point x="967" y="1438"/>
      <point x="924" y="1403"/>
    </contour>
    <contour>
      <point x="762" y="1792" type="line"/>
      <point x="1040" y="1792" type="line"/>
      <point x="1130" y="1821"/>
      <point x="1288" y="1876"/>
      <point x="1389" y="1954" type="curve"/>
      <point x="1389" y="1962" type="line"/>
      <point x="963" y="1962" type="line"/>
      <point x="913" y="1913"/>
      <point x="823" y="1845"/>
      <point x="762" y="1802" type="curve"/>
    </contour>
  </outline>
</glyph>
<glyph name="uni021D" format="2">
  <advance width="1128"/>
  <unicode hex="021D"/>
  <anchor x="375" y="-371" name="bottom"/>
  <anchor x="645" y="1133" name="top"/>
  <outline>
    <contour>
      <point x="-129" y="-492" type="line"/>
      <point x="403" y="-399"/>
      <point x="999" y="-264"/>
      <point x="999" y="207" type="curve" smooth="yes"/>
      <point x="999" y="324"/>
      <point x="944" y="406"/>
      <point x="866" y="463" type="curve"/>
      <point x="1006" y="545"/>
      <point x="1094" y="664"/>
      <point x="1094" y="825" type="curve" smooth="yes"/>
      <point x="1094" y="1012"/>
      <point x="950" y="1147"/>
      <point x="657" y="1147" type="curve" smooth="yes"/>
      <point x="492" y="1147"/>
      <point x="340" y="1114"/>
      <point x="176" y="1049" type="curve"/>
      <point x="225" y="770" type="line"/>
      <point x="328" y="809"/>
      <point x="453" y="838"/>
      <point x="573" y="838" type="curve" smooth="yes"/>
      <point x="670" y="838"/>
      <point x="721" y="813"/>
      <point x="721" y="754" type="curve" smooth="yes"/>
      <point x="721" y="657"/>
      <point x="647" y="608"/>
      <point x="287" y="526" type="curve"/>
      <point x="287" y="252" type="line"/>
      <point x="383" y="272"/>
      <point x="481" y="297"/>
      <point x="573" y="328" type="curve"/>
      <point x="594" y="299"/>
      <point x="606" y="256"/>
      <point x="606" y="207" type="curve" smooth="yes"/>
      <point x="606" y="18"/>
      <point x="453" y="-76"/>
      <point x="-59" y="-164" type="curve"/>
    </contour>
  </outline>
</glyph>
<glyph name="uni0220" format="2">
  <advance width="1550"/>
  <unicode hex="0220"/>
  <anchor x="551" y="-492" name="bottom"/>
  <anchor x="967" y="1462" name="top"/>
  <outline>
    <contour>
      <point x="758" y="-492" type="line"/>
      <point x="1151" y="-492" type="line"/>
      <point x="1430" y="831" type="line" smooth="yes"/>
      <point x="1448" y="930"/>
      <point x="1458" y="1010"/>
      <point x="1458" y="1085" type="curve" smooth="yes"/>
      <point x="1458" y="1319"/>
      <point x="1339" y="1485"/>
      <point x="1092" y="1485" type="curve" smooth="yes"/>
      <point x="897" y="1485"/>
      <point x="764" y="1389"/>
      <point x="653" y="1229" type="curve"/>
      <point x="645" y="1229" type="line"/>
      <point x="668" y="1462" type="line"/>
      <point x="340" y="1462" type="line"/>
      <point x="31" y="0" type="line"/>
      <point x="422" y="0" type="line"/>
      <point x="569" y="702" type="line" smooth="yes"/>
      <point x="625" y="967"/>
      <point x="756" y="1171"/>
      <point x="942" y="1171" type="curve" smooth="yes"/>
      <point x="1028" y="1171"/>
      <point x="1065" y="1114"/>
      <point x="1065" y="1028" type="curve" smooth="yes"/>
      <point x="1065" y="958"/>
      <point x="1051" y="883"/>
      <point x="1032" y="791" type="curve" smooth="yes"/>
    </contour>
  </outline>
</glyph>
<glyph name="uni0221" format="2">
  <advance width="1579"/>
  <unicode hex="0221"/>
  <anchor x="633" y="-178" name="bottom"/>
  <anchor x="1001" y="1556" name="top"/>
  <outline>
    <contour>
      <point x="1096" y="-178" type="line"/>
      <point x="1110" y="-117"/>
      <point x="1124" y="-59"/>
      <point x="1139" y="-10" type="curve"/>
      <point x="1186" y="-16"/>
      <point x="1235" y="-20"/>
      <point x="1290" y="-20" type="curve" smooth="yes"/>
      <point x="1559" y="-20"/>
      <point x="1690" y="125"/>
      <point x="1690" y="299" type="curve" smooth="yes"/>
      <point x="1690" y="408"/>
      <point x="1620" y="532"/>
      <point x="1448" y="532" type="curve" smooth="yes"/>
      <point x="1276" y="532"/>
      <point x="1163" y="459"/>
      <point x="1079" y="334" type="curve"/>
      <point x="1075" y="352"/>
      <point x="1073" y="371"/>
      <point x="1073" y="393" type="curve" smooth="yes"/>
      <point x="1073" y="432"/>
      <point x="1083" y="489"/>
      <point x="1094" y="537" type="curve" smooth="yes"/>
      <point x="1311" y="1556" type="line"/>
      <point x="920" y="1556" type="line"/>
      <point x="858" y="1255" type="line" smooth="yes"/>
      <point x="838" y="1161"/>
      <point x="831" y="1051"/>
      <point x="831" y="1001" type="curve"/>
      <point x="823" y="1001" type="line"/>
      <point x="762" y="1094"/>
      <point x="709" y="1153"/>
      <point x="586" y="1153" type="curve" smooth="yes"/>
      <point x="242" y="1153"/>
      <point x="84" y="688"/>
      <point x="84" y="412" type="curve" smooth="yes"/>
      <point x="84" y="90"/>
      <point x="231" y="-20"/>
      <point x="420" y="-20" type="curve" smooth="yes"/>
      <point x="573" y="-20"/>
      <point x="711" y="53"/>
      <point x="776" y="195" type="curve"/>
      <point x="782" y="195" type="line"/>
      <point x="819" y="133"/>
      <point x="874" y="82"/>
      <point x="950" y="45" type="curve"/>
      <point x="932" y="-12"/>
      <point x="915" y="-74"/>
      <point x="899" y="-139" type="curve"/>
    </contour>
    <contour>
      <point x="565" y="291" type="curve" smooth="yes"/>
      <point x="508" y="291"/>
      <point x="479" y="342"/>
      <point x="479" y="434" type="curve" smooth="yes"/>
      <point x="479" y="629"/>
      <point x="573" y="842"/>
      <point x="680" y="842" type="curve" smooth="yes"/>
      <point x="735" y="842"/>
      <point x="760" y="784"/>
      <point x="760" y="698" type="curve" smooth="yes"/>
      <point x="760" y="532"/>
      <point x="684" y="291"/>
    </contour>
    <contour>
      <point x="1317" y="207" type="curve" smooth="yes"/>
      <point x="1282" y="207"/>
      <point x="1253" y="209"/>
      <point x="1227" y="213" type="curve"/>
      <point x="1268" y="281"/>
      <point x="1315" y="313"/>
      <point x="1378" y="313" type="curve" smooth="yes"/>
      <point x="1415" y="313"/>
      <point x="1438" y="295"/>
      <point x="1438" y="268" type="curve" smooth="yes"/>
      <point x="1438" y="231"/>
      <point x="1405" y="207"/>
    </contour>
  </outline>
</glyph>
<glyph name="uni0224" format="2">
  <advance width="1104"/>
  <unicode hex="0224"/>
  <anchor x="324" y="-508" name="bottom"/>
  <anchor x="743" y="1462" name="top"/>
  <outline>
    <contour>
      <point x="551" y="-508" type="curve" smooth="yes"/>
      <point x="762" y="-508"/>
      <point x="858" y="-391"/>
      <point x="918" y="-111" type="curve" smooth="yes"/>
      <point x="1010" y="319" type="line"/>
      <point x="467" y="319" type="line"/>
      <point x="1167" y="1217" type="line"/>
      <point x="1219" y="1462" type="line"/>
      <point x="233" y="1462" type="line"/>
      <point x="166" y="1143" type="line"/>
      <point x="645" y="1143" type="line"/>
      <point x="-45" y="242" type="line"/>
      <point x="-92" y="0" type="line"/>
      <point x="623" y="0" type="line"/>
      <point x="594" y="-129" type="line" smooth="yes"/>
      <point x="575" y="-205"/>
      <point x="541" y="-248"/>
      <point x="471" y="-248" type="curve" smooth="yes"/>
      <point x="438" y="-248"/>
      <point x="391" y="-240"/>
      <point x="371" y="-229" type="curve"/>
      <point x="369" y="-479" type="line"/>
      <point x="422" y="-498"/>
      <point x="479" y="-508"/>
    </contour>
  </outline>
</glyph>
<glyph name="uni0235" format="2">
  <advance width="1665"/>
  <unicode hex="0235"/>
  <anchor x="713" y="0" name="bottom"/>
  <anchor x="954" y="1133" name="top"/>
  <outline>
    <contour>
      <point x="944" y="-164" type="line"/>
      <point x="965" y="-98"/>
      <point x="983" y="-39"/>
      <point x="1012" y="0" type="curve"/>
      <point x="1061" y="-10"/>
      <point x="1139" y="-20"/>
      <point x="1214" y="-20" type="curve" smooth="yes"/>
      <point x="1483" y="-20"/>
      <point x="1634" y="125"/>
      <point x="1634" y="299" type="curve" smooth="yes"/>
      <point x="1634" y="408"/>
      <point x="1563" y="532"/>
      <point x="1391" y="532" type="curve" smooth="yes"/>
      <point x="1270" y="532"/>
      <point x="1176" y="489"/>
      <point x="1114" y="436" type="curve"/>
      <point x="1151" y="602" type="line" smooth="yes"/>
      <point x="1167" y="676"/>
      <point x="1178" y="756"/>
      <point x="1178" y="831" type="curve" smooth="yes"/>
      <point x="1178" y="1006"/>
      <point x="1090" y="1153"/>
      <point x="879" y="1153" type="curve" smooth="yes"/>
      <point x="735" y="1153"/>
      <point x="641" y="1102"/>
      <point x="567" y="975" type="curve"/>
      <point x="559" y="975" type="line"/>
      <point x="571" y="1133" type="line"/>
      <point x="262" y="1133" type="line"/>
      <point x="23" y="0" type="line"/>
      <point x="410" y="0" type="line"/>
      <point x="526" y="553" type="line" smooth="yes"/>
      <point x="567" y="754"/>
      <point x="635" y="846"/>
      <point x="711" y="846" type="curve" smooth="yes"/>
      <point x="752" y="846"/>
      <point x="786" y="817"/>
      <point x="786" y="760" type="curve" smooth="yes"/>
      <point x="786" y="713"/>
      <point x="774" y="653"/>
      <point x="768" y="618" type="curve" smooth="yes"/>
      <point x="735" y="457" type="line" smooth="yes"/>
      <point x="700" y="289"/>
      <point x="725" y="176"/>
      <point x="780" y="113" type="curve"/>
      <point x="748" y="53"/>
      <point x="717" y="-4"/>
      <point x="694" y="-94" type="curve"/>
    </contour>
    <contour>
      <point x="1262" y="211" type="curve" smooth="yes"/>
      <point x="1229" y="211"/>
      <point x="1198" y="217"/>
      <point x="1167" y="236" type="curve"/>
      <point x="1202" y="279"/>
      <point x="1251" y="315"/>
      <point x="1319" y="315" type="curve" smooth="yes"/>
      <point x="1364" y="315"/>
      <point x="1380" y="297"/>
      <point x="1380" y="270" type="curve" smooth="yes"/>
      <point x="1380" y="233"/>
      <point x="1350" y="211"/>
    </contour>
  </outline>
</glyph>
<glyph name="uni0236" format="2">
  <advance width="1024"/>
  <unicode hex="0236"/>
  <anchor x="391" y="0" name="bottom"/>
  <anchor x="682" y="1360" name="top"/>
  <outline>
    <contour>
      <point x="346" y="-164" type="line"/>
      <point x="367" y="-98"/>
      <point x="385" y="-39"/>
      <point x="414" y="0" type="curve"/>
      <point x="463" y="-10"/>
      <point x="541" y="-20"/>
      <point x="616" y="-20" type="curve" smooth="yes"/>
      <point x="885" y="-20"/>
      <point x="1036" y="125"/>
      <point x="1036" y="299" type="curve" smooth="yes"/>
      <point x="1036" y="408"/>
      <point x="965" y="532"/>
      <point x="793" y="532" type="curve" smooth="yes"/>
      <point x="672" y="532"/>
      <point x="578" y="489"/>
      <point x="516" y="436" type="curve"/>
      <point x="604" y="842" type="line"/>
      <point x="893" y="842" type="line"/>
      <point x="956" y="1133" type="line"/>
      <point x="668" y="1133" type="line"/>
      <point x="717" y="1360" type="line"/>
      <point x="459" y="1360" type="line"/>
      <point x="322" y="1120" type="line"/>
      <point x="104" y="1032" type="line"/>
      <point x="63" y="842" type="line"/>
      <point x="217" y="842" type="line"/>
      <point x="137" y="457" type="line" smooth="yes"/>
      <point x="102" y="289"/>
      <point x="127" y="176"/>
      <point x="182" y="113" type="curve"/>
      <point x="150" y="53"/>
      <point x="119" y="-4"/>
      <point x="96" y="-94" type="curve"/>
    </contour>
    <contour>
      <point x="664" y="211" type="curve" smooth="yes"/>
      <point x="631" y="211"/>
      <point x="600" y="217"/>
      <point x="569" y="236" type="curve"/>
      <point x="604" y="279"/>
      <point x="653" y="315"/>
      <point x="721" y="315" type="curve" smooth="yes"/>
      <point x="766" y="315"/>
      <point x="782" y="297"/>
      <point x="782" y="270" type="curve" smooth="yes"/>
      <point x="782" y="233"/>
      <point x="752" y="211"/>
    </contour>
  </outline>
</glyph>
<glyph name="uni023D" format="2">
  <advance width="1079"/>
  <unicode hex="023D"/>
  <anchor x="420" y="0" name="bottom"/>
  <anchor x="731" y="1462" name="top"/>
  <outline>
    <contour>
      <point x="33" y="0" type="line"/>
      <point x="901" y="0" type="line"/>
      <point x="969" y="319" type="line"/>
      <point x="492" y="319" type="line"/>
      <point x="541" y="549" type="line"/>
      <point x="700" y="549" type="line"/>
      <point x="772" y="864" type="line"/>
      <point x="606" y="864" type="line"/>
      <point x="733" y="1462" type="line"/>
      <point x="342" y="1462" type="line"/>
      <point x="215" y="864" type="line"/>
      <point x="106" y="864" type="line"/>
      <point x="35" y="549" type="line"/>
      <point x="150" y="549" type="line"/>
    </contour>
  </outline>
</glyph>
<glyph name="uni0240" format="2">
  <advance width="993"/>
  <unicode hex="0240"/>
  <anchor x="272" y="-492" name="bottom"/>
  <anchor x="618" y="1133" name="top"/>
  <outline>
    <contour>
      <point x="641" y="-492" type="curve" smooth="yes"/>
      <point x="713" y="-492"/>
      <point x="778" y="-481"/>
      <point x="823" y="-463" type="curve"/>
      <point x="821" y="-184" type="line"/>
      <point x="791" y="-197"/>
      <point x="764" y="-203"/>
      <point x="737" y="-203" type="curve" smooth="yes"/>
      <point x="647" y="-203"/>
      <point x="631" y="-135"/>
      <point x="559" y="0" type="curve" smooth="yes"/>
      <point x="502" y="109"/>
      <point x="459" y="158"/>
      <point x="385" y="184" type="curve"/>
      <point x="981" y="891" type="line"/>
      <point x="1034" y="1133" type="line"/>
      <point x="223" y="1133" type="line"/>
      <point x="156" y="834" type="line"/>
      <point x="504" y="834" type="line"/>
      <point x="2" y="221" type="line"/>
      <point x="-41" y="0" type="line"/>
      <point x="-2" y="0" type="line"/>
      <point x="162" y="0"/>
      <point x="199" y="-61"/>
      <point x="250" y="-180" type="curve" smooth="yes"/>
      <point x="340" y="-389"/>
      <point x="428" y="-492"/>
    </contour>
  </outline>
</glyph>
<glyph name="uni0242" format="2">
  <advance width="1036"/>
  <unicode hex="0242"/>
  <anchor x="397" y="0" name="bottom"/>
  <anchor x="639" y="1133" name="top"/>
  <outline>
    <contour>
      <point x="160" y="0" type="line"/>
      <point x="549" y="0" type="line"/>
      <point x="586" y="166" type="line"/>
      <point x="891" y="313"/>
      <point x="1014" y="518"/>
      <point x="1014" y="776" type="curve" smooth="yes"/>
      <point x="1014" y="987"/>
      <point x="881" y="1155"/>
      <point x="578" y="1155" type="curve" smooth="yes"/>
      <point x="377" y="1155"/>
      <point x="242" y="1100"/>
      <point x="92" y="1016" type="curve"/>
      <point x="207" y="733" type="line"/>
      <point x="311" y="791"/>
      <point x="422" y="834"/>
      <point x="498" y="834" type="curve" smooth="yes"/>
      <point x="573" y="834"/>
      <point x="627" y="801"/>
      <point x="627" y="700" type="curve" smooth="yes"/>
      <point x="627" y="545"/>
      <point x="430" y="414"/>
      <point x="233" y="340" type="curve"/>
    </contour>
  </outline>
</glyph>
<glyph name="uni0244" format="2">
  <advance width="1436"/>
  <unicode hex="0244"/>
  <anchor x="598" y="0" name="bottom"/>
  <anchor x="909" y="1462" name="top"/>
  <outline>
    <contour>
      <point x="575" y="-20" type="curve" smooth="yes"/>
      <point x="975" y="-20"/>
      <point x="1176" y="174"/>
      <point x="1251" y="530" type="curve" smooth="yes"/>
      <point x="1278" y="651" type="line"/>
      <point x="1456" y="651" type="line"/>
      <point x="1524" y="958" type="line"/>
      <point x="1343" y="958" type="line"/>
      <point x="1450" y="1462" type="line"/>
      <point x="1059" y="1462" type="line"/>
      <point x="952" y="958" type="line"/>
      <point x="621" y="958" type="line"/>
      <point x="727" y="1462" type="line"/>
      <point x="336" y="1462" type="line"/>
      <point x="227" y="958" type="line"/>
      <point x="53" y="958" type="line"/>
      <point x="-14" y="651" type="line"/>
      <point x="162" y="651" type="line"/>
      <point x="137" y="539" type="line" smooth="yes"/>
      <point x="129" y="496"/>
      <point x="125" y="451"/>
      <point x="125" y="410" type="curve" smooth="yes"/>
      <point x="125" y="170"/>
      <point x="291" y="-20"/>
    </contour>
    <contour>
      <point x="639" y="307" type="curve" smooth="yes"/>
      <point x="555" y="307"/>
      <point x="518" y="354"/>
      <point x="518" y="434" type="curve" smooth="yes"/>
      <point x="518" y="469"/>
      <point x="524" y="510"/>
      <point x="532" y="549" type="curve" smooth="yes"/>
      <point x="555" y="651" type="line"/>
      <point x="887" y="651" type="line"/>
      <point x="868" y="569" type="line" smooth="yes"/>
      <point x="827" y="379"/>
      <point x="756" y="307"/>
    </contour>
  </outline>
</glyph>
<glyph name="uni0247" format="2">
  <advance width="1186"/>
  <unicode hex="0247"/>
  <anchor x="383" y="-426" name="bottom"/>
  <anchor x="797" y="1522" name="top"/>
  <outline>
    <contour>
      <point x="190" y="-426" type="line"/>
      <point x="352" y="-426" type="line"/>
      <point x="504" y="-20" type="line"/>
      <point x="514" y="-20"/>
      <point x="522" y="-20"/>
      <point x="532" y="-20" type="curve" smooth="yes"/>
      <point x="729" y="-20"/>
      <point x="844" y="20"/>
      <point x="965" y="82" type="curve"/>
      <point x="965" y="356" type="line"/>
      <point x="848" y="295"/>
      <point x="752" y="258"/>
      <point x="637" y="258" type="curve" smooth="yes"/>
      <point x="627" y="258"/>
      <point x="616" y="258"/>
      <point x="608" y="258" type="curve"/>
      <point x="676" y="444" type="line"/>
      <point x="997" y="477"/>
      <point x="1141" y="618"/>
      <point x="1141" y="838" type="curve"/>
      <point x="1141" y="973"/>
      <point x="1063" y="1075"/>
      <point x="928" y="1122" type="curve"/>
      <point x="1077" y="1522" type="line"/>
      <point x="920" y="1522" type="line"/>
      <point x="780" y="1151" type="line"/>
      <point x="766" y="1151"/>
      <point x="750" y="1153"/>
      <point x="733" y="1153" type="curve" smooth="yes"/>
      <point x="293" y="1153"/>
      <point x="84" y="799"/>
      <point x="84" y="428" type="curve" smooth="yes"/>
      <point x="84" y="215"/>
      <point x="178" y="66"/>
      <point x="352" y="6" type="curve"/>
    </contour>
    <contour>
      <point x="469" y="317" type="line"/>
      <point x="449" y="344"/>
      <point x="438" y="379"/>
      <point x="438" y="414" type="curve"/>
      <point x="438" y="422"/>
      <point x="438" y="430"/>
      <point x="438" y="438" type="curve"/>
      <point x="514" y="438" type="line"/>
    </contour>
    <contour>
      <point x="473" y="633" type="line"/>
      <point x="494" y="745"/>
      <point x="578" y="872"/>
      <point x="690" y="909" type="curve"/>
      <point x="588" y="635" type="line"/>
      <point x="563" y="633"/>
      <point x="539" y="633"/>
      <point x="512" y="633" type="curve" smooth="yes"/>
    </contour>
    <contour>
      <point x="762" y="672" type="curve"/>
      <point x="846" y="899" type="line"/>
      <point x="874" y="881"/>
      <point x="887" y="852"/>
      <point x="887" y="821" type="curve" smooth="yes"/>
      <point x="887" y="768"/>
      <point x="852" y="711"/>
    </contour>
  </outline>
</glyph>
<glyph name="uni024E" format="2">
  <advance width="1237"/>
  <unicode hex="024E"/>
  <anchor x="498" y="0" name="bottom"/>
  <anchor x="809" y="1462" name="top"/>
  <outline>
    <contour>
      <point x="281" y="0" type="line"/>
      <point x="672" y="0" type="line"/>
      <point x="793" y="567" type="line"/>
      <point x="1147" y="1085" type="line"/>
      <point x="1352" y="1085" type="line"/>
      <point x="1401" y="1307" type="line"/>
      <point x="1298" y="1307" type="line"/>
      <point x="1405" y="1462" type="line"/>
      <point x="969" y="1462" type="line"/>
      <point x="879" y="1307" type="line"/>
      <point x="594" y="1307" type="line"/>
      <point x="567" y="1462" type="line"/>
      <point x="164" y="1462" type="line"/>
      <point x="205" y="1307" type="line"/>
      <point x="121" y="1307" type="line"/>
      <point x="72" y="1085" type="line"/>
      <point x="264" y="1085" type="line"/>
      <point x="401" y="567" type="line"/>
    </contour>
    <contour>
      <point x="657" y="920" type="line"/>
      <point x="631" y="1085" type="line"/>
      <point x="754" y="1085" type="line"/>
    </contour>
  </outline>
</glyph>
<glyph name="uni0250" format="2">
  <advance width="1229"/>
  <unicode hex="0250"/>
  <anchor x="494" y="0" name="bottom"/>
  <anchor x="735" y="1133" name="top"/>
  <outline>
    <contour>
      <point x="522" y="-20" type="curve" smooth="yes"/>
      <point x="729" y="-20"/>
      <point x="858" y="14"/>
      <point x="1022" y="86" type="curve"/>
      <point x="940" y="330" type="line"/>
      <point x="803" y="283"/>
      <point x="713" y="250"/>
      <point x="600" y="250" type="curve" smooth="yes"/>
      <point x="537" y="250"/>
      <point x="498" y="279"/>
      <point x="498" y="336" type="curve" smooth="yes"/>
      <point x="498" y="352"/>
      <point x="500" y="371"/>
      <point x="504" y="393" type="curve" smooth="yes"/>
      <point x="508" y="414" type="line"/>
      <point x="676" y="420" type="line" smooth="yes"/>
      <point x="1004" y="430"/>
      <point x="1200" y="567"/>
      <point x="1200" y="850" type="curve" smooth="yes"/>
      <point x="1200" y="1022"/>
      <point x="1116" y="1155"/>
      <point x="924" y="1155" type="curve" smooth="yes"/>
      <point x="766" y="1155"/>
      <point x="686" y="1102"/>
      <point x="569" y="981" type="curve"/>
      <point x="563" y="981" type="line"/>
      <point x="537" y="1130" type="line"/>
      <point x="270" y="1130" type="line"/>
      <point x="133" y="487" type="line" smooth="yes"/>
      <point x="125" y="446"/>
      <point x="113" y="356"/>
      <point x="113" y="322" type="curve" smooth="yes"/>
      <point x="113" y="80"/>
      <point x="264" y="-20"/>
    </contour>
    <contour>
      <point x="549" y="625" type="line"/>
      <point x="567" y="713" type="line" smooth="yes"/>
      <point x="586" y="809"/>
      <point x="641" y="881"/>
      <point x="717" y="881" type="curve" smooth="yes"/>
      <point x="762" y="881"/>
      <point x="797" y="846"/>
      <point x="797" y="795" type="curve" smooth="yes"/>
      <point x="797" y="735"/>
      <point x="748" y="637"/>
      <point x="614" y="629" type="curve" smooth="yes"/>
    </contour>
  </outline>
</glyph>
<glyph name="uni0251" format="2">
  <advance width="1311"/>
  <unicode hex="0251"/>
  <anchor x="502" y="0" name="bottom"/>
  <anchor x="743" y="1133" name="top"/>
  <anchor x="1323" y="1133" name="topright"/>
  <outline>
    <contour>
      <point x="406" y="-20" type="curve" smooth="yes"/>
      <point x="551" y="-20"/>
      <point x="633" y="45"/>
      <point x="698" y="137" type="curve"/>
      <point x="713" y="137" type="line"/>
      <point x="760" y="25"/>
      <point x="856" y="-20"/>
      <point x="991" y="-20" type="curve" smooth="yes"/>
      <point x="1077" y="-20"/>
      <point x="1151" y="-4"/>
      <point x="1190" y="12" type="curve"/>
      <point x="1190" y="301" type="line"/>
      <point x="1178" y="297"/>
      <point x="1147" y="289"/>
      <point x="1124" y="289" type="curve" smooth="yes"/>
      <point x="1085" y="289"/>
      <point x="1061" y="307"/>
      <point x="1061" y="350" type="curve" smooth="yes"/>
      <point x="1061" y="377"/>
      <point x="1069" y="418"/>
      <point x="1075" y="446" type="curve" smooth="yes"/>
      <point x="1221" y="1133" type="line"/>
      <point x="911" y="1133" type="line"/>
      <point x="858" y="993" type="line"/>
      <point x="850" y="993" type="line"/>
      <point x="795" y="1090"/>
      <point x="717" y="1153"/>
      <point x="588" y="1153" type="curve" smooth="yes"/>
      <point x="244" y="1153"/>
      <point x="84" y="688"/>
      <point x="84" y="412" type="curve" smooth="yes"/>
      <point x="84" y="90"/>
      <point x="231" y="-20"/>
    </contour>
    <contour>
      <point x="565" y="291" type="curve" smooth="yes"/>
      <point x="508" y="291"/>
      <point x="479" y="342"/>
      <point x="479" y="434" type="curve" smooth="yes"/>
      <point x="479" y="629"/>
      <point x="571" y="842"/>
      <point x="678" y="842" type="curve" smooth="yes"/>
      <point x="733" y="842"/>
      <point x="760" y="784"/>
      <point x="760" y="698" type="curve" smooth="yes"/>
      <point x="760" y="657"/>
      <point x="756" y="614"/>
      <point x="748" y="573" type="curve" smooth="yes"/>
      <point x="719" y="428"/>
      <point x="653" y="291"/>
    </contour>
  </outline>
</glyph>
<glyph name="uni0253" format="2">
  <advance width="1243"/>
  <unicode hex="0253"/>
  <anchor x="502" y="0" name="bottom"/>
  <anchor x="838" y="1573" name="top"/>
  <outline>
    <contour>
      <point x="657" y="-20" type="curve" smooth="yes"/>
      <point x="1001" y="-20"/>
      <point x="1159" y="444"/>
      <point x="1159" y="721" type="curve" smooth="yes"/>
      <point x="1159" y="1042"/>
      <point x="1012" y="1153"/>
      <point x="838" y="1153" type="curve"/>
      <point x="711" y="1153"/>
      <point x="662" y="1090"/>
      <point x="608" y="1024" type="curve"/>
      <point x="600" y="1024" type="line"/>
      <point x="625" y="1081"/>
      <point x="635" y="1114"/>
      <point x="649" y="1159" type="curve" smooth="yes"/>
      <point x="653" y="1174" type="line" smooth="yes"/>
      <point x="674" y="1249"/>
      <point x="713" y="1280"/>
      <point x="784" y="1280" type="curve" smooth="yes"/>
      <point x="831" y="1280"/>
      <point x="864" y="1266"/>
      <point x="883" y="1260" type="curve"/>
      <point x="883" y="1540" type="line"/>
      <point x="856" y="1552"/>
      <point x="795" y="1573"/>
      <point x="705" y="1573" type="curve" smooth="yes"/>
      <point x="494" y="1573"/>
      <point x="334" y="1468"/>
      <point x="289" y="1257" type="curve" smooth="yes"/>
      <point x="23" y="0" type="line"/>
      <point x="330" y="0" type="line"/>
      <point x="379" y="125" type="line"/>
      <point x="387" y="125" type="line"/>
      <point x="467" y="20"/>
      <point x="543" y="-20"/>
    </contour>
    <contour>
      <point x="563" y="291" type="curve"/>
      <point x="510" y="291"/>
      <point x="485" y="348"/>
      <point x="485" y="434" type="curve" smooth="yes"/>
      <point x="485" y="602"/>
      <point x="557" y="842"/>
      <point x="678" y="842" type="curve" smooth="yes"/>
      <point x="735" y="842"/>
      <point x="764" y="791"/>
      <point x="764" y="698" type="curve" smooth="yes"/>
      <point x="764" y="504"/>
      <point x="670" y="291"/>
    </contour>
  </outline>
</glyph>
<glyph name="uni0254" format="2">
  <advance width="1032"/>
  <unicode hex="0254"/>
  <anchor x="395" y="0" name="bottom"/>
  <anchor x="637" y="1133" name="top"/>
  <outline>
    <contour>
      <point x="342" y="-20" type="curve" smooth="yes"/>
      <point x="711" y="-20"/>
      <point x="948" y="291"/>
      <point x="948" y="690" type="curve" smooth="yes"/>
      <point x="948" y="1020"/>
      <point x="756" y="1153"/>
      <point x="526" y="1153" type="curve" smooth="yes"/>
      <point x="369" y="1153"/>
      <point x="258" y="1120"/>
      <point x="152" y="1063" type="curve"/>
      <point x="152" y="756" type="line"/>
      <point x="252" y="809"/>
      <point x="338" y="842"/>
      <point x="434" y="842" type="curve" smooth="yes"/>
      <point x="512" y="842"/>
      <point x="559" y="799"/>
      <point x="559" y="666" type="curve" smooth="yes"/>
      <point x="559" y="518"/>
      <point x="483" y="287"/>
      <point x="324" y="287" type="curve" smooth="yes"/>
      <point x="250" y="287"/>
      <point x="166" y="315"/>
      <point x="98" y="346" type="curve"/>
      <point x="-25" y="59" type="line"/>
      <point x="90" y="6"/>
      <point x="201" y="-20"/>
    </contour>
  </outline>
</glyph>
<glyph name="uni0255" format="2">
  <advance width="1032"/>
  <unicode hex="0255"/>
  <anchor x="395" y="0" name="bottom"/>
  <anchor x="637" y="1133" name="top"/>
  <outline>
    <contour>
      <point x="145" y="-113" type="line"/>
      <point x="190" y="-43"/>
      <point x="211" y="-6"/>
      <point x="256" y="57" type="curve"/>
      <point x="313" y="18"/>
      <point x="420" y="-20"/>
      <point x="555" y="-20" type="curve" smooth="yes"/>
      <point x="788" y="-20"/>
      <point x="1026" y="94"/>
      <point x="1026" y="367" type="curve" smooth="yes"/>
      <point x="1026" y="520"/>
      <point x="922" y="623"/>
      <point x="748" y="623" type="curve" smooth="yes"/>
      <point x="625" y="623"/>
      <point x="537" y="586"/>
      <point x="459" y="530" type="curve"/>
      <point x="461" y="545"/>
      <point x="463" y="557"/>
      <point x="465" y="571" type="curve" smooth="yes"/>
      <point x="494" y="752"/>
      <point x="590" y="846"/>
      <point x="707" y="846" type="curve" smooth="yes"/>
      <point x="797" y="846"/>
      <point x="850" y="821"/>
      <point x="934" y="786" type="curve"/>
      <point x="1057" y="1073" type="line"/>
      <point x="954" y="1122"/>
      <point x="848" y="1151"/>
      <point x="690" y="1151" type="curve" smooth="yes"/>
      <point x="326" y="1151"/>
      <point x="84" y="860"/>
      <point x="84" y="438" type="curve" smooth="yes"/>
      <point x="84" y="344"/>
      <point x="111" y="236"/>
      <point x="145" y="174" type="curve"/>
      <point x="90" y="102"/>
      <point x="51" y="41"/>
      <point x="4" y="-31" type="curve"/>
    </contour>
    <contour>
      <point x="629" y="244" type="curve" smooth="yes"/>
      <point x="547" y="244"/>
      <point x="496" y="276"/>
      <point x="473" y="338" type="curve"/>
      <point x="506" y="362"/>
      <point x="586" y="422"/>
      <point x="696" y="422" type="curve" smooth="yes"/>
      <point x="764" y="422"/>
      <point x="791" y="391"/>
      <point x="791" y="354" type="curve" smooth="yes"/>
      <point x="791" y="281"/>
      <point x="713" y="244"/>
    </contour>
  </outline>
</glyph>
<glyph name="uni0256" format="2">
  <advance width="1237"/>
  <unicode hex="0256"/>
  <anchor x="393" y="-492" name="bottom"/>
  <anchor x="829" y="1556" name="top"/>
  <anchor x="1401" y="1556" name="topright"/>
  <outline>
    <contour>
      <point x="924" y="-492" type="curve" smooth="yes"/>
      <point x="993" y="-492"/>
      <point x="1077" y="-481"/>
      <point x="1133" y="-463" type="curve"/>
      <point x="1133" y="-176" type="line"/>
      <point x="1090" y="-190"/>
      <point x="1069" y="-193"/>
      <point x="1038" y="-193" type="curve" smooth="yes"/>
      <point x="981" y="-193"/>
      <point x="961" y="-168"/>
      <point x="961" y="-121" type="curve" smooth="yes"/>
      <point x="961" y="-78"/>
      <point x="979" y="-12"/>
      <point x="989" y="37" type="curve" smooth="yes"/>
      <point x="1311" y="1556" type="line"/>
      <point x="920" y="1556" type="line"/>
      <point x="858" y="1255" type="line" smooth="yes"/>
      <point x="838" y="1161"/>
      <point x="831" y="1026"/>
      <point x="831" y="1001" type="curve"/>
      <point x="823" y="1001" type="line"/>
      <point x="762" y="1094"/>
      <point x="709" y="1153"/>
      <point x="586" y="1153" type="curve" smooth="yes"/>
      <point x="242" y="1153"/>
      <point x="84" y="688"/>
      <point x="84" y="412" type="curve" smooth="yes"/>
      <point x="84" y="90"/>
      <point x="231" y="-20"/>
      <point x="406" y="-20" type="curve" smooth="yes"/>
      <point x="526" y="-20"/>
      <point x="586" y="33"/>
      <point x="633" y="98" type="curve"/>
      <point x="641" y="98" type="line"/>
      <point x="631" y="74"/>
      <point x="610" y="0"/>
      <point x="600" y="-41" type="curve" smooth="yes"/>
      <point x="592" y="-78" type="line" smooth="yes"/>
      <point x="582" y="-121"/>
      <point x="573" y="-174"/>
      <point x="573" y="-217" type="curve" smooth="yes"/>
      <point x="573" y="-393"/>
      <point x="696" y="-492"/>
    </contour>
    <contour>
      <point x="565" y="291" type="curve" smooth="yes"/>
      <point x="508" y="291"/>
      <point x="479" y="342"/>
      <point x="479" y="434" type="curve" smooth="yes"/>
      <point x="479" y="629"/>
      <point x="573" y="842"/>
      <point x="680" y="842" type="curve" smooth="yes"/>
      <point x="735" y="842"/>
      <point x="760" y="784"/>
      <point x="760" y="698" type="curve" smooth="yes"/>
      <point x="760" y="532"/>
      <point x="684" y="291"/>
    </contour>
  </outline>
</glyph>
<glyph name="uni0258" format="2">
  <advance width="1171"/>
  <unicode hex="0258"/>
  <anchor x="465" y="0" name="bottom"/>
  <anchor x="707" y="1133" name="top"/>
  <outline>
    <contour>
      <point x="424" y="-20" type="curve" smooth="yes"/>
      <point x="889" y="-20"/>
      <point x="1081" y="338"/>
      <point x="1081" y="688" type="curve" smooth="yes"/>
      <point x="1081" y="961"/>
      <point x="924" y="1151"/>
      <point x="602" y="1151" type="curve" smooth="yes"/>
      <point x="303" y="1151"/>
      <point x="100" y="1004"/>
      <point x="100" y="741" type="curve" smooth="yes"/>
      <point x="100" y="547"/>
      <point x="223" y="426"/>
      <point x="555" y="426" type="curve" smooth="yes"/>
      <point x="641" y="426" type="line"/>
      <point x="608" y="297"/>
      <point x="492" y="254"/>
      <point x="375" y="254" type="curve" smooth="yes"/>
      <point x="238" y="254"/>
      <point x="141" y="291"/>
      <point x="47" y="340" type="curve"/>
      <point x="47" y="70" type="line"/>
      <point x="137" y="16"/>
      <point x="250" y="-20"/>
    </contour>
    <contour>
      <point x="694" y="662" type="curve"/>
      <point x="641" y="662" type="line" smooth="yes"/>
      <point x="498" y="662"/>
      <point x="467" y="721"/>
      <point x="467" y="776" type="curve" smooth="yes"/>
      <point x="467" y="856"/>
      <point x="516" y="895"/>
      <point x="578" y="895" type="curve" smooth="yes"/>
      <point x="662" y="895"/>
      <point x="696" y="809"/>
      <point x="696" y="696" type="curve" smooth="yes"/>
      <point x="696" y="682"/>
      <point x="696" y="670"/>
    </contour>
  </outline>
</glyph>
<glyph name="eopenreversedhook" format="2">
  <advance width="1642"/>
  <unicode hex="025D"/>
  <anchor x="459" y="-20" name="bottom"/>
  <anchor x="666" y="1153" name="top"/>
  <outline>
    <contour>
      <point x="1409" y="514" type="curve" smooth="yes"/>
      <point x="1513" y="514"/>
      <point x="1595" y="553"/>
      <point x="1665" y="602" type="curve"/>
      <point x="1573" y="797" type="line"/>
      <point x="1548" y="774"/>
      <point x="1513" y="754"/>
      <point x="1468" y="754" type="curve" smooth="yes"/>
      <point x="1407" y="754"/>
      <point x="1378" y="805"/>
      <point x="1386" y="936" type="curve" smooth="yes"/>
      <point x="1393" y="1030" type="line"/>
      <point x="877" y="899" type="line"/>
      <point x="885" y="676" type="line"/>
      <point x="1155" y="743" type="line"/>
      <point x="1178" y="588"/>
      <point x="1278" y="514"/>
    </contour>
    <component base="afii10073"/>
  </outline>
</glyph>
<glyph name="uni025E" format="2">
  <advance width="1317"/>
  <unicode hex="025E"/>
  <anchor x="539" y="0" name="bottom"/>
  <anchor x="780" y="1133" name="top"/>
  <outline>
    <contour>
      <point x="639" y="-23" type="curve" smooth="yes"/>
      <point x="1006" y="-23"/>
      <point x="1176" y="133"/>
      <point x="1176" y="344" type="curve" smooth="yes"/>
      <point x="1176" y="471"/>
      <point x="1116" y="545"/>
      <point x="989" y="580" type="curve"/>
      <point x="989" y="588" type="line"/>
      <point x="1114" y="623"/>
      <point x="1241" y="702"/>
      <point x="1241" y="860" type="curve" smooth="yes"/>
      <point x="1241" y="1049"/>
      <point x="1094" y="1151"/>
      <point x="766" y="1151" type="curve" smooth="yes"/>
      <point x="307" y="1151"/>
      <point x="90" y="838"/>
      <point x="90" y="440" type="curve" smooth="yes"/>
      <point x="90" y="113"/>
      <point x="315" y="-23"/>
    </contour>
    <contour>
      <point x="651" y="254" type="curve" smooth="yes"/>
      <point x="569" y="254"/>
      <point x="479" y="293"/>
      <point x="479" y="436" type="curve" smooth="yes"/>
      <point x="479" y="569"/>
      <point x="506" y="883"/>
      <point x="752" y="883" type="curve" smooth="yes"/>
      <point x="807" y="883"/>
      <point x="856" y="850"/>
      <point x="856" y="797" type="curve" smooth="yes"/>
      <point x="856" y="748"/>
      <point x="823" y="709"/>
      <point x="686" y="709" type="curve" smooth="yes"/>
      <point x="653" y="709" type="line"/>
      <point x="600" y="461" type="line"/>
      <point x="623" y="461" type="line" smooth="yes"/>
      <point x="696" y="461"/>
      <point x="782" y="442"/>
      <point x="782" y="362" type="curve" smooth="yes"/>
      <point x="782" y="289"/>
      <point x="723" y="254"/>
    </contour>
  </outline>
</glyph>
<glyph name="uni025F" format="2">
  <advance width="666"/>
  <unicode hex="025F"/>
  <anchor x="109" y="-492" name="bottom"/>
  <anchor x="455" y="1133" name="top"/>
  <anchor x="702" y="1133" name="topright"/>
  <outline>
    <contour>
      <point x="-57" y="-492" type="curve" smooth="yes"/>
      <point x="229" y="-492"/>
      <point x="354" y="-299"/>
      <point x="397" y="-94" type="curve" smooth="yes"/>
      <point x="512" y="451" type="line"/>
      <point x="666" y="451" type="line"/>
      <point x="719" y="680" type="line"/>
      <point x="561" y="680" type="line"/>
      <point x="657" y="1133" type="line"/>
      <point x="270" y="1133" type="line"/>
      <point x="174" y="680" type="line"/>
      <point x="6" y="680" type="line"/>
      <point x="-45" y="451" type="line"/>
      <point x="125" y="451" type="line"/>
      <point x="23" y="-33" type="line" smooth="yes"/>
      <point x="0" y="-139"/>
      <point x="-70" y="-180"/>
      <point x="-152" y="-180" type="curve" smooth="yes"/>
      <point x="-186" y="-180"/>
      <point x="-215" y="-178"/>
      <point x="-264" y="-162" type="curve"/>
      <point x="-264" y="-465" type="line"/>
      <point x="-217" y="-479"/>
      <point x="-129" y="-492"/>
    </contour>
  </outline>
</glyph>
<glyph name="uni0260" format="2">
  <advance width="1243"/>
  <unicode hex="0260"/>
  <anchor x="397" y="-492" name="bottom"/>
  <anchor x="838" y="1573" name="top"/>
  <outline>
    <contour>
      <point x="391" y="-492" type="curve" smooth="yes"/>
      <point x="668" y="-492"/>
      <point x="899" y="-379"/>
      <point x="975" y="-27" type="curve" smooth="yes"/>
      <point x="1223" y="1147" type="line" smooth="yes"/>
      <point x="1243" y="1245"/>
      <point x="1298" y="1280"/>
      <point x="1370" y="1280" type="curve" smooth="yes"/>
      <point x="1411" y="1280"/>
      <point x="1446" y="1266"/>
      <point x="1464" y="1260" type="curve"/>
      <point x="1464" y="1540" type="line"/>
      <point x="1438" y="1552"/>
      <point x="1374" y="1573"/>
      <point x="1282" y="1573" type="curve" smooth="yes"/>
      <point x="1047" y="1573"/>
      <point x="924" y="1456"/>
      <point x="879" y="1247" type="curve" smooth="yes"/>
      <point x="870" y="1210" type="line" smooth="yes"/>
      <point x="856" y="1130"/>
      <point x="850" y="1055"/>
      <point x="856" y="993" type="curve"/>
      <point x="850" y="993" type="line"/>
      <point x="776" y="1106"/>
      <point x="715" y="1153"/>
      <point x="586" y="1153" type="curve" smooth="yes"/>
      <point x="242" y="1153"/>
      <point x="84" y="688"/>
      <point x="84" y="408" type="curve" smooth="yes"/>
      <point x="84" y="98"/>
      <point x="213" y="-10"/>
      <point x="383" y="-10" type="curve" smooth="yes"/>
      <point x="512" y="-10"/>
      <point x="578" y="43"/>
      <point x="631" y="111" type="curve"/>
      <point x="639" y="111" type="line"/>
      <point x="629" y="78"/>
      <point x="618" y="39"/>
      <point x="612" y="8" type="curve" smooth="yes"/>
      <point x="602" y="-37" type="line" smooth="yes"/>
      <point x="580" y="-137"/>
      <point x="506" y="-197"/>
      <point x="381" y="-197" type="curve" smooth="yes"/>
      <point x="252" y="-197"/>
      <point x="131" y="-166"/>
      <point x="27" y="-111" type="curve"/>
      <point x="27" y="-428" type="line"/>
      <point x="123" y="-463"/>
      <point x="223" y="-492"/>
    </contour>
    <contour>
      <point x="565" y="291" type="curve" smooth="yes"/>
      <point x="508" y="291"/>
      <point x="479" y="342"/>
      <point x="479" y="434" type="curve" smooth="yes"/>
      <point x="479" y="629"/>
      <point x="573" y="842"/>
      <point x="680" y="842" type="curve" smooth="yes"/>
      <point x="735" y="842"/>
      <point x="760" y="784"/>
      <point x="760" y="698" type="curve" smooth="yes"/>
      <point x="760" y="532"/>
      <point x="684" y="291"/>
    </contour>
  </outline>
</glyph>
<glyph name="uni0262" format="2">
  <advance width="1237"/>
  <unicode hex="0262"/>
  <anchor x="498" y="0" name="bottom"/>
  <anchor x="739" y="1133" name="top"/>
  <anchor x="1073" y="1133" name="topright"/>
  <outline>
    <contour>
      <point x="592" y="-12" type="curve" smooth="yes"/>
      <point x="748" y="-12"/>
      <point x="864" y="12"/>
      <point x="979" y="51" type="curve"/>
      <point x="1110" y="668" type="line"/>
      <point x="586" y="668" type="line"/>
      <point x="535" y="444" type="line"/>
      <point x="743" y="444" type="line"/>
      <point x="711" y="268" type="line"/>
      <point x="688" y="262"/>
      <point x="668" y="256"/>
      <point x="637" y="256" type="curve" smooth="yes"/>
      <point x="481" y="256"/>
      <point x="395" y="340"/>
      <point x="395" y="489" type="curve" smooth="yes"/>
      <point x="395" y="647"/>
      <point x="471" y="883"/>
      <point x="723" y="883" type="curve" smooth="yes"/>
      <point x="838" y="883"/>
      <point x="954" y="848"/>
      <point x="1026" y="811" type="curve"/>
      <point x="1137" y="1069" type="line"/>
      <point x="1057" y="1108"/>
      <point x="887" y="1155"/>
      <point x="731" y="1155" type="curve" smooth="yes"/>
      <point x="233" y="1155"/>
      <point x="74" y="768"/>
      <point x="74" y="473" type="curve" smooth="yes"/>
      <point x="74" y="172"/>
      <point x="285" y="-12"/>
    </contour>
  </outline>
</glyph>
<glyph name="uni0264" format="2">
  <advance width="1229"/>
  <unicode hex="0264"/>
  <anchor x="494" y="0" name="bottom"/>
  <anchor x="735" y="1133" name="top"/>
  <outline>
    <contour>
      <point x="547" y="-31" type="curve" smooth="yes"/>
      <point x="784" y="-31"/>
      <point x="903" y="109"/>
      <point x="903" y="315" type="curve" smooth="yes"/>
      <point x="903" y="401"/>
      <point x="889" y="481"/>
      <point x="868" y="541" type="curve"/>
      <point x="981" y="676" type="line" smooth="yes"/>
      <point x="1090" y="815"/>
      <point x="1145" y="852"/>
      <point x="1243" y="852" type="curve" smooth="yes"/>
      <point x="1266" y="852"/>
      <point x="1282" y="850"/>
      <point x="1309" y="842" type="curve"/>
      <point x="1284" y="1122" type="line"/>
      <point x="1251" y="1141"/>
      <point x="1200" y="1151"/>
      <point x="1147" y="1151" type="curve" smooth="yes"/>
      <point x="1001" y="1151"/>
      <point x="913" y="1069"/>
      <point x="821" y="965" type="curve" smooth="yes"/>
      <point x="791" y="930" type="line" smooth="yes"/>
      <point x="752" y="887"/>
      <point x="705" y="838"/>
      <point x="674" y="795" type="curve"/>
      <point x="666" y="795" type="line"/>
      <point x="647" y="838"/>
      <point x="629" y="870"/>
      <point x="600" y="913" type="curve" smooth="yes"/>
      <point x="569" y="958" type="line" smooth="yes"/>
      <point x="494" y="1071"/>
      <point x="418" y="1151"/>
      <point x="260" y="1151" type="curve" smooth="yes"/>
      <point x="188" y="1151"/>
      <point x="129" y="1137"/>
      <point x="76" y="1120" type="curve"/>
      <point x="76" y="842" type="line"/>
      <point x="113" y="850"/>
      <point x="137" y="852"/>
      <point x="162" y="852" type="curve" smooth="yes"/>
      <point x="236" y="852"/>
      <point x="281" y="799"/>
      <point x="346" y="686" type="curve" smooth="yes"/>
      <point x="406" y="584" type="line"/>
      <point x="332" y="485"/>
      <point x="252" y="377"/>
      <point x="252" y="244" type="curve" smooth="yes"/>
      <point x="252" y="96"/>
      <point x="340" y="-31"/>
    </contour>
    <contour>
      <point x="569" y="170" type="curve" smooth="yes"/>
      <point x="530" y="170"/>
      <point x="510" y="199"/>
      <point x="510" y="238" type="curve" smooth="yes"/>
      <point x="510" y="264"/>
      <point x="510" y="317"/>
      <point x="612" y="416" type="curve"/>
      <point x="637" y="373"/>
      <point x="645" y="324"/>
      <point x="645" y="289" type="curve" smooth="yes"/>
      <point x="645" y="227"/>
      <point x="625" y="170"/>
    </contour>
  </outline>
</glyph>
<glyph name="uni0265" format="2">
  <advance width="1274"/>
  <unicode hex="0265"/>
  <anchor x="412" y="-492" name="bottom"/>
  <anchor x="758" y="1133" name="top"/>
  <outline>
    <contour>
      <point x="522" y="-492" type="line"/>
      <point x="909" y="-492" type="line"/>
      <point x="1251" y="1133" type="line"/>
      <point x="864" y="1133" type="line"/>
      <point x="748" y="580" type="line" smooth="yes"/>
      <point x="705" y="371"/>
      <point x="639" y="287"/>
      <point x="563" y="287" type="curve" smooth="yes"/>
      <point x="522" y="287"/>
      <point x="487" y="315"/>
      <point x="487" y="373" type="curve" smooth="yes"/>
      <point x="487" y="420"/>
      <point x="498" y="479"/>
      <point x="506" y="514" type="curve" smooth="yes"/>
      <point x="635" y="1133" type="line"/>
      <point x="248" y="1133" type="line"/>
      <point x="121" y="530" type="line" smooth="yes"/>
      <point x="106" y="459"/>
      <point x="96" y="377"/>
      <point x="96" y="301" type="curve" smooth="yes"/>
      <point x="96" y="127"/>
      <point x="184" y="-20"/>
      <point x="395" y="-20" type="curve" smooth="yes"/>
      <point x="508" y="-20"/>
      <point x="598" y="18"/>
      <point x="668" y="109" type="curve"/>
      <point x="676" y="109" type="line"/>
      <point x="647" y="39"/>
      <point x="608" y="-78"/>
      <point x="588" y="-174" type="curve" smooth="yes"/>
    </contour>
  </outline>
</glyph>
<glyph name="uni0266" format="2">
  <advance width="1274"/>
  <unicode hex="0266"/>
  <anchor x="516" y="0" name="bottom"/>
  <anchor x="852" y="1573" name="top"/>
  <outline>
    <contour>
      <point x="23" y="0" type="line"/>
      <point x="410" y="0" type="line"/>
      <point x="518" y="516" type="line" smooth="yes"/>
      <point x="561" y="725"/>
      <point x="627" y="809"/>
      <point x="702" y="809" type="curve" smooth="yes"/>
      <point x="743" y="809"/>
      <point x="778" y="780"/>
      <point x="778" y="723" type="curve" smooth="yes"/>
      <point x="778" y="676"/>
      <point x="768" y="616"/>
      <point x="760" y="582" type="curve" smooth="yes"/>
      <point x="639" y="0" type="line"/>
      <point x="1026" y="0" type="line"/>
      <point x="1145" y="565" type="line" smooth="yes"/>
      <point x="1159" y="637"/>
      <point x="1169" y="719"/>
      <point x="1169" y="795" type="curve" smooth="yes"/>
      <point x="1169" y="969"/>
      <point x="1081" y="1116"/>
      <point x="870" y="1116" type="curve" smooth="yes"/>
      <point x="758" y="1116"/>
      <point x="676" y="1067"/>
      <point x="610" y="979" type="curve"/>
      <point x="602" y="979" type="line"/>
      <point x="618" y="1016"/>
      <point x="633" y="1065"/>
      <point x="641" y="1102" type="curve" smooth="yes"/>
      <point x="653" y="1161" type="line" smooth="yes"/>
      <point x="670" y="1237"/>
      <point x="705" y="1280"/>
      <point x="784" y="1280" type="curve" smooth="yes"/>
      <point x="831" y="1280"/>
      <point x="864" y="1266"/>
      <point x="887" y="1260" type="curve"/>
      <point x="887" y="1540" type="line"/>
      <point x="862" y="1552"/>
      <point x="815" y="1573"/>
      <point x="705" y="1573" type="curve" smooth="yes"/>
      <point x="467" y="1573"/>
      <point x="330" y="1440"/>
      <point x="274" y="1186" type="curve" smooth="yes"/>
    </contour>
  </outline>
</glyph>
<glyph name="uni0268" format="2">
  <advance width="666"/>
  <unicode hex="0268"/>
  <anchor x="213" y="0" name="bottom"/>
  <anchor x="535" y="1591" name="top"/>
  <outline>
    <contour>
      <point x="23" y="0" type="line"/>
      <point x="410" y="0" type="line"/>
      <point x="506" y="451" type="line"/>
      <point x="659" y="451" type="line"/>
      <point x="711" y="680" type="line"/>
      <point x="555" y="680" type="line"/>
      <point x="651" y="1133" type="line"/>
      <point x="262" y="1133" type="line"/>
      <point x="166" y="680" type="line"/>
      <point x="10" y="680" type="line"/>
      <point x="-41" y="451" type="line"/>
      <point x="119" y="451" type="line"/>
    </contour>
    <contour>
      <point x="500" y="1241" type="curve" smooth="yes"/>
      <point x="653" y="1241"/>
      <point x="725" y="1325"/>
      <point x="725" y="1450" type="curve" smooth="yes"/>
      <point x="725" y="1554"/>
      <point x="637" y="1591"/>
      <point x="535" y="1591" type="curve" smooth="yes"/>
      <point x="393" y="1591"/>
      <point x="309" y="1518"/>
      <point x="309" y="1382" type="curve" smooth="yes"/>
      <point x="309" y="1278"/>
      <point x="391" y="1241"/>
    </contour>
  </outline>
</glyph>
<glyph name="uni026A" format="2">
  <advance width="741"/>
  <unicode hex="026A"/>
  <anchor x="250" y="0" name="bottom"/>
  <anchor x="492" y="1133" name="top"/>
  <outline>
    <contour>
      <point x="-74" y="0" type="line"/>
      <point x="543" y="0" type="line"/>
      <point x="580" y="188" type="line"/>
      <point x="449" y="281" type="line"/>
      <point x="578" y="852" type="line"/>
      <point x="745" y="944" type="line"/>
      <point x="782" y="1133" type="line"/>
      <point x="166" y="1133" type="line"/>
      <point x="129" y="944" type="line"/>
      <point x="256" y="852" type="line"/>
      <point x="127" y="281" type="line"/>
      <point x="-37" y="188" type="line"/>
    </contour>
  </outline>
</glyph>
<glyph name="uni026B" format="2">
  <advance width="946"/>
  <unicode hex="026B"/>
  <anchor x="352" y="0" name="bottom"/>
  <anchor x="684" y="1556" name="top"/>
  <outline>
    <contour>
      <point x="154" y="0" type="line"/>
      <point x="541" y="0" type="line"/>
      <point x="666" y="590" type="line"/>
      <point x="680" y="588"/>
      <point x="694" y="586"/>
      <point x="721" y="586" type="curve" smooth="yes"/>
      <point x="881" y="586"/>
      <point x="985" y="678"/>
      <point x="1036" y="922" type="curve"/>
      <point x="854" y="922" type="line"/>
      <point x="836" y="860"/>
      <point x="807" y="817"/>
      <point x="758" y="817" type="curve" smooth="yes"/>
      <point x="739" y="817"/>
      <point x="727" y="819"/>
      <point x="715" y="821" type="curve"/>
      <point x="870" y="1556" type="line"/>
      <point x="483" y="1556" type="line"/>
      <point x="346" y="911" type="line"/>
      <point x="334" y="913"/>
      <point x="324" y="915"/>
      <point x="307" y="915" type="curve" smooth="yes"/>
      <point x="125" y="915"/>
      <point x="23" y="797"/>
      <point x="-27" y="584" type="curve"/>
      <point x="158" y="584" type="line"/>
      <point x="172" y="643"/>
      <point x="207" y="686"/>
      <point x="260" y="686" type="curve" smooth="yes"/>
      <point x="276" y="686"/>
      <point x="287" y="684"/>
      <point x="299" y="682" type="curve"/>
    </contour>
  </outline>
</glyph>
<glyph name="uni026F" format="2">
  <advance width="1896"/>
  <unicode hex="026F"/>
  <anchor x="827" y="0" name="bottom"/>
  <anchor x="1069" y="1133" name="top"/>
  <outline>
    <contour>
      <point x="383" y="-23" type="curve" smooth="yes"/>
      <point x="530" y="-23"/>
      <point x="641" y="43"/>
      <point x="727" y="184" type="curve"/>
      <point x="735" y="184" type="line"/>
      <point x="770" y="51"/>
      <point x="850" y="-23"/>
      <point x="1006" y="-23" type="curve" smooth="yes"/>
      <point x="1161" y="-23"/>
      <point x="1253" y="35"/>
      <point x="1333" y="184" type="curve"/>
      <point x="1341" y="184" type="line"/>
      <point x="1325" y="-2" type="line"/>
      <point x="1634" y="-2" type="line"/>
      <point x="1874" y="1130" type="line"/>
      <point x="1487" y="1130" type="line"/>
      <point x="1368" y="580" type="line" smooth="yes"/>
      <point x="1317" y="346"/>
      <point x="1253" y="285"/>
      <point x="1178" y="285" type="curve" smooth="yes"/>
      <point x="1137" y="285"/>
      <point x="1106" y="311"/>
      <point x="1106" y="379" type="curve" smooth="yes"/>
      <point x="1106" y="412"/>
      <point x="1114" y="469"/>
      <point x="1120" y="500" type="curve" smooth="yes"/>
      <point x="1251" y="1130" type="line"/>
      <point x="864" y="1130" type="line"/>
      <point x="754" y="588" type="line" smooth="yes"/>
      <point x="713" y="387"/>
      <point x="655" y="285"/>
      <point x="557" y="285" type="curve" smooth="yes"/>
      <point x="514" y="285"/>
      <point x="487" y="313"/>
      <point x="487" y="367" type="curve" smooth="yes"/>
      <point x="487" y="424"/>
      <point x="496" y="473"/>
      <point x="502" y="500" type="curve" smooth="yes"/>
      <point x="631" y="1130" type="line"/>
      <point x="244" y="1130" type="line"/>
      <point x="119" y="516" type="line" smooth="yes"/>
      <point x="104" y="444"/>
      <point x="96" y="373"/>
      <point x="96" y="311" type="curve" smooth="yes"/>
      <point x="96" y="92"/>
      <point x="197" y="-23"/>
    </contour>
  </outline>
</glyph>
<glyph name="uni0271" format="2">
  <advance width="1896"/>
  <unicode hex="0271"/>
  <anchor x="723" y="-492" name="bottom"/>
  <anchor x="1069" y="1133" name="top"/>
  <anchor x="1976" y="1133" name="topright"/>
  <outline>
    <contour>
      <point x="1180" y="-492" type="curve" smooth="yes"/>
      <point x="1464" y="-492"/>
      <point x="1591" y="-311"/>
      <point x="1634" y="-92" type="curve" smooth="yes"/>
      <point x="1778" y="614" type="line" smooth="yes"/>
      <point x="1792" y="686"/>
      <point x="1800" y="758"/>
      <point x="1800" y="819" type="curve" smooth="yes"/>
      <point x="1800" y="1038"/>
      <point x="1700" y="1153"/>
      <point x="1513" y="1153" type="curve" smooth="yes"/>
      <point x="1366" y="1153"/>
      <point x="1255" y="1087"/>
      <point x="1169" y="946" type="curve"/>
      <point x="1161" y="946" type="line"/>
      <point x="1126" y="1079"/>
      <point x="1047" y="1153"/>
      <point x="891" y="1153" type="curve" smooth="yes"/>
      <point x="735" y="1153"/>
      <point x="643" y="1096"/>
      <point x="563" y="946" type="curve"/>
      <point x="555" y="946" type="line"/>
      <point x="571" y="1133" type="line"/>
      <point x="262" y="1133" type="line"/>
      <point x="23" y="0" type="line"/>
      <point x="410" y="0" type="line"/>
      <point x="528" y="551" type="line" smooth="yes"/>
      <point x="580" y="784"/>
      <point x="643" y="846"/>
      <point x="719" y="846" type="curve" smooth="yes"/>
      <point x="760" y="846"/>
      <point x="791" y="819"/>
      <point x="791" y="752" type="curve" smooth="yes"/>
      <point x="791" y="719"/>
      <point x="782" y="662"/>
      <point x="776" y="631" type="curve" smooth="yes"/>
      <point x="645" y="0" type="line"/>
      <point x="1032" y="0" type="line"/>
      <point x="1143" y="543" type="line" smooth="yes"/>
      <point x="1184" y="743"/>
      <point x="1241" y="846"/>
      <point x="1339" y="846" type="curve" smooth="yes"/>
      <point x="1382" y="846"/>
      <point x="1409" y="817"/>
      <point x="1409" y="764" type="curve" smooth="yes"/>
      <point x="1409" y="707"/>
      <point x="1401" y="657"/>
      <point x="1395" y="631" type="curve" smooth="yes"/>
      <point x="1260" y="-39" type="line" smooth="yes"/>
      <point x="1239" y="-131"/>
      <point x="1194" y="-190"/>
      <point x="1094" y="-190" type="curve" smooth="yes"/>
      <point x="1057" y="-190"/>
      <point x="1020" y="-186"/>
      <point x="973" y="-172" type="curve"/>
      <point x="973" y="-465" type="line"/>
      <point x="1018" y="-479"/>
      <point x="1104" y="-492"/>
    </contour>
  </outline>
</glyph>
<glyph name="uni0273" format="2">
  <advance width="1274"/>
  <unicode hex="0273"/>
  <anchor x="412" y="-492" name="bottom"/>
  <anchor x="758" y="1133" name="top"/>
  <anchor x="1354" y="1133" name="topright"/>
  <outline>
    <contour>
      <point x="969" y="-492" type="curve" smooth="yes"/>
      <point x="1038" y="-492"/>
      <point x="1122" y="-481"/>
      <point x="1178" y="-463" type="curve"/>
      <point x="1178" y="-176" type="line"/>
      <point x="1135" y="-190"/>
      <point x="1114" y="-193"/>
      <point x="1083" y="-193" type="curve" smooth="yes"/>
      <point x="1026" y="-193"/>
      <point x="1006" y="-168"/>
      <point x="1006" y="-121" type="curve" smooth="yes"/>
      <point x="1006" y="-78"/>
      <point x="1024" y="-12"/>
      <point x="1034" y="37" type="curve" smooth="yes"/>
      <point x="1153" y="602" type="line" smooth="yes"/>
      <point x="1167" y="674"/>
      <point x="1178" y="756"/>
      <point x="1178" y="831" type="curve" smooth="yes"/>
      <point x="1178" y="1006"/>
      <point x="1090" y="1153"/>
      <point x="879" y="1153" type="curve" smooth="yes"/>
      <point x="735" y="1153"/>
      <point x="641" y="1102"/>
      <point x="567" y="975" type="curve"/>
      <point x="559" y="975" type="line"/>
      <point x="571" y="1133" type="line"/>
      <point x="262" y="1133" type="line"/>
      <point x="23" y="0" type="line"/>
      <point x="410" y="0" type="line"/>
      <point x="526" y="553" type="line" smooth="yes"/>
      <point x="567" y="754"/>
      <point x="635" y="846"/>
      <point x="711" y="846" type="curve" smooth="yes"/>
      <point x="752" y="846"/>
      <point x="786" y="817"/>
      <point x="786" y="760" type="curve" smooth="yes"/>
      <point x="786" y="713"/>
      <point x="776" y="653"/>
      <point x="768" y="618" type="curve" smooth="yes"/>
      <point x="625" y="-74" type="line" smooth="yes"/>
      <point x="614" y="-117"/>
      <point x="606" y="-172"/>
      <point x="606" y="-217" type="curve" smooth="yes"/>
      <point x="606" y="-393"/>
      <point x="733" y="-492"/>
    </contour>
  </outline>
</glyph>
<glyph name="uni0274" format="2">
  <advance width="1407"/>
  <unicode hex="0274"/>
  <anchor x="584" y="0" name="bottom"/>
  <anchor x="825" y="1133" name="top"/>
  <anchor x="1391" y="1133" name="topright"/>
  <outline>
    <contour>
      <point x="33" y="0" type="line"/>
      <point x="317" y="0" type="line"/>
      <point x="416" y="461" type="line" smooth="yes"/>
      <point x="438" y="563"/>
      <point x="457" y="727"/>
      <point x="465" y="803" type="curve"/>
      <point x="743" y="0" type="line"/>
      <point x="1108" y="0" type="line"/>
      <point x="1348" y="1133" type="line"/>
      <point x="1065" y="1133" type="line"/>
      <point x="965" y="674" type="line" smooth="yes"/>
      <point x="946" y="598"/>
      <point x="920" y="430"/>
      <point x="911" y="373" type="curve"/>
      <point x="657" y="1133" type="line"/>
      <point x="272" y="1133" type="line"/>
    </contour>
  </outline>
</glyph>
<glyph name="uni0276" format="2">
  <advance width="1640"/>
  <unicode hex="0276"/>
  <anchor x="700" y="0" name="bottom"/>
  <anchor x="942" y="1133" name="top"/>
  <outline>
    <contour>
      <point x="543" y="-14" type="curve" smooth="yes"/>
      <point x="596" y="-14"/>
      <point x="649" y="-4"/>
      <point x="696" y="20" type="curve"/>
      <point x="694" y="0" type="line"/>
      <point x="1386" y="0" type="line"/>
      <point x="1440" y="264" type="line"/>
      <point x="1030" y="264" type="line"/>
      <point x="1077" y="457" type="line"/>
      <point x="1456" y="457" type="line"/>
      <point x="1511" y="717" type="line"/>
      <point x="1133" y="717" type="line"/>
      <point x="1167" y="872" type="line"/>
      <point x="1575" y="872" type="line"/>
      <point x="1628" y="1133" type="line"/>
      <point x="909" y="1133" type="line"/>
      <point x="905" y="1112" type="line"/>
      <point x="854" y="1135"/>
      <point x="788" y="1151"/>
      <point x="715" y="1151" type="curve" smooth="yes"/>
      <point x="252" y="1151"/>
      <point x="74" y="739"/>
      <point x="74" y="424" type="curve" smooth="yes"/>
      <point x="74" y="164"/>
      <point x="236" y="-14"/>
    </contour>
    <contour>
      <point x="567" y="254" type="curve" smooth="yes"/>
      <point x="461" y="254"/>
      <point x="395" y="301"/>
      <point x="395" y="438" type="curve" smooth="yes"/>
      <point x="395" y="668"/>
      <point x="508" y="885"/>
      <point x="674" y="885" type="curve" smooth="yes"/>
      <point x="805" y="885"/>
      <point x="811" y="733"/>
      <point x="788" y="580" type="curve" smooth="yes"/>
      <point x="764" y="418"/>
      <point x="700" y="254"/>
    </contour>
  </outline>
</glyph>
<glyph name="uni027B" format="2">
  <advance width="895"/>
  <unicode hex="027B"/>
  <anchor x="223" y="-492" name="bottom"/>
  <anchor x="569" y="1133" name="top"/>
  <outline>
    <contour>
      <point x="575" y="-492" type="curve" smooth="yes"/>
      <point x="645" y="-492"/>
      <point x="729" y="-481"/>
      <point x="784" y="-463" type="curve"/>
      <point x="784" y="-176" type="line"/>
      <point x="741" y="-190"/>
      <point x="721" y="-193"/>
      <point x="690" y="-193" type="curve" smooth="yes"/>
      <point x="633" y="-193"/>
      <point x="612" y="-168"/>
      <point x="612" y="-121" type="curve" smooth="yes"/>
      <point x="612" y="-78"/>
      <point x="631" y="-12"/>
      <point x="641" y="37" type="curve" smooth="yes"/>
      <point x="872" y="1133" type="line"/>
      <point x="485" y="1133" type="line"/>
      <point x="379" y="635" type="line" smooth="yes"/>
      <point x="332" y="418"/>
      <point x="242" y="348"/>
      <point x="121" y="348" type="curve" smooth="yes"/>
      <point x="72" y="348"/>
      <point x="27" y="358"/>
      <point x="-2" y="371" type="curve"/>
      <point x="-86" y="-12" type="line"/>
      <point x="-74" y="-16"/>
      <point x="-35" y="-20"/>
      <point x="-6" y="-20" type="curve" smooth="yes"/>
      <point x="147" y="-20"/>
      <point x="240" y="29"/>
      <point x="334" y="188" type="curve"/>
      <point x="346" y="182" type="line"/>
      <point x="322" y="141"/>
      <point x="270" y="20"/>
      <point x="252" y="-47" type="curve" smooth="yes"/>
      <point x="244" y="-78" type="line" smooth="yes"/>
      <point x="233" y="-119"/>
      <point x="225" y="-174"/>
      <point x="225" y="-217" type="curve" smooth="yes"/>
      <point x="225" y="-393"/>
      <point x="348" y="-492"/>
    </contour>
  </outline>
</glyph>
<glyph name="rlongleg" format="2">
  <advance width="895"/>
  <unicode hex="027C"/>
  <anchor x="223" y="-492" name="bottom"/>
  <anchor x="569" y="1133" name="top"/>
  <outline>
    <contour>
      <point x="-80" y="-492" type="line"/>
      <point x="307" y="-492" type="line"/>
      <point x="516" y="498" type="line" smooth="yes"/>
      <point x="561" y="715"/>
      <point x="653" y="784"/>
      <point x="774" y="784" type="curve" smooth="yes"/>
      <point x="823" y="784"/>
      <point x="868" y="774"/>
      <point x="897" y="762" type="curve"/>
      <point x="981" y="1145" type="line"/>
      <point x="969" y="1149"/>
      <point x="930" y="1153"/>
      <point x="901" y="1153" type="curve" smooth="yes"/>
      <point x="748" y="1153"/>
      <point x="655" y="1104"/>
      <point x="561" y="944" type="curve"/>
      <point x="553" y="944" type="line"/>
      <point x="571" y="1133" type="line"/>
      <point x="262" y="1133" type="line"/>
    </contour>
  </outline>
</glyph>
<glyph name="uni027E" format="2">
  <advance width="844"/>
  <unicode hex="027E"/>
  <anchor x="301" y="0" name="bottom"/>
  <anchor x="543" y="1133" name="top"/>
  <outline>
    <contour>
      <point x="23" y="0" type="line"/>
      <point x="410" y="0" type="line"/>
      <point x="553" y="684" type="line" smooth="yes"/>
      <point x="573" y="782"/>
      <point x="627" y="838"/>
      <point x="733" y="838" type="curve" smooth="yes"/>
      <point x="774" y="838"/>
      <point x="803" y="831"/>
      <point x="840" y="821" type="curve"/>
      <point x="924" y="1118" type="line"/>
      <point x="838" y="1141"/>
      <point x="760" y="1157"/>
      <point x="649" y="1157" type="curve" smooth="yes"/>
      <point x="356" y="1157"/>
      <point x="233" y="995"/>
      <point x="172" y="713" type="curve" smooth="yes"/>
    </contour>
  </outline>
</glyph>
<glyph name="uni0280" format="2">
  <advance width="1178"/>
  <unicode hex="0280"/>
  <anchor x="469" y="0" name="bottom"/>
  <anchor x="711" y="1133" name="top"/>
  <outline>
    <contour>
      <point x="41" y="0" type="line"/>
      <point x="362" y="0" type="line"/>
      <point x="449" y="403" type="line"/>
      <point x="557" y="403" type="line"/>
      <point x="713" y="0" type="line"/>
      <point x="1059" y="0" type="line"/>
      <point x="846" y="463" type="line"/>
      <point x="1012" y="510"/>
      <point x="1120" y="618"/>
      <point x="1120" y="797" type="curve" smooth="yes"/>
      <point x="1120" y="1010"/>
      <point x="981" y="1133"/>
      <point x="664" y="1133" type="curve" smooth="yes"/>
      <point x="281" y="1133" type="line"/>
    </contour>
    <contour>
      <point x="504" y="666" type="line"/>
      <point x="549" y="870" type="line"/>
      <point x="672" y="870" type="line" smooth="yes"/>
      <point x="762" y="870"/>
      <point x="799" y="836"/>
      <point x="799" y="778" type="curve" smooth="yes"/>
      <point x="799" y="688"/>
      <point x="721" y="666"/>
      <point x="625" y="666" type="curve" smooth="yes"/>
    </contour>
  </outline>
</glyph>
<glyph name="uni0281" format="2">
  <advance width="1110"/>
  <unicode hex="0281"/>
  <anchor x="434" y="0" name="bottom"/>
  <anchor x="676" y="1133" name="top"/>
  <outline>
    <contour>
      <point x="33" y="0" type="line"/>
      <point x="489" y="0" type="line" smooth="yes"/>
      <point x="866" y="0"/>
      <point x="997" y="193"/>
      <point x="997" y="367" type="curve" smooth="yes"/>
      <point x="997" y="487"/>
      <point x="942" y="555"/>
      <point x="825" y="629" type="curve"/>
      <point x="1251" y="1133" type="line"/>
      <point x="872" y="1133" type="line"/>
      <point x="549" y="729" type="line"/>
      <point x="502" y="729" type="line"/>
      <point x="592" y="1133" type="line"/>
      <point x="272" y="1133" type="line"/>
    </contour>
    <contour>
      <point x="403" y="262" type="line"/>
      <point x="453" y="469" type="line"/>
      <point x="528" y="469" type="line"/>
      <point x="571" y="469"/>
      <point x="662" y="467"/>
      <point x="662" y="389" type="curve" smooth="yes"/>
      <point x="662" y="326"/>
      <point x="616" y="262"/>
      <point x="496" y="262" type="curve" smooth="yes"/>
    </contour>
  </outline>
</glyph>
<glyph name="uni0282" format="2">
  <advance width="1028"/>
  <unicode hex="0282"/>
  <anchor x="289" y="-492" name="bottom"/>
  <anchor x="635" y="1133" name="top"/>
  <outline>
    <contour>
      <point x="205" y="-492" type="curve" smooth="yes"/>
      <point x="264" y="-492"/>
      <point x="336" y="-483"/>
      <point x="387" y="-469" type="curve"/>
      <point x="387" y="-213" type="line"/>
      <point x="346" y="-225"/>
      <point x="326" y="-229"/>
      <point x="291" y="-229" type="curve" smooth="yes"/>
      <point x="258" y="-229"/>
      <point x="231" y="-213"/>
      <point x="231" y="-172" type="curve" smooth="yes"/>
      <point x="231" y="-158"/>
      <point x="233" y="-143"/>
      <point x="238" y="-123" type="curve" smooth="yes"/>
      <point x="258" y="-14" type="line"/>
      <point x="297" y="-18"/>
      <point x="342" y="-20"/>
      <point x="387" y="-20" type="curve" smooth="yes"/>
      <point x="694" y="-20"/>
      <point x="891" y="113"/>
      <point x="891" y="393" type="curve" smooth="yes"/>
      <point x="891" y="532"/>
      <point x="819" y="637"/>
      <point x="666" y="713" type="curve" smooth="yes"/>
      <point x="571" y="760"/>
      <point x="532" y="782"/>
      <point x="532" y="821" type="curve" smooth="yes"/>
      <point x="532" y="866"/>
      <point x="561" y="889"/>
      <point x="608" y="889" type="curve" smooth="yes"/>
      <point x="686" y="889"/>
      <point x="791" y="844"/>
      <point x="866" y="795" type="curve"/>
      <point x="987" y="1047" type="line"/>
      <point x="872" y="1118"/>
      <point x="752" y="1153"/>
      <point x="604" y="1153" type="curve" smooth="yes"/>
      <point x="287" y="1153"/>
      <point x="139" y="1008"/>
      <point x="139" y="795" type="curve" smooth="yes"/>
      <point x="139" y="651"/>
      <point x="201" y="557"/>
      <point x="342" y="479" type="curve" smooth="yes"/>
      <point x="479" y="403"/>
      <point x="498" y="379"/>
      <point x="498" y="334" type="curve" smooth="yes"/>
      <point x="498" y="272"/>
      <point x="410" y="264"/>
      <point x="362" y="264" type="curve" smooth="yes"/>
      <point x="254" y="264"/>
      <point x="154" y="287"/>
      <point x="31" y="354" type="curve"/>
      <point x="-68" y="-106" type="line" smooth="yes"/>
      <point x="-76" y="-147"/>
      <point x="-82" y="-199"/>
      <point x="-82" y="-244" type="curve" smooth="yes"/>
      <point x="-82" y="-385"/>
      <point x="14" y="-492"/>
    </contour>
  </outline>
</glyph>
